<?xml version="1.0" encoding="utf-8"?>
<!-- Generator: Adobe Illustrator 17.0.0, SVG Export Plug-In . SVG Version: 6.00 Build 0)  -->
<!DOCTYPE svg PUBLIC "-//W3C//DTD SVG 1.1//EN" "http://www.w3.org/Graphics/SVG/1.1/DTD/svg11.dtd">
<svg version="1.1" id="Livello_1" xmlns="http://www.w3.org/2000/svg" xmlns:xlink="http://www.w3.org/1999/xlink" x="0px" y="0px"
	 width="271.084px" height="245.873px" viewBox="-0.256 0.594 271.084 245.873"
	 enable-background="new -0.256 0.594 271.084 245.873" xml:space="preserve">
<g>
	<g>
		<defs>
			<path id="SVGID_1_" d="M245.504,234.474c-0.003,6.627-5.379,11.997-12.006,11.994l-221.76-0.113
				c-6.627-0.003-11.997-5.379-11.994-12.006l0.113-221.76C-0.14,5.961,5.236,0.591,11.863,0.594l221.76,0.113
				c6.627,0.003,11.997,5.379,11.994,12.006L245.504,234.474z"/>
		</defs>
		<clipPath id="SVGID_2_">
			<use xlink:href="#SVGID_1_"  overflow="visible"/>
		</clipPath>
		<g clip-path="url(#SVGID_2_)">
			<g>
				<path fill="#70CEF2" d="M243.97,109.931c-3.099-3.169-6.254-6.283-9.365-9.439c-4.933-5.004-9.857-10.019-14.888-14.923
					c-3.545-3.454-6.581-7.393-10.338-10.637c-0.994-0.858-1.946-1.77-2.884-2.692c-4.983-4.901-9.736-10.032-14.792-14.859
					c-1.476-1.409-2.836-2.911-4.154-4.455c-0.664-0.63-1.504-0.433-2.282-0.436c-19.792-0.069-39.583-0.123-59.375-0.179
					c-0.84-0.002-1.679-0.009-2.517-0.074c-0.838,0.059-1.678,0.061-2.518,0.059c-19.64-0.059-39.28-0.115-58.92-0.171
					c-0.56-0.002-1.12-0.006-1.68,0.017c-0.724,0.03-1.097,0.395-1.133,1.12c-0.023,0.48-0.029,0.96-0.026,1.44
					c0.045,8.948-0.106,17.896-0.093,26.844c0.022,15.908-0.052,31.816-0.141,47.724c-0.047,8.314,0.099,16.628-0.243,24.945
					c-0.273,6.618,0.046,13.256-0.038,19.882c-0.078,6.119-0.04,12.237-0.119,18.355c-0.01,0.758-0.044,1.524,0.26,2.253
					c0.786,1.127,1.933,1.893,2.853,2.888c2.926,3.165,6.051,6.138,9.089,9.194c4.923,4.953,9.807,9.943,14.764,14.863
					c4.786,4.751,9.482,9.59,14.269,14.342c3.031,3.009,6.033,6.045,9.036,9.082c0.406,0.411,0.929,0.855,0.399,1.537
					c-36.074-0.104-72.148-0.212-108.221-0.289c-0.965-0.002-1.249-0.142-1.246-1.208C-0.068,163.97,0.165,82.823,0.37,1.678
					c0.003-0.973,0.196-1.166,1.169-1.164C82.725,0.777,163.911,1.01,245.097,1.217c0.941,0.003,1.081,0.261,1.078,1.126
					c-0.127,36.114-0.228,72.228-0.332,108.341C244.886,111.274,244.444,110.419,243.97,109.931z"/>
				<path fill="#58B6E2" d="M245.479,245.864c-0.002,0.973-0.196,1.166-1.169,1.163c-45.061-0.161-90.121-0.286-135.18-0.416
					c0.03-0.398-0.191-0.665-0.45-0.932c-2.634-2.713-5.343-5.351-7.989-8.053c-5.678-5.797-11.495-11.46-17.228-17.206
					c-6.07-6.085-12.11-12.199-18.156-18.305c-2.238-2.26-4.459-4.538-6.687-6.807c-0.065-0.741,0.499-1.038,0.992-1.367
					c0.465-0.311,0.988-0.52,1.466-0.814c9.228-5.667,18.518-11.235,27.763-16.877c10.847-6.621,21.735-13.175,32.607-19.755
					c0.512-0.311,1.01-0.669,1.664-0.494c0.604,0.104,1.112,0.409,1.625,0.73c5.792,3.62,11.597,7.216,17.399,10.82
					c7.973,4.953,15.937,9.921,23.913,14.867c6.348,3.935,12.686,7.886,19.031,11.827c0.591,0.368,1.201,0.993,1.957,0.556
					c0.713-0.414,0.432-1.229,0.439-1.875c0.099-8.665,0.01-17.33,0.07-25.995c0.036-5.271,0.005-10.541-0.123-15.815
					c-0.188-7.711,0.002-15.431-0.001-23.147c-0.001-1.125,0.312-2.221,0.224-3.339c-0.139-1.75-0.191-3.502-0.186-5.257
					c0.038-12.834,0.081-25.667,0.106-38.501c0.005-2.346,0.151-4.683,0.093-7.038c-0.158-6.433-0.035-12.872,0.004-19.309
					c0.003-0.513-0.024-1.063,0.552-1.354c0.957,1.011,1.843,2.101,2.884,3.016c2.822,2.481,5.333,5.271,8.008,7.896
					c3.094,3.036,5.997,6.26,9.231,9.163c1.138,1.021,2.392,1.954,3.388,3.107c3.91,4.527,8.21,8.676,12.388,12.942
					c3.705,3.784,7.496,7.481,11.237,11.229c3.208,3.215,6.399,6.446,9.588,9.68c0.263,0.266,0.501,0.514,0.906,0.484
					C245.714,155.745,245.58,200.804,245.479,245.864z"/>
				<path fill="#F1F1F1" d="M122.551,154.201c0.017-6.815,0.038-13.629,0.056-20.444c0.002-0.598,0.072-1.209-0.058-1.789
					c-0.195-0.861-0.032-1.656,0.26-2.453c0.655-0.849,1.37-0.371,2.034-0.057c2.891,1.366,5.648,2.993,8.515,4.411
					c2.471,1.222,4.954,2.42,7.356,3.783c1.234,0.701,2.509,1.341,3.788,1.886c0.159-0.191,0.161-0.309,0.14-0.428
					c-1.206-7.001-2.395-14.006-3.652-20.998c-0.262-1.453,0.052-2.507,1.122-3.532c3.145-3.012,6.386-5.92,9.559-8.902
					c1.568-1.473,3.07-3.029,4.755-4.386c0.751-0.605,1.511-1.263,1.988-2.107c-0.147-0.224-0.31-0.235-0.466-0.258
					c-7.222-1.083-14.45-2.125-21.679-3.158c-1.403-0.2-2.319-0.775-2.972-2.052c-2.73-5.337-5.473-10.667-8.199-16.006
					c-0.743-1.455-1.465-2.92-2.181-4.386c-0.179-0.225-0.314-0.47-0.301-0.771c0.175-0.783,0.173-1.58,0.175-2.377
					c0.017-5.498,0.022-10.996,0.056-16.494c0.004-0.66-0.124-1.38,0.52-1.874c0.119-0.01,0.239-0.029,0.358-0.029
					c21.134,0.057,42.269,0.123,63.404,0.151c1.016,0.001,1.108,0.489,1.084,1.237c-0.038,8.773-0.084,17.547-0.112,26.32
					c-0.051,15.973-0.122,31.947-0.125,47.92c-0.001,8.835-0.152,17.669,0.035,26.506c0.145,6.851-0.169,13.712-0.09,20.566
					c0.076,6.556-0.026,13.112,0.022,19.667c0.01,1.398-0.856,1.892-2.082,1.224c-0.211-0.115-0.409-0.25-0.613-0.377
					c-20.817-12.933-41.633-25.866-62.45-38.799C122.494,155.559,122.548,154.875,122.551,154.201z"/>
				<path fill="#FEFEFE" d="M122.848,73.938c-0.455,1.6-1.452,2.927-2.182,4.388c-2.604,5.219-5.36,10.359-8.047,15.534
					c-0.549,1.056-1.342,1.634-2.507,1.787c-6.367,0.834-12.719,1.782-19.082,2.649c-1.151,0.157-2.351,0.165-3.577,0.668
					c1.858,2.146,3.977,3.854,5.931,5.722c3.375,3.227,6.778,6.429,10.215,9.589c1.318,1.211,1.574,2.476,1.24,4.172
					c-1.18,5.988-2.173,12.012-3.273,18.016c-0.174,0.948-0.45,1.904-0.397,2.912c0.54-0.054,0.907-0.316,1.29-0.517
					c6.12-3.21,12.353-6.199,18.479-9.398c0.593-0.309,1.173-0.714,1.906-0.601c0.19,0.068,0.332,0.173,0.32,0.402
					c-0.119,1.184-0.04,2.369-0.038,3.554c0.01,7.338-0.025,14.676-0.051,22.014c-0.002,0.469,0.102,0.968-0.272,1.367
					c-0.464,0.312-0.916,0.641-1.393,0.931c-11.146,6.77-22.289,13.542-33.442,20.299c-7.195,4.359-14.423,8.665-21.597,13.059
					c-2.595,1.589-5.3,3.003-7.75,4.823c-0.528-0.435-0.666-0.985-0.662-1.668c0.042-7.816,0.003-15.632,0.092-23.447
					c0.072-6.304,0.045-12.608,0.178-18.914c0.217-10.283,0.108-20.575,0.138-30.863c0.046-15.927,0.092-31.855,0.139-47.782
					c0.019-6.475,0.038-12.951,0.057-19.426c0.005-1.621,0.004-1.622,1.603-1.617c20.628,0.058,41.257,0.118,61.885,0.179
					c0.439,0.002,0.878,0.028,1.317,0.042c-0.018,6.526-0.039,13.051-0.045,19.577c-0.001,0.575-0.04,1.11-0.467,1.543
					C123.147,73.27,122.943,73.594,122.848,73.938z"/>
				<path fill="#E6A03F" d="M122.4,126.811c0.029-16.904,0.084-33.807,0.128-50.71c0.002-0.846,0.083-1.676,0.333-2.483
					c0.066-0.211,0.082-0.498,0.421-0.486c3.562,6.925,7.137,13.845,10.669,20.785c0.383,0.751,0.829,1.153,1.674,1.271
					c5.853,0.816,11.701,1.668,17.55,2.512c2.154,0.31,4.308,0.632,6.502,0.955c-0.182,0.597-0.59,0.817-0.9,1.106
					c-5.58,5.211-11.162,10.419-16.763,15.606c-0.575,0.532-0.819,0.996-0.659,1.847c0.847,4.511,1.601,9.041,2.381,13.565
					c0.554,3.212,1.1,6.425,1.674,9.787c-0.483-0.222-0.811-0.359-1.126-0.521c-3.482-1.788-6.957-3.59-10.443-5.37
					c-3.555-1.814-7.12-3.609-10.68-5.412c-0.084-0.074-0.167-0.147-0.249-0.222C122.137,128.439,122.396,127.572,122.4,126.811z"/>
				<path fill="#FDC154" d="M100.38,140.475c0.034-0.361,0.037-0.514,0.064-0.663c1.349-7.544,2.68-15.091,4.076-22.627
					c0.163-0.875-0.044-1.382-0.663-1.961c-5.575-5.213-11.124-10.455-16.67-15.699c-0.303-0.287-0.742-0.491-0.816-1.083
					c1.548-0.225,3.081-0.456,4.618-0.669c6.446-0.89,12.891-1.783,19.341-2.651c0.819-0.111,1.336-0.429,1.718-1.216
					c1.061-2.192,2.232-4.331,3.35-6.495c2.49-4.825,4.973-9.653,7.459-14.48c0.182-0.019,0.366-0.041,0.424,0.202
					c-0.313,0.427-0.207,0.922-0.208,1.392c-0.057,18.172-0.108,36.343-0.159,54.515
					C115.449,132.827,107.986,136.615,100.38,140.475z"/>
			</g>
		</g>
	</g>
</g>
<circle fill="#F73E19" cx="225.828" cy="69.703" r="45"/>
<line fill="none" stroke="#FFFFFF" stroke-width="12" stroke-miterlimit="10" x1="193.328" y1="69.687" x2="258.328" y2="69.72"/>
</svg>
