<?xml version="1.0" encoding="utf-8"?>
<!-- Generator: Adobe Illustrator 17.0.0, SVG Export Plug-In . SVG Version: 6.00 Build 0)  -->
<!DOCTYPE svg PUBLIC "-//W3C//DTD SVG 1.1//EN" "http://www.w3.org/Graphics/SVG/1.1/DTD/svg11.dtd">
<svg version="1.1" id="Livello_1" xmlns="http://www.w3.org/2000/svg" xmlns:xlink="http://www.w3.org/1999/xlink" x="0px" y="0px"
	 width="245.76px" height="245.76px" viewBox="0 0 245.76 245.76" enable-background="new 0 0 245.76 245.76" xml:space="preserve">
<g>
	<g>
		<defs>
			<path id="SVGID_1_" d="M1,12C1,5.373,6.373,0,13,0l221.76,0c6.627,0,12,5.373,12,12l0,221.76c0,6.627-5.373,12-12,12l-221.76,0
				c-6.627,0-12-5.373-12-12L1,12z"/>
		</defs>
		<clipPath id="SVGID_2_">
			<use xlink:href="#SVGID_1_"  overflow="visible"/>
		</clipPath>
		<g clip-path="url(#SVGID_2_)">
			<g>
				<path fill="#70CEF2" d="M244.645,108.932c-3.108-3.16-6.272-6.265-9.392-9.412c-4.947-4.99-9.886-9.991-14.931-14.88
					c-3.555-3.444-6.602-7.374-10.369-10.607c-0.996-0.855-1.951-1.764-2.892-2.684c-4.997-4.887-9.765-10.004-14.835-14.816
					c-1.48-1.405-2.844-2.903-4.167-4.443c-0.666-0.628-1.505-0.429-2.283-0.429c-19.792-0.012-39.583-0.009-59.375-0.008
					c-0.84,0-1.679-0.004-2.517-0.067c-0.838,0.061-1.678,0.066-2.518,0.066c-19.64-0.002-39.28-0.002-58.92-0.001
					c-0.56,0-1.12-0.003-1.68,0.022c-0.724,0.032-1.096,0.398-1.13,1.123c-0.022,0.48-0.026,0.96-0.022,1.44
					c0.071,8.948-0.054,17.896-0.016,26.844c0.068,15.908,0.04,31.816-0.004,47.724c-0.023,8.314,0.147,16.628-0.171,24.946
					c-0.254,6.619,0.084,13.256,0.019,19.882c-0.06,6.119-0.005,12.237-0.066,18.355c-0.008,0.758-0.04,1.524,0.266,2.252
					c0.789,1.125,1.938,1.887,2.861,2.88c2.935,3.157,6.069,6.121,9.115,9.168c4.937,4.939,9.836,9.915,14.807,14.82
					c4.8,4.737,9.51,9.563,14.31,14.301c3.04,3,6.05,6.028,9.062,9.056c0.407,0.41,0.931,0.852,0.403,1.536
					c-36.074,0-72.148-0.004-108.221,0.023c-0.965,0.001-1.249-0.138-1.249-1.204C0.763,163.673,0.763,82.526,0.734,1.38
					c0-0.973,0.193-1.167,1.166-1.167c81.186,0.029,162.372,0.029,243.559,0.002c0.941,0,1.082,0.258,1.081,1.123
					c-0.023,36.114-0.02,72.228-0.02,108.342C245.564,110.272,245.12,109.418,244.645,108.932z"/>
				<path fill="#58B6E2" d="M246.545,244.86c0.001,0.973-0.193,1.167-1.166,1.166c-45.061-0.031-90.121-0.027-135.181-0.027
					c0.029-0.398-0.193-0.664-0.453-0.931c-2.642-2.705-5.358-5.336-8.012-8.03c-5.695-5.781-11.528-11.427-17.277-17.156
					c-6.087-6.067-12.145-12.164-18.209-18.253c-2.244-2.254-4.472-4.525-6.707-6.788c-0.067-0.741,0.496-1.039,0.988-1.37
					c0.464-0.312,0.986-0.523,1.464-0.818c9.212-5.694,18.486-11.288,27.714-16.957c10.828-6.652,21.697-13.238,32.55-19.849
					c0.511-0.312,1.008-0.672,1.663-0.499c0.604,0.102,1.113,0.406,1.627,0.725c5.802,3.603,11.618,7.183,17.43,10.77
					c7.987,4.93,15.965,9.875,23.956,14.798c6.359,3.917,12.709,7.849,19.065,11.772c0.592,0.366,1.204,0.99,1.959,0.55
					c0.712-0.416,0.428-1.23,0.434-1.876c0.074-8.665-0.04-17.33-0.005-25.995c0.021-5.271-0.025-10.541-0.169-15.815
					c-0.21-7.71-0.042-15.431-0.068-23.147c-0.004-1.125,0.306-2.222,0.214-3.34c-0.144-1.75-0.201-3.501-0.201-5.256
					c0.001-12.834,0.007-25.667-0.005-38.501c-0.002-2.346,0.138-4.683,0.073-7.038c-0.177-6.433-0.072-12.872-0.052-19.309
					c0.002-0.513-0.027-1.063,0.548-1.356c0.96,1.008,1.849,2.096,2.893,3.008c2.829,2.473,5.348,5.256,8.031,7.873
					c3.103,3.027,6.015,6.243,9.257,9.136c1.141,1.018,2.398,1.947,3.397,3.097c3.923,4.516,8.235,8.652,12.425,12.906
					c3.716,3.773,7.518,7.459,11.269,11.197c3.217,3.206,6.418,6.428,9.616,9.652c0.264,0.265,0.502,0.513,0.907,0.481
					C246.52,154.74,246.516,199.8,246.545,244.86z"/>
				<path fill="#F1F1F1" d="M123.354,153.551c-0.003-6.815-0.001-13.629-0.003-20.444c0-0.598,0.069-1.209-0.063-1.789
					c-0.197-0.86-0.037-1.656,0.253-2.454c0.653-0.851,1.369-0.375,2.034-0.063c2.895,1.358,5.657,2.977,8.528,4.386
					c2.475,1.215,4.961,2.406,7.367,3.762c1.236,0.697,2.513,1.334,3.793,1.875c0.158-0.191,0.16-0.309,0.139-0.428
					c-1.226-6.998-2.435-13.999-3.712-20.987c-0.266-1.452,0.045-2.507,1.112-3.535c3.136-3.021,6.369-5.938,9.533-8.929
					c1.564-1.478,3.061-3.038,4.742-4.4c0.749-0.607,1.507-1.267,1.982-2.113c-0.148-0.224-0.311-0.234-0.467-0.257
					c-7.225-1.062-14.456-2.083-21.688-3.096c-1.404-0.196-2.321-0.768-2.978-2.043c-2.745-5.329-5.504-10.651-8.245-15.982
					c-0.747-1.453-1.473-2.916-2.194-4.38c-0.18-0.224-0.315-0.469-0.303-0.77c0.173-0.784,0.168-1.58,0.168-2.377
					c0.001-5.498-0.01-10.996,0.009-16.494c0.002-0.66-0.128-1.38,0.515-1.875c0.119-0.01,0.239-0.03,0.358-0.03
					c21.134-0.004,42.269,0.001,63.404-0.032c1.016-0.002,1.109,0.486,1.088,1.234c-0.013,8.773-0.033,17.547-0.036,26.32
					c-0.005,15.973-0.03,31.947,0.013,47.92c0.024,8.835-0.101,17.669,0.111,26.506c0.165,6.851-0.13,13.712-0.031,20.566
					c0.095,6.556,0.012,13.112,0.079,19.667c0.014,1.398-0.851,1.894-2.078,1.23c-0.211-0.114-0.41-0.249-0.614-0.375
					c-20.854-12.873-41.707-25.746-62.561-38.619C123.3,154.909,123.352,154.225,123.354,153.551z"/>
				<path fill="#FEFEFE" d="M123.419,73.287c-0.45,1.601-1.444,2.931-2.169,4.394c-2.589,5.226-5.33,10.374-8.002,15.557
					c-0.546,1.058-1.337,1.638-2.502,1.794c-6.365,0.852-12.714,1.819-19.074,2.704c-1.151,0.16-2.351,0.172-3.575,0.678
					c1.864,2.141,3.988,3.843,5.947,5.705c3.384,3.217,6.796,6.409,10.243,9.56c1.321,1.207,1.581,2.471,1.252,4.168
					c-1.163,5.991-2.138,12.018-3.221,18.025c-0.171,0.949-0.445,1.905-0.389,2.913c0.54-0.056,0.906-0.319,1.289-0.521
					c6.111-3.228,12.335-6.235,18.452-9.451c0.592-0.311,1.171-0.717,1.904-0.606c0.19,0.067,0.332,0.172,0.321,0.401
					c-0.116,1.184-0.033,2.369-0.028,3.554c0.031,7.338,0.017,14.676,0.012,22.014c-0.001,0.469,0.105,0.968-0.268,1.368
					c-0.463,0.313-0.914,0.644-1.39,0.935c-11.126,6.802-22.25,13.606-33.383,20.395c-7.182,4.38-14.398,8.706-21.559,13.121
					c-2.59,1.596-5.291,3.018-7.736,4.845c-0.529-0.433-0.669-0.983-0.667-1.666c0.02-7.816-0.042-15.632,0.025-23.447
					c0.054-6.304,0.009-12.608,0.124-18.914c0.187-10.284,0.049-20.575,0.049-30.863c0-15.927,0-31.855,0.001-47.782
					c0-6.475,0.001-12.951,0.001-19.426c0-1.621-0.001-1.622,1.598-1.622c20.628-0.001,41.257-0.001,61.885,0.001
					c0.439,0.001,0.878,0.025,1.317,0.038c0.001,6.526-0.001,13.051,0.011,19.577c0.001,0.575-0.037,1.11-0.463,1.544
					C123.717,72.619,123.513,72.943,123.419,73.287z"/>
				<path fill="#E6A03F" d="M123.124,126.161c-0.02-16.904-0.013-33.807-0.018-50.71c0-0.846,0.078-1.676,0.326-2.484
					c0.065-0.211,0.081-0.498,0.42-0.487c3.582,6.915,7.177,13.824,10.729,20.754c0.385,0.75,0.832,1.151,1.678,1.266
					c5.855,0.799,11.706,1.634,17.557,2.461c2.155,0.304,4.31,0.62,6.505,0.936c-0.18,0.598-0.588,0.819-0.897,1.109
					c-5.565,5.227-11.132,10.451-16.718,15.654c-0.573,0.534-0.816,0.998-0.654,1.849c0.86,4.509,1.627,9.036,2.42,13.558
					c0.563,3.21,1.118,6.422,1.702,9.782c-0.484-0.221-0.812-0.357-1.127-0.518c-3.487-1.778-6.967-3.57-10.458-5.34
					c-3.56-1.804-7.13-3.588-10.696-5.381c-0.084-0.074-0.167-0.147-0.25-0.221C122.865,127.79,123.122,126.923,123.124,126.161z"/>
				<path fill="#FDC154" d="M101.143,139.889c0.033-0.361,0.036-0.514,0.062-0.663c1.327-7.548,2.637-15.099,4.011-22.639
					c0.16-0.875-0.048-1.382-0.669-1.959c-5.59-5.197-11.154-10.423-16.715-15.651c-0.304-0.286-0.743-0.489-0.819-1.081
					c1.547-0.229,3.08-0.465,4.616-0.682c6.443-0.909,12.886-1.82,19.333-2.707c0.819-0.113,1.335-0.433,1.714-1.221
					c1.055-2.195,2.22-4.337,3.331-6.505c2.476-4.832,4.945-9.667,7.417-14.501c0.182-0.02,0.366-0.042,0.425,0.201
					c-0.312,0.428-0.204,0.923-0.204,1.393c-0.005,18.172-0.003,36.343-0.002,54.515
					C116.19,132.198,108.738,136.007,101.143,139.889z"/>
			</g>
		</g>
	</g>
</g>
</svg>
