<?xml version="1.0" encoding="utf-8"?>
<!-- Generator: Adobe Illustrator 17.0.0, SVG Export Plug-In . SVG Version: 6.00 Build 0)  -->
<!DOCTYPE svg PUBLIC "-//W3C//DTD SVG 1.1//EN" "http://www.w3.org/Graphics/SVG/1.1/DTD/svg11.dtd">
<svg version="1.1" id="Livello_1" xmlns="http://www.w3.org/2000/svg" xmlns:xlink="http://www.w3.org/1999/xlink" x="0px" y="0px"
	 width="246.116px" height="246.112px" viewBox="-0.315 -0.041 246.116 246.112"
	 enable-background="new -0.315 -0.041 246.116 246.112" xml:space="preserve">
<g opacity="0.5">
	<g>
		<g>
			<defs>
				<path id="SVGID_1_" d="M0.041,11.954C0.044,5.327,5.419-0.044,12.046-0.041l221.76,0.082
					c6.627,0.002,11.998,5.377,11.996,12.004l-0.082,221.76c-0.002,6.627-5.377,11.998-12.004,11.996l-221.76-0.082
					c-6.627-0.002-11.998-5.377-11.996-12.004L0.041,11.954z"/>
			</defs>
			<clipPath id="SVGID_2_">
				<use xlink:href="#SVGID_1_"  overflow="visible"/>
			</clipPath>
			<g clip-path="url(#SVGID_2_)">
				<g>
					<path fill="#70CEF2" d="M243.65,108.977c-3.107-3.161-6.27-6.267-9.389-9.415c-4.945-4.992-9.882-9.995-14.925-14.886
						c-3.554-3.445-6.599-7.376-10.365-10.611c-0.996-0.855-1.95-1.765-2.891-2.685c-4.995-4.889-9.761-10.008-14.829-14.821
						c-1.479-1.406-2.843-2.904-4.165-4.445c-0.666-0.628-1.505-0.43-2.283-0.43c-19.792-0.019-39.583-0.024-59.375-0.03
						c-0.84,0-1.679-0.005-2.517-0.068c-0.838,0.061-1.678,0.065-2.518,0.065c-19.64-0.009-39.28-0.017-58.92-0.023
						c-0.56,0-1.12-0.003-1.68,0.021c-0.724,0.032-1.096,0.398-1.13,1.123c-0.022,0.48-0.026,0.96-0.023,1.44
						c0.068,8.948-0.061,17.896-0.026,26.844c0.062,15.908,0.028,31.816-0.022,47.724c-0.026,8.314,0.141,16.628-0.18,24.946
						c-0.256,6.619,0.079,13.256,0.012,19.882c-0.062,6.119-0.01,12.237-0.073,18.355c-0.008,0.758-0.041,1.524,0.265,2.252
						c0.789,1.125,1.937,1.888,2.86,2.881c2.934,3.158,6.067,6.123,9.112,9.171c4.935,4.941,9.832,9.919,14.802,14.825
						c4.798,4.739,9.506,9.567,14.305,14.306c3.039,3.001,6.048,6.03,9.059,9.059c0.407,0.41,0.931,0.852,0.402,1.536
						c-36.074-0.013-72.148-0.031-108.221-0.017c-0.965,0.001-1.249-0.138-1.249-1.204C-0.252,163.627-0.222,82.48-0.221,1.334
						c0-0.973,0.193-1.167,1.166-1.167C82.131,0.227,163.317,0.257,244.504,0.26c0.941,0,1.082,0.258,1.081,1.123
						c-0.036,36.114-0.047,72.228-0.06,108.342C244.569,110.317,244.125,109.463,243.65,108.977z"/>
					<path fill="#58B6E2" d="M245.5,244.905c0.001,0.973-0.193,1.167-1.166,1.166c-45.061-0.048-90.121-0.06-135.181-0.077
						c0.029-0.398-0.193-0.664-0.453-0.931c-2.641-2.706-5.356-5.338-8.009-8.033c-5.693-5.783-11.524-11.431-17.271-17.162
						c-6.085-6.069-12.141-12.168-18.202-18.26c-2.243-2.255-4.47-4.527-6.704-6.79c-0.067-0.741,0.496-1.039,0.989-1.37
						c0.464-0.312,0.986-0.523,1.464-0.817c9.214-5.691,18.49-11.281,27.72-16.947c10.83-6.648,21.702-13.23,32.557-19.837
						c0.511-0.312,1.008-0.672,1.663-0.498c0.604,0.102,1.113,0.406,1.627,0.726c5.801,3.605,11.615,7.187,17.426,10.776
						c7.985,4.933,15.961,9.881,23.951,14.807c6.358,3.919,12.706,7.854,19.061,11.779c0.592,0.366,1.204,0.99,1.959,0.551
						c0.712-0.416,0.428-1.23,0.435-1.876c0.077-8.665-0.034-17.33,0.005-25.995c0.023-5.271-0.021-10.541-0.163-15.815
						c-0.207-7.71-0.036-15.431-0.059-23.147c-0.004-1.125,0.307-2.222,0.215-3.34c-0.143-1.75-0.2-3.501-0.199-5.256
						c0.006-12.834,0.017-25.667,0.009-38.501c-0.001-2.346,0.14-4.683,0.076-7.038c-0.175-6.433-0.067-12.872-0.045-19.309
						c0.002-0.513-0.027-1.063,0.548-1.356c0.96,1.008,1.848,2.097,2.892,3.009c2.828,2.474,5.346,5.258,8.028,7.876
						c3.102,3.028,6.013,6.245,9.254,9.139c1.141,1.018,2.397,1.948,3.396,3.098c3.921,4.517,8.232,8.655,12.42,12.911
						c3.715,3.774,7.515,7.462,11.265,11.201c3.216,3.207,6.416,6.43,9.612,9.656c0.264,0.265,0.502,0.513,0.907,0.481
						C245.508,154.785,245.487,199.845,245.5,244.905z"/>
					<path fill="#F1F1F1" d="M122.343,153.551c0-6.815,0.004-13.629,0.005-20.444c0-0.598,0.069-1.209-0.062-1.789
						c-0.197-0.86-0.036-1.656,0.254-2.454c0.653-0.851,1.369-0.374,2.034-0.062c2.894,1.359,5.656,2.979,8.526,4.389
						c2.475,1.216,4.96,2.408,7.366,3.765c1.236,0.697,2.512,1.335,3.792,1.876c0.158-0.191,0.16-0.309,0.139-0.428
						c-1.223-6.998-2.43-14-3.704-20.988c-0.265-1.452,0.046-2.507,1.113-3.535c3.137-3.02,6.371-5.936,9.536-8.925
						c1.565-1.477,3.062-3.037,4.744-4.398c0.749-0.607,1.507-1.266,1.983-2.112c-0.148-0.224-0.311-0.234-0.467-0.257
						c-7.225-1.065-14.455-2.088-21.687-3.104c-1.404-0.197-2.321-0.769-2.977-2.044c-2.743-5.33-5.5-10.653-8.239-15.985
						c-0.746-1.453-1.472-2.917-2.192-4.381c-0.18-0.224-0.315-0.469-0.303-0.77c0.173-0.784,0.169-1.58,0.169-2.377
						c0.003-5.498-0.006-10.996,0.015-16.494c0.002-0.66-0.127-1.38,0.516-1.875c0.119-0.01,0.239-0.03,0.358-0.03
						c21.134,0.004,42.269,0.017,63.404-0.009c1.016-0.002,1.109,0.486,1.088,1.234c-0.016,8.773-0.039,17.547-0.046,26.32
						c-0.011,15.973-0.042,31.947-0.005,47.92c0.021,8.835-0.108,17.669,0.101,26.506c0.162,6.851-0.135,13.712-0.039,20.566
						c0.093,6.556,0.007,13.112,0.072,19.667c0.013,1.398-0.852,1.894-2.078,1.229c-0.211-0.114-0.41-0.249-0.614-0.375
						c-20.849-12.881-41.697-25.761-62.547-38.642C122.288,154.909,122.34,154.225,122.343,153.551z"/>
					<path fill="#FEFEFE" d="M122.437,73.287c-0.451,1.601-1.445,2.93-2.171,4.393c-2.591,5.225-5.334,10.372-8.008,15.554
						c-0.546,1.058-1.338,1.638-2.503,1.793c-6.365,0.85-12.715,1.814-19.075,2.697c-1.151,0.16-2.351,0.171-3.575,0.677
						c1.863,2.142,3.987,3.844,5.945,5.707c3.383,3.218,6.794,6.412,10.239,9.564c1.321,1.207,1.58,2.472,1.25,4.168
						c-1.165,5.991-2.142,12.017-3.228,18.024c-0.171,0.949-0.446,1.905-0.39,2.913c0.54-0.056,0.906-0.319,1.289-0.521
						c6.112-3.226,12.337-6.23,18.456-9.444c0.592-0.311,1.171-0.717,1.904-0.605c0.19,0.067,0.332,0.172,0.321,0.401
						c-0.116,1.184-0.034,2.369-0.029,3.554c0.028,7.338,0.012,14.676,0.004,22.014c-0.001,0.469,0.105,0.968-0.269,1.368
						c-0.463,0.313-0.914,0.644-1.39,0.934c-11.129,6.798-22.255,13.598-33.391,20.383c-7.184,4.377-14.401,8.701-21.564,13.113
						c-2.591,1.595-5.292,3.016-7.738,4.842c-0.529-0.433-0.669-0.983-0.666-1.666c0.023-7.816-0.036-15.632,0.034-23.447
						c0.056-6.304,0.014-12.608,0.131-18.914c0.191-10.284,0.057-20.575,0.06-30.863c0.006-15.927,0.012-31.855,0.019-47.782
						c0.002-6.475,0.006-12.951,0.008-19.426c0.001-1.621,0-1.622,1.599-1.621c20.628,0.007,41.257,0.014,61.885,0.024
						c0.439,0.001,0.878,0.025,1.317,0.038c-0.001,6.526-0.006,13.051,0.004,19.577c0.001,0.575-0.037,1.11-0.464,1.544
						C122.736,72.619,122.531,72.943,122.437,73.287z"/>
					<path fill="#E6A03F" d="M122.123,126.161c-0.014-16.904,0-33.807,0.001-50.71c0-0.846,0.079-1.676,0.327-2.484
						c0.065-0.211,0.081-0.498,0.42-0.487c3.579,6.916,7.172,13.827,10.721,20.758c0.385,0.75,0.832,1.151,1.678,1.267
						c5.855,0.801,11.705,1.638,17.556,2.468c2.155,0.305,4.31,0.622,6.505,0.938c-0.18,0.598-0.588,0.819-0.897,1.109
						c-5.567,5.225-11.136,10.447-16.724,15.648c-0.573,0.534-0.816,0.998-0.655,1.849c0.858,4.509,1.624,9.037,2.415,13.559
						c0.562,3.21,1.116,6.422,1.698,9.783c-0.484-0.221-0.812-0.357-1.127-0.518c-3.486-1.779-6.966-3.573-10.456-5.344
						c-3.559-1.805-7.129-3.591-10.694-5.385c-0.084-0.074-0.167-0.147-0.25-0.221C121.863,127.79,122.12,126.923,122.123,126.161z"
						/>
					<path fill="#FDC154" d="M100.137,139.881c0.033-0.361,0.036-0.514,0.062-0.663c1.33-7.548,2.643-15.098,4.019-22.638
						c0.16-0.875-0.047-1.382-0.668-1.959c-5.588-5.199-11.15-10.427-16.709-15.657c-0.304-0.286-0.743-0.489-0.819-1.081
						c1.547-0.228,3.08-0.464,4.616-0.68c6.443-0.907,12.887-1.815,19.334-2.7c0.819-0.113,1.335-0.433,1.714-1.22
						c1.056-2.195,2.222-4.336,3.333-6.504c2.478-4.831,4.949-9.665,7.422-14.498c0.182-0.02,0.366-0.042,0.425,0.201
						c-0.312,0.428-0.204,0.923-0.205,1.393c-0.012,18.172-0.016,36.343-0.022,54.515
						C115.187,132.195,107.733,136.001,100.137,139.881z"/>
				</g>
			</g>
		</g>
	</g>
</g>
</svg>
