<?xml version="1.0" encoding="utf-8"?>
<!-- Generator: Adobe Illustrator 17.0.0, SVG Export Plug-In . SVG Version: 6.00 Build 0)  -->
<!DOCTYPE svg PUBLIC "-//W3C//DTD SVG 1.1//EN" "http://www.w3.org/Graphics/SVG/1.1/DTD/svg11.dtd">
<svg version="1.1" id="Livello_1" xmlns="http://www.w3.org/2000/svg" xmlns:xlink="http://www.w3.org/1999/xlink" x="0px" y="0px"
	 width="426.263px" height="426.263px" viewBox="0 0 426.263 426.263" enable-background="new 0 0 426.263 426.263"
	 xml:space="preserve">
<g>
	<defs>
		<path id="SVGID_1_" d="M426.263,414.263c0,6.627-5.373,12-12,12H12c-6.627,0-12-5.373-12-12V12C0,5.373,5.373,0,12,0h402.263
			c6.627,0,12,5.373,12,12V414.263z"/>
	</defs>
	<clipPath id="SVGID_2_">
		<use xlink:href="#SVGID_1_"  overflow="visible"/>
	</clipPath>
	<path clip-path="url(#SVGID_2_)" fill="#646CB2" d="M425.515,414.312c0,6.627-5.373,12-12,12H11.253c-6.627,0-12-5.373-12-12V12.05
		c0-6.627,5.373-12,12-12h402.263c6.627,0,12,5.373,12,12V414.312z"/>
	<g id="Icons_with_numbers_2_" clip-path="url(#SVGID_2_)">
		<g id="Group_2_" transform="translate(-528.000000, -240.000000)">
			<g>
				<path id="Rectangle_168_copy_4_" fill="#523494" d="M704.871,417.669h177.562v177.562H704.871V417.669z M598.334,311.131
					h177.562v88.781h-88.781v88.781h-88.781V311.131z"/>
				<path fill="#523494" d="M704.146,418.16h177.562v177.562H704.146V418.16z M597.609,311.623h177.562v88.781H686.39v88.781
					h-88.781V311.623z"/>
				<path fill="#523494" d="M703.421,418.651h177.562v177.562H703.421V418.651z M596.883,312.114h177.562v88.781h-88.781v88.781
					h-88.781V312.114z"/>
				<path fill="#523494" d="M702.695,419.143h177.562v177.562H702.695V419.143z M596.158,312.605H773.72v88.781h-88.781v88.781
					h-88.781V312.605z"/>
				<path fill="#523494" d="M701.97,419.634h177.562v177.562H701.97V419.634z M595.433,313.097h177.562v88.781h-88.781v88.781
					h-88.781V313.097z"/>
				<path fill="#523494" d="M701.244,420.125h177.562v177.562H701.244V420.125z M594.707,313.588h177.562v88.781h-88.781v88.781
					h-88.781V313.588z"/>
				<path fill="#523494" d="M700.519,420.617h177.562v177.562H700.519V420.617z M593.982,314.079h177.562v88.781h-88.781v88.781
					h-88.781V314.079z"/>
				<path fill="#523494" d="M699.794,421.108h177.562V598.67H699.794V421.108z M593.256,314.571h177.562v88.781h-88.781v88.781
					h-88.781V314.571z"/>
				<path fill="#523494" d="M699.068,421.599H876.63v177.562H699.068V421.599z M592.531,315.062h177.562v88.781h-88.781v88.781
					h-88.781V315.062z"/>
				<path fill="#523494" d="M698.343,422.091h177.562v177.562H698.343V422.091z M591.806,315.554h177.562v88.781h-88.781v88.781
					h-88.781V315.554z"/>
				<path fill="#523494" d="M697.617,422.582H875.18v177.562H697.617V422.582z M591.08,316.045h177.562v88.781h-88.781v88.781
					H591.08V316.045z"/>
				<path fill="#523494" d="M696.892,423.074h177.562v177.562H696.892V423.074z M590.355,316.536h177.562v88.781h-88.781v88.781
					h-88.781V316.536z"/>
				<path fill="#523494" d="M696.167,423.565h177.562v177.562H696.167V423.565z M589.629,317.028h177.562v88.781H678.41v88.781
					h-88.781V317.028z"/>
				<path fill="#523494" d="M695.441,424.056h177.562v177.562H695.441V424.056z M588.904,317.519h177.562V406.3h-88.781v88.781
					h-88.781V317.519z"/>
				<path fill="#523494" d="M694.716,424.548h177.562V602.11H694.716V424.548z M588.179,318.01h177.562v88.781H676.96v88.781
					h-88.781V318.01z"/>
				<path fill="#523494" d="M693.99,425.039h177.562v177.562H693.99V425.039z M587.453,318.502h177.562v88.781h-88.781v88.781
					h-88.781V318.502z"/>
				<path fill="#523494" d="M693.265,425.53h177.562v177.562H693.265V425.53z M586.728,318.993H764.29v88.781h-88.781v88.781
					h-88.781V318.993z"/>
				<path fill="#523494" d="M692.54,426.022h177.562v177.562H692.54V426.022z M586.002,319.484h177.562v88.781h-88.781v88.781
					h-88.781V319.484z"/>
				<path fill="#523494" d="M691.814,426.513h177.562v177.562H691.814V426.513z M585.277,319.976h177.562v88.781h-88.781v88.781
					h-88.781V319.976z"/>
				<path fill="#523494" d="M691.089,427.004h177.562v177.562H691.089V427.004z M584.552,320.467h177.562v88.781h-88.781v88.781
					h-88.781V320.467z"/>
				<path fill="#523494" d="M690.363,427.496h177.562v177.562H690.363V427.496z M583.826,320.959h177.562v88.781h-88.781v88.781
					h-88.781V320.959z"/>
				<path fill="#523494" d="M689.638,427.987H867.2v177.562H689.638V427.987z M583.101,321.45h177.562v88.781h-88.781v88.781
					h-88.781V321.45z"/>
				<path fill="#523494" d="M688.913,428.478h177.562v177.562H688.913V428.478z M582.375,321.941h177.562v88.781h-88.781v88.781
					h-88.781V321.941z"/>
				<path fill="#523494" d="M688.187,428.97h177.562v177.562H688.187V428.97z M581.65,322.433h177.562v88.781h-88.781v88.781H581.65
					V322.433z"/>
				<path fill="#523494" d="M687.462,429.461h177.562v177.562H687.462V429.461z M580.925,322.924h177.562v88.781h-88.781v88.781
					h-88.781V322.924z"/>
				<path fill="#523494" d="M686.737,429.953h177.562v177.562H686.737V429.953z M580.199,323.415h177.562v88.781H668.98v88.781
					h-88.781V323.415z"/>
				<path fill="#523494" d="M686.011,430.444h177.562v177.562H686.011V430.444z M579.474,323.907h177.562v88.781h-88.781v88.781
					h-88.781V323.907z"/>
				<path fill="#523494" d="M685.286,430.935h177.562v177.562H685.286V430.935z M578.748,324.398h177.562v88.781h-88.781v88.781
					h-88.781V324.398z"/>
				<path fill="#523494" d="M684.56,431.427h177.562v177.562H684.56V431.427z M578.023,324.889h177.562v88.781h-88.781v88.781
					h-88.781V324.889z"/>
				<path fill="#523494" d="M683.835,431.918h177.562V609.48H683.835V431.918z M577.298,325.381H754.86v88.781h-88.781v88.781
					h-88.781V325.381z"/>
				<path fill="#523494" d="M683.109,432.409h177.562v177.562H683.109V432.409z M576.572,325.872h177.562v88.781h-88.781v88.781
					h-88.781V325.872z"/>
				<path fill="#523494" d="M682.384,432.901h177.562v177.562H682.384V432.901z M575.847,326.363h177.562v88.781h-88.781v88.781
					h-88.781V326.363z"/>
				<path fill="#523494" d="M681.659,433.392h177.562v177.562H681.659V433.392z M575.121,326.855h177.562v88.781h-88.781v88.781
					h-88.781V326.855z"/>
				<path fill="#523494" d="M680.933,433.883h177.562v177.562H680.933V433.883z M574.396,327.346h177.562v88.781h-88.781v88.781
					h-88.781V327.346z"/>
				<path fill="#523494" d="M680.208,434.375H857.77v177.562H680.208V434.375z M573.671,327.838h177.562v88.781h-88.781V505.4
					h-88.781V327.838z"/>
				<path fill="#523494" d="M679.482,434.866h177.562v177.562H679.482V434.866z M572.945,328.329h177.562v88.781h-88.781v88.781
					h-88.781V328.329z"/>
				<path fill="#523494" d="M678.757,435.358h177.562V612.92H678.757V435.358z M572.22,328.82h177.562v88.781h-88.781v88.781H572.22
					V328.82z"/>
				<path fill="#523494" d="M678.032,435.849h177.562v177.562H678.032V435.849z M571.495,329.312h177.562v88.781h-88.781v88.781
					h-88.781V329.312z"/>
				<path fill="#523494" d="M677.306,436.34h177.562v177.562H677.306V436.34z M570.769,329.803h177.562v88.781H659.55v88.781
					h-88.781V329.803z"/>
				<path fill="#523494" d="M676.581,436.832h177.562v177.562H676.581V436.832z M570.044,330.294h177.562v88.781h-88.781v88.781
					h-88.781V330.294z"/>
				<path fill="#523494" d="M675.856,437.323h177.562v177.562H675.856V437.323z M569.318,330.786H746.88v88.781h-88.781v88.781
					h-88.781V330.786z"/>
				<path fill="#523494" d="M675.13,437.814h177.562v177.562H675.13V437.814z M568.593,331.277h177.562v88.781h-88.781v88.781
					h-88.781V331.277z"/>
				<path fill="#523494" d="M674.405,438.306h177.562v177.562H674.405V438.306z M567.867,331.768H745.43v88.781h-88.781v88.781
					h-88.781V331.768z"/>
				<path fill="#523494" d="M673.679,438.797h177.562v177.562H673.679V438.797z M567.142,332.26h177.562v88.781h-88.781v88.781
					h-88.781V332.26z"/>
				<path fill="#523494" d="M672.954,439.288h177.562V616.85H672.954V439.288z M566.417,332.751h177.562v88.781h-88.781v88.781
					h-88.781V332.751z"/>
				<path fill="#523494" d="M672.229,439.78h177.562v177.562H672.229V439.78z M565.691,333.243h177.562v88.781h-88.781v88.781
					h-88.781V333.243z"/>
				<path fill="#523494" d="M671.503,440.271h177.562v177.562H671.503V440.271z M564.966,333.734h177.562v88.781h-88.781v88.781
					h-88.781V333.734z"/>
				<path fill="#523494" d="M670.778,440.763H848.34v177.562H670.778V440.763z M564.24,334.225h177.562v88.781h-88.781v88.781
					H564.24V334.225z"/>
				<path fill="#523494" d="M670.052,441.254h177.562v177.562H670.052V441.254z M563.515,334.717h177.562v88.781h-88.781v88.781
					h-88.781V334.717z"/>
				<path fill="#523494" d="M669.327,441.745h177.562v177.562H669.327V441.745z M562.79,335.208h177.562v88.781h-88.781v88.781
					H562.79V335.208z"/>
				<path fill="#523494" d="M668.602,442.237h177.562v177.562H668.602V442.237z M562.064,335.699h177.562v88.781h-88.781v88.781
					h-88.781V335.699z"/>
				<path fill="#523494" d="M667.876,442.728h177.562V620.29H667.876V442.728z M561.339,336.191h177.562v88.781H650.12v88.781
					h-88.781V336.191z"/>
				<path fill="#523494" d="M667.151,443.219h177.562v177.562H667.151V443.219z M560.614,336.682h177.562v88.781h-88.781v88.781
					h-88.781V336.682z"/>
				<path fill="#523494" d="M666.425,443.711h177.562v177.562H666.425V443.711z M559.888,337.173H737.45v88.781h-88.781v88.781
					h-88.781V337.173z"/>
				<path fill="#523494" d="M665.7,444.202h177.562v177.562H665.7V444.202z M559.163,337.665h177.562v88.781h-88.781v88.781h-88.781
					V337.665z"/>
				<path fill="#523494" d="M664.975,444.693h177.562v177.562H664.975V444.693z M558.437,338.156h177.562v88.781h-88.781v88.781
					h-88.781V338.156z"/>
				<path fill="#523494" d="M664.249,445.185h177.562v177.562H664.249V445.185z M557.712,338.648h177.562v88.781h-88.781v88.781
					h-88.781V338.648z"/>
				<path fill="#523494" d="M663.524,445.676h177.562v177.562H663.524V445.676z M556.987,339.139h177.562v88.781h-88.781v88.781
					h-88.781V339.139z"/>
				<path fill="#523494" d="M662.798,446.167H840.36V623.73H662.798V446.167z M556.261,339.63h177.562v88.781h-88.781v88.781
					h-88.781V339.63z"/>
				<path fill="#523494" d="M662.073,446.659h177.562v177.562H662.073V446.659z M555.536,340.122h177.562v88.781h-88.781v88.781
					h-88.781V340.122z"/>
				<path fill="#523494" d="M661.348,447.15H838.91v177.562H661.348V447.15z M554.81,340.613h177.562v88.781h-88.781v88.781H554.81
					V340.613z"/>
				<path fill="#523494" d="M660.622,447.642h177.562v177.562H660.622V447.642z M554.085,341.104h177.562v88.781h-88.781v88.781
					h-88.781V341.104z"/>
				<path fill="#523494" d="M659.897,448.133h177.562v177.562H659.897V448.133z M553.36,341.596h177.562v88.781h-88.781v88.781
					H553.36V341.596z"/>
				<path fill="#523494" d="M659.171,448.624h177.562v177.562H659.171V448.624z M552.634,342.087h177.562v88.781h-88.781v88.781
					h-88.781V342.087z"/>
				<path fill="#523494" d="M658.446,449.116h177.562v177.562H658.446V449.116z M551.909,342.578h177.562v88.781H640.69v88.781
					h-88.781V342.578z"/>
				<path fill="#523494" d="M657.721,449.607h177.562v177.562H657.721V449.607z M551.183,343.07h177.562v88.781h-88.781v88.781
					h-88.781V343.07z"/>
				<path fill="#523494" d="M656.995,450.098h177.562V627.66H656.995V450.098z M550.458,343.561H728.02v88.781h-88.781v88.781
					h-88.781V343.561z"/>
				<path fill="#523494" d="M656.27,450.59h177.562v177.562H656.27V450.59z M549.733,344.052h177.562v88.781h-88.781v88.781h-88.781
					V344.052z"/>
				<path fill="#523494" d="M655.544,451.081h177.562v177.562H655.544V451.081z M549.007,344.544h177.562v88.781h-88.781v88.781
					h-88.781V344.544z"/>
				<path fill="#523494" d="M654.819,451.572h177.562v177.562H654.819V451.572z M548.282,345.035h177.562v88.781h-88.781v88.781
					h-88.781V345.035z"/>
				<path fill="#523494" d="M654.094,452.064h177.562v177.562H654.094V452.064z M547.556,345.527h177.562v88.781h-88.781v88.781
					h-88.781V345.527z"/>
				<path fill="#523494" d="M653.368,452.555H830.93v177.562H653.368V452.555z M546.831,346.018h177.562v88.781h-88.781v88.781
					h-88.781V346.018z"/>
				<path fill="#523494" d="M652.643,453.047h177.562v177.562H652.643V453.047z M546.106,346.509h177.562v88.781h-88.781v88.781
					h-88.781V346.509z"/>
				<path fill="#523494" d="M651.917,453.538h177.562V631.1H651.917V453.538z M545.38,347.001h177.562v88.781h-88.781v88.781H545.38
					V347.001z"/>
				<path fill="#523494" d="M651.192,454.029h177.562v177.562H651.192V454.029z M544.655,347.492h177.562v88.781h-88.781v88.781
					h-88.781V347.492z"/>
				<path fill="#523494" d="M650.467,454.521h177.562v177.562H650.467V454.521z M543.929,347.983h177.562v88.781H632.71v88.781
					h-88.781V347.983z"/>
				<path fill="#523494" d="M649.741,455.012h177.562v177.562H649.741V455.012z M543.204,348.475h177.562v88.781h-88.781v88.781
					h-88.781V348.475z"/>
				<path fill="#523494" d="M649.016,455.503h177.562v177.562H649.016V455.503z M542.479,348.966h177.562v88.781H631.26v88.781
					h-88.781V348.966z"/>
				<path fill="#523494" d="M648.29,455.995h177.562v177.562H648.29V455.995z M541.753,349.457h177.562v88.781h-88.781v88.781
					h-88.781V349.457z"/>
				<path fill="#523494" d="M647.565,456.486h177.562v177.562H647.565V456.486z M541.028,349.949H718.59v88.781h-88.781v88.781
					h-88.781V349.949z"/>
				<path fill="#523494" d="M646.84,456.977h177.562v177.562H646.84V456.977z M540.302,350.44h177.562v88.781h-88.781v88.781
					h-88.781V350.44z"/>
				<path fill="#523494" d="M646.114,457.469h177.562v177.562H646.114V457.469z M539.577,350.932h177.562v88.781h-88.781v88.781
					h-88.781V350.932z"/>
				<path fill="#523494" d="M645.389,457.96h177.562v177.562H645.389V457.96z M538.852,351.423h177.562v88.781h-88.781v88.781
					h-88.781V351.423z"/>
				<path fill="#523494" d="M644.663,458.452h177.562v177.562H644.663V458.452z M538.126,351.914h177.562v88.781h-88.781v88.781
					h-88.781V351.914z"/>
				<path fill="#523494" d="M643.938,458.943H821.5v177.562H643.938V458.943z M537.401,352.406h177.562v88.781h-88.781v88.781
					h-88.781V352.406z"/>
				<path fill="#523494" d="M643.213,459.434h177.562v177.562H643.213V459.434z M536.675,352.897h177.562v88.781h-88.781v88.781
					h-88.781V352.897z"/>
				<path fill="#523494" d="M642.487,459.926h177.562v177.562H642.487V459.926z M535.95,353.388h177.562v88.781h-88.781v88.781
					H535.95V353.388z"/>
				<path fill="#523494" d="M641.762,460.417h177.562v177.562H641.762V460.417z M535.225,353.88h177.562v88.781h-88.781v88.781
					h-88.781V353.88z"/>
				<path fill="#523494" d="M641.036,460.908h177.562V638.47H641.036V460.908z M534.499,354.371h177.562v88.781H623.28v88.781
					h-88.781V354.371z"/>
				<path fill="#523494" d="M640.311,461.4h177.562v177.562H640.311V461.4z M533.774,354.862h177.562v88.781h-88.781v88.781h-88.781
					V354.862z"/>
				<path fill="#523494" d="M639.586,461.891h177.562v177.562H639.586V461.891z M533.048,355.354H710.61v88.781h-88.781v88.781
					h-88.781V355.354z"/>
				<path fill="#523494" d="M638.86,462.382h177.562v177.562H638.86V462.382z M532.323,355.845h177.562v88.781h-88.781v88.781
					h-88.781V355.845z"/>
				<path fill="#523494" d="M638.135,462.874h177.562v177.562H638.135V462.874z M531.598,356.336H709.16v88.781h-88.781v88.781
					h-88.781V356.336z"/>
				<path fill="#523494" d="M637.409,463.365h177.562v177.562H637.409V463.365z M530.872,356.828h177.562v88.781h-88.781v88.781
					h-88.781V356.828z"/>
				<path fill="#523494" d="M636.684,463.856h177.562v177.562H636.684V463.856z M530.147,357.319h177.562V446.1h-88.781v88.781
					h-88.781V357.319z"/>
				<path fill="#523494" d="M635.959,464.348h177.562V641.91H635.959V464.348z M529.421,357.811h177.562v88.781h-88.781v88.781
					h-88.781V357.811z"/>
				<path fill="#523494" d="M635.233,464.839h177.562v177.562H635.233V464.839z M528.696,358.302h177.562v88.781h-88.781v88.781
					h-88.781V358.302z"/>
				<path fill="#523494" d="M634.508,465.331H812.07v177.562H634.508V465.331z M527.971,358.793h177.562v88.781h-88.781v88.781
					h-88.781V358.793z"/>
				<path fill="#523494" d="M633.782,465.822h177.562v177.562H633.782V465.822z M527.245,359.285h177.562v88.781h-88.781v88.781
					h-88.781V359.285z"/>
				<path fill="#523494" d="M633.057,466.313h177.562v177.562H633.057V466.313z M526.52,359.776h177.562v88.781h-88.781v88.781
					H526.52V359.776z"/>
				<path fill="#523494" d="M632.332,466.805h177.562v177.562H632.332V466.805z M525.794,360.267h177.562v88.781h-88.781v88.781
					h-88.781V360.267z"/>
				<path fill="#523494" d="M631.606,467.296h177.562v177.562H631.606V467.296z M525.069,360.759h177.562v88.781H613.85v88.781
					h-88.781V360.759z"/>
				<path fill="#523494" d="M630.881,467.787h177.562v177.562H630.881V467.787z M524.344,361.25h177.562v88.781h-88.781v88.781
					h-88.781V361.25z"/>
				<path fill="#523494" d="M630.155,468.279h177.562v177.562H630.155V468.279z M523.618,361.741H701.18v88.781h-88.781v88.781
					h-88.781V361.741z"/>
				<path fill="#523494" d="M629.43,468.77h177.562v177.562H629.43V468.77z M522.893,362.233h177.562v88.781h-88.781v88.781h-88.781
					V362.233z"/>
				<path fill="#523494" d="M628.705,469.261h177.562v177.562H628.705V469.261z M522.167,362.724h177.562v88.781h-88.781v88.781
					h-88.781V362.724z"/>
				<path fill="#523494" d="M627.979,469.753h177.562v177.562H627.979V469.753z M521.442,363.216h177.562v88.781h-88.781v88.781
					h-88.781V363.216z"/>
				<path fill="#523494" d="M627.254,470.244h177.562v177.562H627.254V470.244z M520.717,363.707h177.562v88.781h-88.781v88.781
					h-88.781V363.707z"/>
				<path fill="#523494" d="M626.529,470.736h177.562v177.562H626.529V470.736z M519.991,364.198h177.562v88.781h-88.781v88.781
					h-88.781V364.198z"/>
				<path fill="#523494" d="M625.803,471.227h177.562v177.562H625.803V471.227z M519.266,364.69h177.562v88.781h-88.781v88.781
					h-88.781V364.69z"/>
				<path fill="#523494" d="M625.078,471.718H802.64V649.28H625.078V471.718z M518.54,365.181h177.562v88.781h-88.781v88.781H518.54
					V365.181z"/>
				<path fill="#523494" d="M624.352,472.21h177.562v177.562H624.352V472.21z M517.815,365.672h177.562v88.781h-88.781v88.781
					h-88.781V365.672z"/>
				<path fill="#523494" d="M623.627,472.701h177.562v177.562H623.627V472.701z M517.09,366.164h177.562v88.781h-88.781v88.781
					H517.09V366.164z"/>
				<path fill="#523494" d="M622.901,473.192h177.562v177.562H622.901V473.192z M516.364,366.655h177.562v88.781h-88.781v88.781
					h-88.781V366.655z"/>
				<path fill="#523494" d="M622.176,473.684h177.562v177.562H622.176V473.684z M515.639,367.146h177.562v88.781H604.42v88.781
					h-88.781V367.146z"/>
				<path fill="#523494" d="M621.451,474.175h177.562v177.562H621.451V474.175z M514.913,367.638h177.562v88.781h-88.781V545.2
					h-88.781V367.638z"/>
				<path fill="#523494" d="M620.725,474.666h177.562v177.562H620.725V474.666z M514.188,368.129H691.75v88.781h-88.781v88.781
					h-88.781V368.129z"/>
				<path fill="#523494" d="M620,475.158h177.562V652.72H620V475.158z M513.463,368.621h177.562v88.781h-88.781v88.781h-88.781
					V368.621z"/>
				<path fill="#523494" d="M619.274,475.649h177.562v177.562H619.274V475.649z M512.737,369.112h177.562v88.781h-88.781v88.781
					h-88.781V369.112z"/>
				<path fill="#523494" d="M618.549,476.14h177.562v177.562H618.549V476.14z M512.012,369.603h177.562v88.781h-88.781v88.781
					h-88.781V369.603z"/>
				<path fill="#523494" d="M617.824,476.632h177.562v177.562H617.824V476.632z M511.286,370.095h177.562v88.781h-88.781v88.781
					h-88.781V370.095z"/>
				<path fill="#523494" d="M617.098,477.123H794.66v177.562H617.098V477.123z M510.561,370.586h177.562v88.781h-88.781v88.781
					h-88.781V370.586z"/>
				<path fill="#523494" d="M616.373,477.615h177.562v177.562H616.373V477.615z M509.836,371.077h177.562v88.781h-88.781v88.781
					h-88.781V371.077z"/>
				<path fill="#523494" d="M615.648,478.106H793.21v177.562H615.648V478.106z M509.11,371.569h177.562v88.781h-88.781v88.781
					H509.11V371.569z"/>
				<path fill="#523494" d="M614.922,478.597h177.562v177.562H614.922V478.597z M508.385,372.06h177.562v88.781h-88.781v88.781
					h-88.781V372.06z"/>
				<path fill="#523494" d="M614.197,479.089h177.562v177.562H614.197V479.089z M507.659,372.551h177.562v88.781H596.44v88.781
					h-88.781V372.551z"/>
				<path fill="#523494" d="M613.471,479.58h177.562v177.562H613.471V479.58z M506.934,373.043h177.562v88.781h-88.781v88.781
					h-88.781V373.043z"/>
				<path fill="#523494" d="M612.746,480.071h177.562v177.562H612.746V480.071z M506.209,373.534h177.562v88.781H594.99v88.781
					h-88.781V373.534z"/>
				<path fill="#523494" d="M612.021,480.563h177.562v177.562H612.021V480.563z M505.483,374.025h177.562v88.781h-88.781v88.781
					h-88.781V374.025z"/>
				<path fill="#523494" d="M611.295,481.054h177.562v177.562H611.295V481.054z M504.758,374.517H682.32v88.781h-88.781v88.781
					h-88.781V374.517z"/>
				<path fill="#523494" d="M610.57,481.545h177.562v177.562H610.57V481.545z M504.033,375.008h177.562v88.781h-88.781v88.781
					h-88.781V375.008z"/>
				<path fill="#523494" d="M609.844,482.037h177.562v177.562H609.844V482.037z M503.307,375.5h177.562v88.781h-88.781v88.781
					h-88.781V375.5z"/>
				<path fill="#523494" d="M609.119,482.528h177.562V660.09H609.119V482.528z M502.582,375.991h177.562v88.781h-88.781v88.781
					h-88.781V375.991z"/>
				<path fill="#523494" d="M608.394,483.02h177.562v177.562H608.394V483.02z M501.856,376.482h177.562v88.781h-88.781v88.781
					h-88.781V376.482z"/>
				<path fill="#523494" d="M607.668,483.511H785.23v177.562H607.668V483.511z M501.131,376.974h177.562v88.781h-88.781v88.781
					h-88.781V376.974z"/>
				<path fill="#523494" d="M606.943,484.002h177.562v177.562H606.943V484.002z M500.406,377.465h177.562v88.781h-88.781v88.781
					h-88.781V377.465z"/>
				<path fill="#523494" d="M606.217,484.494h177.562v177.562H606.217V484.494z M499.68,377.956h177.562v88.781h-88.781v88.781
					H499.68V377.956z"/>
				<path fill="#523494" d="M605.492,484.985h177.562v177.562H605.492V484.985z M498.955,378.448h177.562v88.781h-88.781v88.781
					h-88.781V378.448z"/>
				<path fill="#523494" d="M604.767,485.476h177.562v177.562H604.767V485.476z M498.229,378.939h177.562v88.781H587.01v88.781
					h-88.781V378.939z"/>
				<path fill="#523494" d="M604.041,485.968h177.562V663.53H604.041V485.968z M497.504,379.43h177.562v88.781h-88.781v88.781
					h-88.781V379.43z"/>
				<path fill="#523494" d="M603.316,486.459h177.562v177.562H603.316V486.459z M496.779,379.922h177.562v88.781H585.56v88.781
					h-88.781V379.922z"/>
				<path fill="#523494" d="M602.59,486.95h177.562v177.562H602.59V486.95z M496.053,380.413h177.562v88.781h-88.781v88.781h-88.781
					V380.413z"/>
				<path fill="#523494" d="M601.865,487.442h177.562v177.562H601.865V487.442z M495.328,380.905H672.89v88.781h-88.781v88.781
					h-88.781V380.905z"/>
				<path fill="#523494" d="M601.14,487.933h177.562v177.562H601.14V487.933z M494.602,381.396h177.562v88.781h-88.781v88.781
					h-88.781V381.396z"/>
				<path fill="#523494" d="M600.414,488.424h177.562v177.562H600.414V488.424z M493.877,381.887h177.562v88.781h-88.781v88.781
					h-88.781V381.887z"/>
				<path fill="#523494" d="M599.689,488.916h177.562v177.562H599.689V488.916z M493.152,382.379h177.562v88.781h-88.781v88.781
					h-88.781V382.379z"/>
				<path fill="#523494" d="M598.963,489.407h177.562v177.562H598.963V489.407z M492.426,382.87h177.562v88.781h-88.781v88.781
					h-88.781V382.87z"/>
				<path fill="#523494" d="M598.238,489.899H775.8v177.562H598.238V489.899z M491.701,383.361h177.562v88.781h-88.781v88.781
					h-88.781V383.361z"/>
				<path fill="#523494" d="M597.513,490.39h177.562v177.562H597.513V490.39z M490.975,383.853h177.562v88.781h-88.781v88.781
					h-88.781V383.853z"/>
				<path fill="#523494" d="M596.787,490.881h177.562v177.562H596.787V490.881z M490.25,384.344h177.562v88.781h-88.781v88.781
					H490.25V384.344z"/>
				<path fill="#523494" d="M596.062,491.373h177.562v177.562H596.062V491.373z M489.525,384.835h177.562v88.781h-88.781v88.781
					h-88.781V384.835z"/>
				<path fill="#523494" d="M595.336,491.864h177.562v177.562H595.336V491.864z M488.799,385.327h177.562v88.781H577.58v88.781
					h-88.781V385.327z"/>
				<path fill="#523494" d="M594.611,492.355h177.562v177.562H594.611V492.355z M488.074,385.818h177.562v88.781h-88.781v88.781
					h-88.781V385.818z"/>
				<path fill="#523494" d="M593.886,492.847h177.562v177.562H593.886V492.847z M487.348,386.31H664.91v88.781h-88.781v88.781
					h-88.781V386.31z"/>
				<path fill="#523494" d="M593.16,493.338h177.562V670.9H593.16V493.338z M486.623,386.801h177.562v88.781h-88.781v88.781h-88.781
					V386.801z"/>
				<path fill="#523494" d="M592.435,493.829h177.562v177.562H592.435V493.829z M485.898,387.292H663.46v88.781h-88.781v88.781
					h-88.781V387.292z"/>
				<path fill="#523494" d="M591.709,494.321h177.562v177.562H591.709V494.321z M485.172,387.784h177.562v88.781h-88.781v88.781
					h-88.781V387.784z"/>
				<path fill="#523494" d="M590.984,494.812h177.562v177.562H590.984V494.812z M484.447,388.275h177.562v88.781h-88.781v88.781
					h-88.781V388.275z"/>
				<path fill="#523494" d="M590.259,495.304h177.562v177.562H590.259V495.304z M483.721,388.766h177.562v88.781h-88.781v88.781
					h-88.781V388.766z"/>
				<path fill="#523494" d="M589.533,495.795h177.562v177.562H589.533V495.795z M482.996,389.258h177.562v88.781h-88.781v88.781
					h-88.781V389.258z"/>
				<path fill="#523494" d="M588.808,496.286H766.37v177.562H588.808V496.286z M482.271,389.749h177.562v88.781h-88.781v88.781
					h-88.781V389.749z"/>
				<path fill="#523494" d="M588.082,496.778h177.562V674.34H588.082V496.778z M481.545,390.24h177.562v88.781h-88.781v88.781
					h-88.781V390.24z"/>
				<path fill="#523494" d="M587.357,497.269h177.562v177.562H587.357V497.269z M480.82,390.732h177.562v88.781h-88.781v88.781
					H480.82V390.732z"/>
				<path fill="#523494" d="M586.632,497.76h177.562v177.562H586.632V497.76z M480.094,391.223h177.562v88.781h-88.781v88.781
					h-88.781V391.223z"/>
				<path fill="#523494" d="M585.906,498.252h177.562v177.562H585.906V498.252z M479.369,391.714h177.562v88.781H568.15v88.781
					h-88.781V391.714z"/>
				<path fill="#523494" d="M585.181,498.743h177.562v177.562H585.181V498.743z M478.644,392.206h177.562v88.781h-88.781v88.781
					h-88.781V392.206z"/>
				<path fill="#523494" d="M584.455,499.234h177.562v177.562H584.455V499.234z M477.918,392.697H655.48v88.781h-88.781v88.781
					h-88.781V392.697z"/>
				<path fill="#523494" d="M583.73,499.726h177.562v177.562H583.73V499.726z M477.193,393.189h177.562v88.781h-88.781v88.781
					h-88.781V393.189z"/>
				<path fill="#523494" d="M583.005,500.217h177.562v177.562H583.005V500.217z M476.467,393.68h177.562v88.781h-88.781v88.781
					h-88.781V393.68z"/>
				<path fill="#523494" d="M582.279,500.709h177.562v177.562H582.279V500.709z M475.742,394.171h177.562v88.781h-88.781v88.781
					h-88.781V394.171z"/>
				<path fill="#523494" d="M581.554,501.2h177.562v177.562H581.554V501.2z M475.017,394.663h177.562v88.781h-88.781v88.781h-88.781
					V394.663z"/>
				<path fill="#523494" d="M580.828,501.691h177.562v177.562H580.828V501.691z M474.291,395.154h177.562v88.781h-88.781v88.781
					h-88.781V395.154z"/>
				<path fill="#523494" d="M580.103,502.183h177.562v177.562H580.103V502.183z M473.566,395.645h177.562v88.781h-88.781v88.781
					h-88.781V395.645z"/>
				<path fill="#523494" d="M579.378,502.674H756.94v177.562H579.378V502.674z M472.84,396.137h177.562v88.781h-88.781v88.781
					H472.84V396.137z"/>
				<path fill="#523494" d="M578.652,503.165h177.562v177.562H578.652V503.165z M472.115,396.628h177.562v88.781h-88.781v88.781
					h-88.781V396.628z"/>
				<path fill="#523494" d="M577.927,503.657h177.562v177.562H577.927V503.657z M471.39,397.119h177.562V485.9h-88.781v88.781
					H471.39V397.119z"/>
				<path fill="#523494" d="M577.201,504.148h177.562V681.71H577.201V504.148z M470.664,397.611h177.562v88.781h-88.781v88.781
					h-88.781V397.611z"/>
				<path fill="#523494" d="M576.476,504.639h177.562v177.562H576.476V504.639z M469.939,398.102h177.562v88.781H558.72v88.781
					h-88.781V398.102z"/>
				<path fill="#523494" d="M575.751,505.131h177.562v177.562H575.751V505.131z M469.213,398.594h177.562v88.781h-88.781v88.781
					h-88.781V398.594z"/>
				<path fill="#523494" d="M575.025,505.622h177.562v177.562H575.025V505.622z M468.488,399.085H646.05v88.781h-88.781v88.781
					h-88.781V399.085z"/>
				<path fill="#523494" d="M574.3,506.113h177.562v177.562H574.3V506.113z M467.763,399.576h177.562v88.781h-88.781v88.781h-88.781
					V399.576z"/>
				<path fill="#523494" d="M573.574,506.605h177.562v177.562H573.574V506.605z M467.037,400.068h177.562v88.781h-88.781v88.781
					h-88.781V400.068z"/>
				<path fill="#523494" d="M572.849,507.096h177.562v177.562H572.849V507.096z M466.312,400.559h177.562v88.781h-88.781v88.781
					h-88.781V400.559z"/>
				<path fill="#523494" d="M572.124,507.588h177.562V685.15H572.124V507.588z M465.586,401.05h177.562v88.781h-88.781v88.781
					h-88.781V401.05z"/>
				<path fill="#523494" d="M571.398,508.079H748.96v177.562H571.398V508.079z M464.861,401.542h177.562v88.781h-88.781v88.781
					h-88.781V401.542z"/>
				<path fill="#523494" d="M570.673,508.57h177.562v177.562H570.673V508.57z M464.136,402.033h177.562v88.781h-88.781v88.781
					h-88.781V402.033z"/>
				<path fill="#523494" d="M569.947,509.062H747.51v177.562H569.947V509.062z M463.41,402.524h177.562v88.781h-88.781v88.781
					H463.41V402.524z"/>
				<path fill="#523494" d="M569.222,509.553h177.562v177.562H569.222V509.553z M462.685,403.016h177.562v88.781h-88.781v88.781
					h-88.781V403.016z"/>
				<path fill="#523494" d="M568.497,510.044h177.562v177.562H568.497V510.044z M461.959,403.507h177.562v88.781H550.74v88.781
					h-88.781V403.507z"/>
				<path fill="#523494" d="M567.771,510.536h177.562v177.562H567.771V510.536z M461.234,403.999h177.562v88.781h-88.781v88.781
					h-88.781V403.999z"/>
				<path fill="#523494" d="M567.046,511.027h177.562v177.562H567.046V511.027z M460.509,404.49h177.562v88.781H549.29v88.781
					h-88.781V404.49z"/>
				<path fill="#523494" d="M566.32,511.518h177.562v177.562H566.32V511.518z M459.783,404.981h177.562v88.781h-88.781v88.781
					h-88.781V404.981z"/>
				<path fill="#523494" d="M565.595,512.01h177.562v177.562H565.595V512.01z M459.058,405.473H636.62v88.781h-88.781v88.781
					h-88.781V405.473z"/>
				<path fill="#523494" d="M564.87,512.501h177.562v177.562H564.87V512.501z M458.332,405.964h177.562v88.781h-88.781v88.781
					h-88.781V405.964z"/>
				<path fill="#523494" d="M564.144,512.993h177.562v177.562H564.144V512.993z M457.607,406.455h177.562v88.781h-88.781v88.781
					h-88.781V406.455z"/>
				<path fill="#523494" d="M563.419,513.484h177.562v177.562H563.419V513.484z M456.882,406.947h177.562v88.781h-88.781v88.781
					h-88.781V406.947z"/>
				<path fill="#523494" d="M562.693,513.975h177.562v177.562H562.693V513.975z M456.156,407.438h177.562v88.781h-88.781V585
					h-88.781V407.438z"/>
				<path fill="#523494" d="M561.968,514.467H739.53v177.562H561.968V514.467z M455.431,407.929h177.562v88.781h-88.781v88.781
					h-88.781V407.929z"/>
				<path fill="#523494" d="M561.243,514.958h177.562V692.52H561.243V514.958z M454.705,408.421h177.562v88.781h-88.781v88.781
					h-88.781V408.421z"/>
				<path fill="#523494" d="M560.517,515.449h177.562v177.562H560.517V515.449z M453.98,408.912h177.562v88.781h-88.781v88.781
					H453.98V408.912z"/>
				<path fill="#523494" d="M559.792,515.941h177.562v177.562H559.792V515.941z M453.255,409.403h177.562v88.781h-88.781v88.781
					h-88.781V409.403z"/>
				<path fill="#523494" d="M559.066,516.432h177.562v177.562H559.066V516.432z M452.529,409.895h177.562v88.781H541.31v88.781
					h-88.781V409.895z"/>
				<path fill="#523494" d="M558.341,516.923h177.562v177.562H558.341V516.923z M451.804,410.386h177.562v88.781h-88.781v88.781
					h-88.781V410.386z"/>
				<path fill="#523494" d="M557.616,517.415h177.562v177.562H557.616V517.415z M451.078,410.878h177.562v88.781h-88.781v88.781
					h-88.781V410.878z"/>
				<path fill="#523494" d="M556.89,517.906h177.562v177.562H556.89V517.906z M450.353,411.369h177.562v88.781h-88.781v88.781
					h-88.781V411.369z"/>
				<path fill="#523494" d="M556.165,518.398h177.562V695.96H556.165V518.398z M449.628,411.86H627.19v88.781h-88.781v88.781
					h-88.781V411.86z"/>
				<path fill="#523494" d="M555.44,518.889h177.562v177.562H555.44V518.889z M448.902,412.352h177.562v88.781h-88.781v88.781
					h-88.781V412.352z"/>
				<path fill="#523494" d="M554.714,519.38h177.562v177.562H554.714V519.38z M448.177,412.843h177.562v88.781h-88.781v88.781
					h-88.781V412.843z"/>
				<path fill="#523494" d="M553.989,519.872h177.562v177.562H553.989V519.872z M447.451,413.334h177.562v88.781h-88.781v88.781
					h-88.781V413.334z"/>
				<path fill="#523494" d="M553.263,520.363h177.562v177.562H553.263V520.363z M446.726,413.826h177.562v88.781h-88.781v88.781
					h-88.781V413.826z"/>
				<path fill="#523494" d="M552.538,520.854H730.1v177.562H552.538V520.854z M446.001,414.317h177.562v88.781h-88.781v88.781
					h-88.781V414.317z"/>
				<path fill="#523494" d="M551.813,521.346h177.562v177.562H551.813V521.346z M445.275,414.808h177.562v88.781h-88.781v88.781
					h-88.781V414.808z"/>
				<path fill="#523494" d="M551.087,521.837h177.562v177.562H551.087V521.837z M444.55,415.3h177.562v88.781h-88.781v88.781H444.55
					V415.3z"/>
				<path fill="#523494" d="M550.362,522.328h177.562V699.89H550.362V522.328z M443.824,415.791h177.562v88.781h-88.781v88.781
					h-88.781V415.791z"/>
				<path fill="#523494" d="M549.636,522.82h177.562v177.562H549.636V522.82z M443.099,416.283h177.562v88.781H531.88v88.781
					h-88.781V416.283z"/>
				<path fill="#523494" d="M548.911,523.311h177.562v177.562H548.911V523.311z M442.374,416.774h177.562v88.781h-88.781v88.781
					h-88.781V416.774z"/>
				<path fill="#523494" d="M548.186,523.802h177.562v177.562H548.186V523.802z M441.648,417.265H619.21v88.781h-88.781v88.781
					h-88.781V417.265z"/>
				<path fill="#523494" d="M547.46,524.294h177.562v177.562H547.46V524.294z M440.923,417.757h177.562v88.781h-88.781v88.781
					h-88.781V417.757z"/>
				<path fill="#523494" d="M546.735,524.785h177.562v177.562H546.735V524.785z M440.197,418.248H617.76v88.781h-88.781v88.781
					h-88.781V418.248z"/>
				<path fill="#523494" d="M546.009,525.277h177.562v177.562H546.009V525.277z M439.472,418.739h177.562v88.781h-88.781v88.781
					h-88.781V418.739z"/>
				<path fill="#523494" d="M545.284,525.768h177.562V703.33H545.284V525.768z M438.747,419.231h177.562v88.781h-88.781v88.781
					h-88.781V419.231z"/>
				<path fill="#523494" d="M544.559,526.259h177.562v177.562H544.559V526.259z M438.021,419.722h177.562v88.781h-88.781v88.781
					h-88.781V419.722z"/>
				<path fill="#523494" d="M543.833,526.751h177.562v177.562H543.833V526.751z M437.296,420.213h177.562v88.781h-88.781v88.781
					h-88.781V420.213z"/>
				<path fill="#523494" d="M543.108,527.242H720.67v177.562H543.108V527.242z M436.57,420.705h177.562v88.781h-88.781v88.781
					H436.57V420.705z"/>
				<path fill="#523494" d="M542.382,527.733h177.562v177.562H542.382V527.733z M435.845,421.196h177.562v88.781h-88.781v88.781
					h-88.781V421.196z"/>
				<path fill="#523494" d="M541.657,528.225h177.562v177.562H541.657V528.225z M435.12,421.687h177.562v88.781h-88.781v88.781
					H435.12V421.687z"/>
				<path fill="#523494" d="M540.932,528.716h177.562v177.562H540.932V528.716z M434.394,422.179h177.562v88.781h-88.781v88.781
					h-88.781V422.179z"/>
				<path fill="#523494" d="M540.206,529.207h177.562v177.562H540.206V529.207z M433.669,422.67h177.562v88.781H522.45v88.781
					h-88.781V422.67z"/>
				<path fill="#523494" d="M539.481,529.699h177.562v177.562H539.481V529.699z M432.944,423.162h177.562v88.781h-88.781v88.781
					h-88.781V423.162z"/>
				<path fill="#523494" d="M538.755,530.19h177.562v177.562H538.755V530.19z M432.218,423.653H609.78v88.781h-88.781v88.781
					h-88.781V423.653z"/>
				<path fill="#523494" d="M538.03,530.682h177.562v177.562H538.03V530.682z M431.493,424.144h177.562v88.781h-88.781v88.781
					h-88.781V424.144z"/>
				<path fill="#523494" d="M537.305,531.173h177.562v177.562H537.305V531.173z M430.767,424.636h177.562v88.781h-88.781v88.781
					h-88.781V424.636z"/>
				<path fill="#523494" d="M536.579,531.664h177.562v177.562H536.579V531.664z M430.042,425.127h177.562v88.781h-88.781v88.781
					h-88.781V425.127z"/>
				<path fill="#523494" d="M535.854,532.156h177.562v177.562H535.854V532.156z M429.317,425.618h177.562v88.781h-88.781v88.781
					h-88.781V425.618z"/>
				<path fill="#523494" d="M535.128,532.647H712.69v177.562H535.128V532.647z M428.591,426.11h177.562v88.781h-88.781v88.781
					h-88.781V426.11z"/>
				<path fill="#523494" d="M534.403,533.138h177.562V710.7H534.403V533.138z M427.866,426.601h177.562v88.781h-88.781v88.781
					h-88.781V426.601z"/>
				<path fill="#523494" d="M533.678,533.63H711.24v177.562H533.678V533.63z M427.14,427.092h177.562v88.781h-88.781v88.781H427.14
					V427.092z"/>
				<path fill="#523494" d="M532.952,534.121h177.562v177.562H532.952V534.121z M426.415,427.584h177.562v88.781h-88.781v88.781
					h-88.781V427.584z"/>
				<path fill="#523494" d="M532.227,534.612h177.562v177.562H532.227V534.612z M425.69,428.075h177.562v88.781h-88.781v88.781
					H425.69V428.075z"/>
				<path fill="#523494" d="M531.501,535.104h177.562v177.562H531.501V535.104z M424.964,428.567h177.562v88.781h-88.781v88.781
					h-88.781V428.567z"/>
				<path fill="#523494" d="M530.776,535.595h177.562v177.562H530.776V535.595z M424.239,429.058h177.562v88.781H513.02v88.781
					h-88.781V429.058z"/>
				<path fill="#523494" d="M530.051,536.086h177.562v177.562H530.051V536.086z M423.513,429.549h177.562v88.781h-88.781v88.781
					h-88.781V429.549z"/>
				<path fill="#523494" d="M529.325,536.578h177.562V714.14H529.325V536.578z M422.788,430.041H600.35v88.781h-88.781v88.781
					h-88.781V430.041z"/>
				<path fill="#523494" d="M528.6,537.069h177.562v177.562H528.6V537.069z M422.063,430.532h177.562v88.781h-88.781v88.781h-88.781
					V430.532z"/>
				<path fill="#523494" d="M527.874,537.561h177.562v177.562H527.874V537.561z M421.337,431.023h177.562v88.781h-88.781v88.781
					h-88.781V431.023z"/>
				<path fill="#523494" d="M527.149,538.052h177.562v177.562H527.149V538.052z M420.612,431.515h177.562v88.781h-88.781v88.781
					h-88.781V431.515z"/>
				<path fill="#523494" d="M526.424,538.543h177.562v177.562H526.424V538.543z M419.886,432.006h177.562v88.781h-88.781v88.781
					h-88.781V432.006z"/>
				<path fill="#523494" d="M525.698,539.035H703.26v177.562H525.698V539.035z M419.161,432.497h177.562v88.781h-88.781v88.781
					h-88.781V432.497z"/>
				<path fill="#523494" d="M524.973,539.526h177.562v177.562H524.973V539.526z M418.436,432.989h177.562v88.781h-88.781v88.781
					h-88.781V432.989z"/>
				<path fill="#523494" d="M524.247,540.017h177.562v177.562H524.247V540.017z M417.71,433.48h177.562v88.781h-88.781v88.781
					H417.71V433.48z"/>
				<path fill="#523494" d="M523.522,540.509h177.562v177.562H523.522V540.509z M416.985,433.971h177.562v88.781h-88.781v88.781
					h-88.781V433.971z"/>
				<path fill="#523494" d="M522.797,541h177.562v177.562H522.797V541z M416.259,434.463h177.562v88.781H505.04v88.781h-88.781
					V434.463z"/>
				<path fill="#523494" d="M522.071,541.491h177.562v177.562H522.071V541.491z M415.534,434.954h177.562v88.781h-88.781v88.781
					h-88.781V434.954z"/>
				<path fill="#523494" d="M521.346,541.983h177.562v177.562H521.346V541.983z M414.809,435.446h177.562v88.781H503.59v88.781
					h-88.781V435.446z"/>
				<path fill="#523494" d="M520.62,542.474h177.562v177.562H520.62V542.474z M414.083,435.937h177.562v88.781h-88.781v88.781
					h-88.781V435.937z"/>
				<path fill="#523494" d="M519.895,542.966h177.562v177.562H519.895V542.966z M413.358,436.428H590.92v88.781h-88.781v88.781
					h-88.781V436.428z"/>
				<path fill="#523494" d="M519.17,543.457h177.562v177.562H519.17V543.457z M412.632,436.92h177.562v88.781h-88.781v88.781
					h-88.781V436.92z"/>
				<path fill="#523494" d="M518.444,543.948h177.562V721.51H518.444V543.948z M411.907,437.411h177.562v88.781h-88.781v88.781
					h-88.781V437.411z"/>
				<path fill="#523494" d="M517.719,544.44h177.562v177.562H517.719V544.44z M411.182,437.902h177.562v88.781h-88.781v88.781
					h-88.781V437.902z"/>
				<path fill="#523494" d="M516.993,544.931h177.562v177.562H516.993V544.931z M410.456,438.394h177.562v88.781h-88.781v88.781
					h-88.781V438.394z"/>
				<path fill="#523494" d="M516.268,545.422H693.83v177.562H516.268V545.422z M409.731,438.885h177.562v88.781h-88.781v88.781
					h-88.781V438.885z"/>
				<path fill="#523494" d="M515.543,545.914h177.562v177.562H515.543V545.914z M409.005,439.376h177.562v88.781h-88.781v88.781
					h-88.781V439.376z"/>
				<path fill="#523494" d="M514.817,546.405h177.562v177.562H514.817V546.405z M408.28,439.868h177.562v88.781h-88.781v88.781
					H408.28V439.868z"/>
				<path fill="#523494" d="M514.092,546.896h177.562v177.562H514.092V546.896z M407.555,440.359h177.562v88.781h-88.781v88.781
					h-88.781V440.359z"/>
				<path fill="#523494" d="M513.366,547.388h177.562V724.95H513.366V547.388z M406.829,440.851h177.562v88.781H495.61v88.781
					h-88.781V440.851z"/>
				<path fill="#523494" d="M512.641,547.879h177.562v177.562H512.641V547.879z M406.104,441.342h177.562v88.781h-88.781v88.781
					h-88.781V441.342z"/>
				<path fill="#523494" d="M511.916,548.37h177.562v177.562H511.916V548.37z M405.378,441.833H582.94v88.781h-88.781v88.781
					h-88.781V441.833z"/>
				<path fill="#523494" d="M511.19,548.862h177.562v177.562H511.19V548.862z M404.653,442.325h177.562v88.781h-88.781v88.781
					h-88.781V442.325z"/>
				<path fill="#523494" d="M510.465,549.353h177.562v177.562H510.465V549.353z M403.928,442.816H581.49v88.781h-88.781v88.781
					h-88.781V442.816z"/>
				<path fill="#523494" d="M509.739,549.845h177.562v177.562H509.739V549.845z M403.202,443.307h177.562v88.781h-88.781v88.781
					h-88.781V443.307z"/>
				<path fill="#523494" d="M509.014,550.336h177.562v177.562H509.014V550.336z M402.477,443.799h177.562v88.781h-88.781v88.781
					h-88.781V443.799z"/>
				<path fill="#523494" d="M508.289,550.827h177.562v177.562H508.289V550.827z M401.751,444.29h177.562v88.781h-88.781v88.781
					h-88.781V444.29z"/>
				<path fill="#523494" d="M507.563,551.319h177.562v177.562H507.563V551.319z M401.026,444.781h177.562v88.781h-88.781v88.781
					h-88.781V444.781z"/>
				<path fill="#523494" d="M506.838,551.81H684.4v177.562H506.838V551.81z M400.301,445.273h177.562v88.781h-88.781v88.781h-88.781
					V445.273z"/>
				<path fill="#523494" d="M506.112,552.301h177.562v177.562H506.112V552.301z M399.575,445.764h177.562v88.781h-88.781v88.781
					h-88.781V445.764z"/>
				<path fill="#523494" d="M505.387,552.793h177.562v177.562H505.387V552.793z M398.85,446.256h177.562v88.781h-88.781v88.781
					H398.85V446.256z"/>
				<path fill="#523494" d="M504.662,553.284h177.562v177.562H504.662V553.284z M398.124,446.747h177.562v88.781h-88.781v88.781
					h-88.781V446.747z"/>
				<path fill="#523494" d="M503.936,553.775h177.562v177.562H503.936V553.775z M397.399,447.238h177.562v88.781H486.18V624.8
					h-88.781V447.238z"/>
				<path fill="#523494" d="M503.211,554.267h177.562v177.562H503.211V554.267z M396.674,447.73h177.562v88.781h-88.781v88.781
					h-88.781V447.73z"/>
				<path fill="#523494" d="M502.485,554.758h177.562V732.32H502.485V554.758z M395.948,448.221H573.51v88.781h-88.781v88.781
					h-88.781V448.221z"/>
				<path fill="#523494" d="M501.76,555.25h177.562v177.562H501.76V555.25z M395.223,448.712h177.562v88.781h-88.781v88.781h-88.781
					V448.712z"/>
				<path fill="#523494" d="M501.035,555.741h177.562v177.562H501.035V555.741z M394.497,449.204H572.06v88.781h-88.781v88.781
					h-88.781V449.204z"/>
				<path fill="#523494" d="M500.309,556.232h177.562v177.562H500.309V556.232z M393.772,449.695h177.562v88.781h-88.781v88.781
					h-88.781V449.695z"/>
				<path fill="#523494" d="M499.584,556.724h177.562v177.562H499.584V556.724z M393.047,450.186h177.562v88.781h-88.781v88.781
					h-88.781V450.186z"/>
				<path fill="#523494" d="M498.858,557.215h177.562v177.562H498.858V557.215z M392.321,450.678h177.562v88.781h-88.781v88.781
					h-88.781V450.678z"/>
				<path fill="#523494" d="M498.133,557.706h177.562v177.562H498.133V557.706z M391.596,451.169h177.562v88.781h-88.781v88.781
					h-88.781V451.169z"/>
				<path fill="#523494" d="M497.408,558.198H674.97V735.76H497.408V558.198z M390.87,451.66h177.562v88.781h-88.781v88.781H390.87
					V451.66z"/>
				<path fill="#523494" d="M496.682,558.689h177.562v177.562H496.682V558.689z M390.145,452.152h177.562v88.781h-88.781v88.781
					h-88.781V452.152z"/>
				<path fill="#523494" d="M495.957,559.18h177.562v177.562H495.957V559.18z M389.42,452.643h177.562v88.781h-88.781v88.781H389.42
					V452.643z"/>
				<path fill="#523494" d="M495.232,559.672h177.562v177.562H495.232V559.672z M388.694,453.135h177.562v88.781h-88.781v88.781
					h-88.781V453.135z"/>
				<path fill="#523494" d="M494.506,560.163h177.562v177.562H494.506V560.163z M387.969,453.626h177.562v88.781H476.75v88.781
					h-88.781V453.626z"/>
				<path fill="#523494" d="M493.781,560.655h177.562v177.562H493.781V560.655z M387.243,454.117h177.562v88.781h-88.781v88.781
					h-88.781V454.117z"/>
				<path fill="#523494" d="M493.055,561.146h177.562v177.562H493.055V561.146z M386.518,454.609H564.08v88.781h-88.781v88.781
					h-88.781V454.609z"/>
				<path fill="#523494" d="M492.33,561.637h177.562v177.562H492.33V561.637z M385.793,455.1h177.562v88.781h-88.781v88.781h-88.781
					V455.1z"/>
				<path fill="#523494" d="M491.604,562.129h177.562v177.562H491.604V562.129z M385.067,455.591h177.562v88.781h-88.781v88.781
					h-88.781V455.591z"/>
				<path fill="#523494" d="M490.879,562.62h177.562v177.562H490.879V562.62z M384.342,456.083h177.562v88.781h-88.781v88.781
					h-88.781V456.083z"/>
				<path fill="#523494" d="M490.154,563.111h177.562v177.562H490.154V563.111z M383.616,456.574h177.562v88.781h-88.781v88.781
					h-88.781V456.574z"/>
				<path fill="#523494" d="M489.428,563.603H666.99v177.562H489.428V563.603z M382.891,457.065h177.562v88.781h-88.781v88.781
					h-88.781V457.065z"/>
				<path fill="#523494" d="M488.703,564.094h177.562v177.562H488.703V564.094z M382.166,457.557h177.562v88.781h-88.781v88.781
					h-88.781V457.557z"/>
				<path fill="#523494" d="M487.978,564.585H665.54v177.562H487.978V564.585z M381.44,458.048h177.562v88.781h-88.781v88.781
					H381.44V458.048z"/>
				<path fill="#523494" d="M487.252,565.077h177.562v177.562H487.252V565.077z M380.715,458.54h177.562v88.781h-88.781v88.781
					h-88.781V458.54z"/>
				<path fill="#523494" d="M486.527,565.568h177.562V743.13H486.527V565.568z M379.989,459.031h177.562v88.781h-88.781v88.781
					h-88.781V459.031z"/>
				<path fill="#523494" d="M485.801,566.06h177.562v177.562H485.801V566.06z M379.264,459.522h177.562v88.781h-88.781v88.781
					h-88.781V459.522z"/>
				<path fill="#523494" d="M485.076,566.551h177.562v177.562H485.076V566.551z M378.539,460.014h177.562v88.781H467.32v88.781
					h-88.781V460.014z"/>
				<path fill="#523494" d="M484.351,567.042h177.562v177.562H484.351V567.042z M377.813,460.505h177.562v88.781h-88.781v88.781
					h-88.781V460.505z"/>
				<path fill="#523494" d="M483.625,567.534h177.562v177.562H483.625V567.534z M377.088,460.996H554.65v88.781h-88.781v88.781
					h-88.781V460.996z"/>
				<path fill="#523494" d="M482.9,568.025h177.562v177.562H482.9V568.025z M376.362,461.488h177.562v88.781h-88.781v88.781h-88.781
					V461.488z"/>
				<path fill="#523494" d="M482.174,568.516h177.562v177.562H482.174V568.516z M375.637,461.979h177.562v88.781h-88.781v88.781
					h-88.781V461.979z"/>
				<path fill="#523494" d="M481.449,569.008h177.562V746.57H481.449V569.008z M374.912,462.47h177.562v88.781h-88.781v88.781
					h-88.781V462.47z"/>
				<path fill="#523494" d="M480.724,569.499h177.562v177.562H480.724V569.499z M374.186,462.962h177.562v88.781h-88.781v88.781
					h-88.781V462.962z"/>
				<path fill="#523494" d="M479.998,569.99H657.56v177.562H479.998V569.99z M373.461,463.453h177.562v88.781h-88.781v88.781
					h-88.781V463.453z"/>
				<path fill="#523494" d="M479.273,570.482h177.562v177.562H479.273V570.482z M372.736,463.944h177.562v88.781h-88.781v88.781
					h-88.781V463.944z"/>
				<path fill="#523494" d="M478.547,570.973h177.562v177.562H478.547V570.973z M372.01,464.436h177.562v88.781h-88.781v88.781
					H372.01V464.436z"/>
				<path fill="#523494" d="M477.822,571.464h177.562v177.562H477.822V571.464z M371.285,464.927h177.562v88.781h-88.781v88.781
					h-88.781V464.927z"/>
				<path fill="#523494" d="M477.097,571.956h177.562v177.562H477.097V571.956z M370.559,465.419h177.562V554.2H459.34v88.781
					h-88.781V465.419z"/>
				<path fill="#523494" d="M476.371,572.447h177.562v177.562H476.371V572.447z M369.834,465.91h177.562v88.781h-88.781v88.781
					h-88.781V465.91z"/>
				<path fill="#523494" d="M475.646,572.939h177.562v177.562H475.646V572.939z M369.109,466.401h177.562v88.781H457.89v88.781
					h-88.781V466.401z"/>
				<path fill="#523494" d="M474.92,573.43h177.562v177.562H474.92V573.43z M368.383,466.893h177.562v88.781h-88.781v88.781h-88.781
					V466.893z"/>
				<path fill="#523494" d="M474.195,573.921h177.562v177.562H474.195V573.921z M367.658,467.384H545.22v88.781h-88.781v88.781
					h-88.781V467.384z"/>
				<path fill="#523494" d="M473.47,574.413h177.562v177.562H473.47V574.413z M366.932,467.875h177.562v88.781h-88.781v88.781
					h-88.781V467.875z"/>
				<path fill="#523494" d="M472.744,574.904h177.562v177.562H472.744V574.904z M366.207,468.367h177.562v88.781h-88.781v88.781
					h-88.781V468.367z"/>
				<path fill="#523494" d="M472.019,575.395h177.562v177.562H472.019V575.395z M365.482,468.858h177.562v88.781h-88.781v88.781
					h-88.781V468.858z"/>
				<path fill="#523494" d="M471.293,575.887h177.562v177.562H471.293V575.887z M364.756,469.349h177.562v88.781h-88.781v88.781
					h-88.781V469.349z"/>
				<path fill="#523494" d="M470.568,576.378H648.13V753.94H470.568V576.378z M364.031,469.841h177.562v88.781h-88.781v88.781
					h-88.781V469.841z"/>
				<path fill="#523494" d="M469.843,576.869h177.562v177.562H469.843V576.869z M363.305,470.332h177.562v88.781h-88.781v88.781
					h-88.781V470.332z"/>
				<path fill="#523494" d="M469.117,577.361h177.562v177.562H469.117V577.361z M362.58,470.824h177.562v88.781h-88.781v88.781
					H362.58V470.824z"/>
				<path fill="#523494" d="M468.392,577.852h177.562v177.562H468.392V577.852z M361.855,471.315h177.562v88.781h-88.781v88.781
					h-88.781V471.315z"/>
				<path fill="#523494" d="M467.666,578.344h177.562v177.562H467.666V578.344z M361.129,471.806h177.562v88.781H449.91v88.781
					h-88.781V471.806z"/>
				<path fill="#523494" d="M466.941,578.835h177.562v177.562H466.941V578.835z M360.404,472.298h177.562v88.781h-88.781v88.781
					h-88.781V472.298z"/>
				<path fill="#523494" d="M466.216,579.326h177.562v177.562H466.216V579.326z M359.678,472.789H537.24v88.781h-88.781v88.781
					h-88.781V472.789z"/>
				<path fill="#523494" d="M465.49,579.818h177.562V757.38H465.49V579.818z M358.953,473.28h177.562v88.781h-88.781v88.781h-88.781
					V473.28z"/>
				<path fill="#523494" d="M464.765,580.309h177.562v177.562H464.765V580.309z M358.228,473.772H535.79v88.781h-88.781v88.781
					h-88.781V473.772z"/>
				<path fill="#523494" d="M464.039,580.8h177.562v177.562H464.039V580.8z M357.502,474.263h177.562v88.781h-88.781v88.781h-88.781
					V474.263z"/>
				<path fill="#523494" d="M463.314,581.292h177.562v177.562H463.314V581.292z M356.777,474.754h177.562v88.781h-88.781v88.781
					h-88.781V474.754z"/>
				<path fill="#523494" d="M462.589,581.783h177.562v177.562H462.589V581.783z M356.051,475.246h177.562v88.781h-88.781v88.781
					h-88.781V475.246z"/>
				<path fill="#523494" d="M461.863,582.274h177.562v177.562H461.863V582.274z M355.326,475.737h177.562v88.781h-88.781v88.781
					h-88.781V475.737z"/>
				<path fill="#523494" d="M461.138,582.766H638.7v177.562H461.138V582.766z M354.601,476.229h177.562v88.781h-88.781v88.781
					h-88.781V476.229z"/>
				<path fill="#523494" d="M460.412,583.257h177.562v177.562H460.412V583.257z M353.875,476.72h177.562v88.781h-88.781v88.781
					h-88.781V476.72z"/>
				<path fill="#523494" d="M459.687,583.748h177.562v177.562H459.687V583.748z M353.15,477.211h177.562v88.781h-88.781v88.781
					H353.15V477.211z"/>
				<path fill="#523494" d="M458.962,584.24h177.562v177.562H458.962V584.24z M352.424,477.703h177.562v88.781h-88.781v88.781
					h-88.781V477.703z"/>
				<path fill="#523494" d="M458.236,584.731h177.562v177.562H458.236V584.731z M351.699,478.194h177.562v88.781H440.48v88.781
					h-88.781V478.194z"/>
				<path fill="#523494" d="M457.511,585.223h177.562v177.562H457.511V585.223z M350.974,478.685h177.562v88.781h-88.781v88.781
					h-88.781V478.685z"/>
				<path fill="#523494" d="M456.785,585.714h177.562v177.562H456.785V585.714z M350.248,479.177H527.81v88.781h-88.781v88.781
					h-88.781V479.177z"/>
				<path fill="#523494" d="M456.06,586.205h177.562v177.562H456.06V586.205z M349.523,479.668h177.562v88.781h-88.781v88.781
					h-88.781V479.668z"/>
				<path fill="#523494" d="M455.335,586.697h177.562v177.562H455.335V586.697z M348.797,480.159h177.562v88.781h-88.781v88.781
					h-88.781V480.159z"/>
				<path fill="#523494" d="M454.609,587.188h177.562V764.75H454.609V587.188z M348.072,480.651h177.562v88.781h-88.781v88.781
					h-88.781V480.651z"/>
				<path fill="#523494" d="M453.884,587.679h177.562v177.562H453.884V587.679z M347.347,481.142h177.562v88.781h-88.781v88.781
					h-88.781V481.142z"/>
				<path fill="#523494" d="M453.158,588.171H630.72v177.562H453.158V588.171z M346.621,481.633h177.562v88.781h-88.781v88.781
					h-88.781V481.633z"/>
				<path fill="#523494" d="M452.433,588.662h177.562v177.562H452.433V588.662z M345.896,482.125h177.562v88.781h-88.781v88.781
					h-88.781V482.125z"/>
				<path fill="#523494" d="M451.708,589.153H629.27v177.562H451.708V589.153z M345.17,482.616h177.562v88.781h-88.781v88.781
					H345.17V482.616z"/>
				<path fill="#523494" d="M450.982,589.645h177.562v177.562H450.982V589.645z M344.445,483.108h177.562v88.781h-88.781v88.781
					h-88.781V483.108z"/>
				<path fill="#523494" d="M450.257,590.136h177.562v177.562H450.257V590.136z M343.72,483.599h177.562v88.781h-88.781v88.781
					H343.72V483.599z"/>
				<path fill="#523494" d="M449.531,590.628h177.562V768.19H449.531V590.628z M342.994,484.09h177.562v88.781h-88.781v88.781
					h-88.781V484.09z"/>
				<path fill="#523494" d="M448.806,591.119h177.562v177.562H448.806V591.119z M342.269,484.582h177.562v88.781H431.05v88.781
					h-88.781V484.582z"/>
				<path fill="#523494" d="M448.081,591.61h177.562v177.562H448.081V591.61z M341.543,485.073h177.562v88.781h-88.781v88.781
					h-88.781V485.073z"/>
				<path fill="#523494" d="M447.355,592.102h177.562v177.562H447.355V592.102z M340.818,485.564H518.38v88.781h-88.781v88.781
					h-88.781V485.564z"/>
				<path fill="#523494" d="M446.63,592.593h177.562v177.562H446.63V592.593z M340.093,486.056h177.562v88.781h-88.781v88.781
					h-88.781V486.056z"/>
				<path fill="#523494" d="M445.904,593.084h177.562v177.562H445.904V593.084z M339.367,486.547h177.562v88.781h-88.781v88.781
					h-88.781V486.547z"/>
				<path fill="#523494" d="M445.179,593.576h177.562v177.562H445.179V593.576z M338.642,487.038h177.562v88.781h-88.781v88.781
					h-88.781V487.038z"/>
				<path fill="#523494" d="M444.454,594.067h177.562v177.562H444.454V594.067z M337.916,487.53h177.562v88.781h-88.781v88.781
					h-88.781V487.53z"/>
				<path fill="#523494" d="M443.728,594.558H621.29V772.12H443.728V594.558z M337.191,488.021h177.562v88.781h-88.781v88.781
					h-88.781V488.021z"/>
				<path fill="#523494" d="M443.003,595.05h177.562v177.562H443.003V595.05z M336.466,488.513h177.562v88.781h-88.781v88.781
					h-88.781V488.513z"/>
				<path fill="#523494" d="M442.277,595.541H619.84v177.562H442.277V595.541z M335.74,489.004h177.562v88.781h-88.781v88.781
					H335.74V489.004z"/>
				<path fill="#523494" d="M441.552,596.032h177.562v177.562H441.552V596.032z M335.015,489.495h177.562v88.781h-88.781v88.781
					h-88.781V489.495z"/>
				<path fill="#523494" d="M440.827,596.524h177.562v177.562H440.827V596.524z M334.289,489.987h177.562v88.781H423.07v88.781
					h-88.781V489.987z"/>
				<path fill="#523494" d="M440.101,597.015h177.562v177.562H440.101V597.015z M333.564,490.478h177.562v88.781h-88.781v88.781
					h-88.781V490.478z"/>
				<path fill="#523494" d="M439.376,597.507h177.562v177.562H439.376V597.507z M332.839,490.969h177.562v88.781H421.62v88.781
					h-88.781V490.969z"/>
				<path fill="#523494" d="M438.65,597.998h177.562V775.56H438.65V597.998z M332.113,491.461h177.562v88.781h-88.781v88.781
					h-88.781V491.461z"/>
				<path fill="#523494" d="M437.925,598.489h177.562v177.562H437.925V598.489z M331.388,491.952H508.95v88.781h-88.781v88.781
					h-88.781V491.952z"/>
				<path fill="#523494" d="M437.2,598.981h177.562v177.562H437.2V598.981z M330.662,492.443h177.562v88.781h-88.781v88.781h-88.781
					V492.443z"/>
				<path fill="#523494" d="M436.474,599.472h177.562v177.562H436.474V599.472z M329.937,492.935h177.562v88.781h-88.781v88.781
					h-88.781V492.935z"/>
				<path fill="#523494" d="M435.749,599.963h177.562v177.562H435.749V599.963z M329.212,493.426h177.562v88.781h-88.781v88.781
					h-88.781V493.426z"/>
				<path fill="#523494" d="M435.023,600.455h177.562v177.562H435.023V600.455z M328.486,493.918h177.562v88.781h-88.781v88.781
					h-88.781V493.918z"/>
				<path fill="#523494" d="M434.298,600.946H611.86v177.562H434.298V600.946z M327.761,494.409h177.562v88.781h-88.781v88.781
					h-88.781V494.409z"/>
				<path fill="#523494" d="M433.573,601.437h177.562V779H433.573V601.437z M327.035,494.9h177.562v88.781h-88.781v88.781h-88.781
					V494.9z"/>
				<path fill="#523494" d="M432.847,601.929h177.562v177.562H432.847V601.929z M326.31,495.392h177.562v88.781h-88.781v88.781
					H326.31V495.392z"/>
				<path fill="#523494" d="M432.122,602.42h177.562v177.562H432.122V602.42z M325.585,495.883h177.562v88.781h-88.781v88.781
					h-88.781V495.883z"/>
				<path fill="#523494" d="M431.396,602.912h177.562v177.562H431.396V602.912z M324.859,496.374h177.562v88.781H413.64v88.781
					h-88.781V496.374z"/>
				<path fill="#523494" d="M430.671,603.403h177.562v177.562H430.671V603.403z M324.134,496.866h177.562v88.781h-88.781v88.781
					h-88.781V496.866z"/>
				<path fill="#523494" d="M429.946,603.894h177.562v177.562H429.946V603.894z M323.408,497.357h177.562v88.781h-88.781v88.781
					h-88.781V497.357z"/>
				<path fill="#523494" d="M429.22,604.386h177.562v177.562H429.22V604.386z M322.683,497.848h177.562v88.781h-88.781v88.781
					h-88.781V497.848z"/>
				<path fill="#523494" d="M428.495,604.877h177.562v177.562H428.495V604.877z M321.958,498.34H499.52v88.781h-88.781v88.781
					h-88.781V498.34z"/>
				<path fill="#523494" d="M427.77,605.368h177.562V782.93H427.77V605.368z M321.232,498.831h177.562v88.781h-88.781v88.781
					h-88.781V498.831z"/>
				<path fill="#523494" d="M427.044,605.86h177.562v177.562H427.044V605.86z M320.507,499.322h177.562v88.781h-88.781v88.781
					h-88.781V499.322z"/>
				<path fill="#523494" d="M426.319,606.351h177.562v177.562H426.319V606.351z M319.781,499.814h177.562v88.781h-88.781v88.781
					h-88.781V499.814z"/>
				<path fill="#523494" d="M425.593,606.842h177.562v177.562H425.593V606.842z M319.056,500.305h177.562v88.781h-88.781v88.781
					h-88.781V500.305z"/>
				<path fill="#523494" d="M424.868,607.334H602.43v177.562H424.868V607.334z M318.331,500.797h177.562v88.781h-88.781v88.781
					h-88.781V500.797z"/>
				<path fill="#523494" d="M424.143,607.825h177.562v177.562H424.143V607.825z M317.605,501.288h177.562v88.781h-88.781v88.781
					h-88.781V501.288z"/>
				<path fill="#523494" d="M423.417,608.317h177.562v177.562H423.417V608.317z M316.88,501.779h177.562v88.781h-88.781v88.781
					H316.88V501.779z"/>
				<path fill="#523494" d="M422.692,608.808h177.562V786.37H422.692V608.808z M316.154,502.271h177.562v88.781h-88.781v88.781
					h-88.781V502.271z"/>
				<path fill="#523494" d="M421.966,609.299h177.562v177.562H421.966V609.299z M315.429,502.762h177.562v88.781H404.21v88.781
					h-88.781V502.762z"/>
				<path fill="#523494" d="M421.241,609.791h177.562v177.562H421.241V609.791z M314.704,503.253h177.562v88.781h-88.781v88.781
					h-88.781V503.253z"/>
				<path fill="#523494" d="M420.516,610.282h177.562v177.562H420.516V610.282z M313.978,503.745H491.54v88.781h-88.781v88.781
					h-88.781V503.745z"/>
				<path fill="#523494" d="M419.79,610.773h177.562v177.562H419.79V610.773z M313.253,504.236h177.562v88.781h-88.781v88.781
					h-88.781V504.236z"/>
				<path fill="#523494" d="M419.065,611.265h177.562v177.562H419.065V611.265z M312.527,504.727H490.09v88.781h-88.781v88.781
					h-88.781V504.727z"/>
				<path fill="#523494" d="M418.339,611.756h177.562v177.562H418.339V611.756z M311.802,505.219h177.562V594h-88.781v88.781
					h-88.781V505.219z"/>
				<path fill="#523494" d="M417.614,612.247h177.562v177.562H417.614V612.247z M311.077,505.71h177.562v88.781h-88.781v88.781
					h-88.781V505.71z"/>
				<path fill="#523494" d="M416.889,612.739h177.562v177.562H416.889V612.739z M310.351,506.202h177.562v88.781h-88.781v88.781
					h-88.781V506.202z"/>
				<path fill="#523494" d="M416.163,613.23h177.562v177.562H416.163V613.23z M309.626,506.693h177.562v88.781h-88.781v88.781
					h-88.781V506.693z"/>
				<path fill="#523494" d="M415.438,613.721H593v177.562H415.438V613.721z M308.901,507.184h177.562v88.781h-88.781v88.781h-88.781
					V507.184z"/>
				<path fill="#523494" d="M414.712,614.213h177.562v177.562H414.712V614.213z M308.175,507.676h177.562v88.781h-88.781v88.781
					h-88.781V507.676z"/>
				<path fill="#523494" d="M413.987,614.704h177.562v177.562H413.987V614.704z M307.45,508.167h177.562v88.781h-88.781v88.781
					H307.45V508.167z"/>
				<path fill="#523494" d="M413.262,615.196h177.562v177.562H413.262V615.196z M306.724,508.658h177.562v88.781h-88.781v88.781
					h-88.781V508.658z"/>
				<path fill="#523494" d="M412.536,615.687h177.562v177.562H412.536V615.687z M305.999,509.15h177.562v88.781H394.78v88.781
					h-88.781V509.15z"/>
				<path fill="#523494" d="M411.811,616.178h177.562V793.74H411.811V616.178z M305.274,509.641h177.562v88.781h-88.781v88.781
					h-88.781V509.641z"/>
				<path fill="#523494" d="M411.085,616.67h177.562v177.562H411.085V616.67z M304.548,510.132H482.11v88.781h-88.781v88.781
					h-88.781V510.132z"/>
				<path fill="#523494" d="M410.36,617.161h177.562v177.562H410.36V617.161z M303.823,510.624h177.562v88.781h-88.781v88.781
					h-88.781V510.624z"/>
				<path fill="#523494" d="M409.635,617.652h177.562v177.562H409.635V617.652z M303.097,511.115h177.562v88.781h-88.781v88.781
					h-88.781V511.115z"/>
				<path fill="#523494" d="M408.909,618.144h177.562v177.562H408.909V618.144z M302.372,511.606h177.562v88.781h-88.781v88.781
					h-88.781V511.606z"/>
				<path fill="#523494" d="M408.184,618.635h177.562v177.562H408.184V618.635z M301.647,512.098h177.562v88.781h-88.781v88.781
					h-88.781V512.098z"/>
				<path fill="#523494" d="M407.458,619.126H585.02v177.562H407.458V619.126z M300.921,512.589h177.562v88.781h-88.781v88.781
					h-88.781V512.589z"/>
				<path fill="#523494" d="M406.733,619.618h177.562V797.18H406.733V619.618z M300.196,513.081h177.562v88.781h-88.781v88.781
					h-88.781V513.081z"/>
				<path fill="#523494" d="M406.008,620.109H583.57v177.562H406.008V620.109z M299.47,513.572h177.562v88.781h-88.781v88.781
					H299.47V513.572z"/>
				<path fill="#523494" d="M405.282,620.601h177.562v177.562H405.282V620.601z M298.745,514.063h177.562v88.781h-88.781v88.781
					h-88.781V514.063z"/>
				<path fill="#523494" d="M404.557,621.092h177.562v177.562H404.557V621.092z M298.02,514.555h177.562v88.781h-88.781v88.781
					H298.02V514.555z"/>
				<path fill="#523494" d="M403.831,621.583h177.562v177.562H403.831V621.583z M297.294,515.046h177.562v88.781h-88.781v88.781
					h-88.781V515.046z"/>
				<path fill="#523494" d="M403.106,622.075h177.562v177.562H403.106V622.075z M296.569,515.537h177.562v88.781H385.35v88.781
					h-88.781V515.537z"/>
				<path fill="#523494" d="M402.381,622.566h177.562v177.562H402.381V622.566z M295.843,516.029h177.562v88.781h-88.781v88.781
					h-88.781V516.029z"/>
				<path fill="#523494" d="M401.655,623.057h177.562v177.562H401.655V623.057z M295.118,516.52H472.68v88.781h-88.781v88.781
					h-88.781V516.52z"/>
				<path fill="#523494" d="M400.93,623.549h177.562v177.562H400.93V623.549z M294.393,517.011h177.562v88.781h-88.781v88.781
					h-88.781V517.011z"/>
				<path fill="#523494" d="M400.204,624.04h177.562v177.562H400.204V624.04z M293.667,517.503h177.562v88.781h-88.781v88.781
					h-88.781V517.503z"/>
				<path fill="#523494" d="M399.479,624.531h177.562v177.562H399.479V624.531z M292.942,517.994h177.562v88.781h-88.781v88.781
					h-88.781V517.994z"/>
				<path fill="#523494" d="M398.754,625.023h177.562v177.562H398.754V625.023z M292.216,518.486h177.562v88.781h-88.781v88.781
					h-88.781V518.486z"/>
				<path fill="#523494" d="M398.028,625.514H575.59v177.562H398.028V625.514z M291.491,518.977h177.562v88.781h-88.781v88.781
					h-88.781V518.977z"/>
				<path fill="#523494" d="M397.303,626.005h177.562v177.562H397.303V626.005z M290.766,519.468h177.562v88.781h-88.781v88.781
					h-88.781V519.468z"/>
				<path fill="#523494" d="M396.577,626.497h177.562v177.562H396.577V626.497z M290.04,519.96h177.562v88.781h-88.781v88.781
					H290.04V519.96z"/>
				<path fill="#523494" d="M395.852,626.988h177.562V804.55H395.852V626.988z M289.315,520.451h177.562v88.781h-88.781v88.781
					h-88.781V520.451z"/>
				<path fill="#523494" d="M395.127,627.48h177.562v177.562H395.127V627.48z M288.589,520.942h177.562v88.781H377.37v88.781
					h-88.781V520.942z"/>
				<path fill="#523494" d="M394.401,627.971h177.562v177.562H394.401V627.971z M287.864,521.434h177.562v88.781h-88.781v88.781
					h-88.781V521.434z"/>
				<path fill="#523494" d="M393.676,628.462h177.562v177.562H393.676V628.462z M287.139,521.925h177.562v88.781H375.92v88.781
					h-88.781V521.925z"/>
				<path fill="#523494" d="M392.95,628.954h177.562v177.562H392.95V628.954z M286.413,522.416h177.562v88.781h-88.781v88.781
					h-88.781V522.416z"/>
				<path fill="#523494" d="M392.225,629.445h177.562v177.562H392.225V629.445z M285.688,522.908H463.25v88.781h-88.781v88.781
					h-88.781V522.908z"/>
				<path fill="#523494" d="M391.5,629.936h177.562v177.562H391.5V629.936z M284.962,523.399h177.562v88.781h-88.781v88.781h-88.781
					V523.399z"/>
				<path fill="#523494" d="M390.774,630.428h177.562V807.99H390.774V630.428z M284.237,523.891h177.562v88.781h-88.781v88.781
					h-88.781V523.891z"/>
				<path fill="#523494" d="M390.049,630.919h177.562v177.562H390.049V630.919z M283.512,524.382h177.562v88.781h-88.781v88.781
					h-88.781V524.382z"/>
				<path fill="#523494" d="M389.323,631.41h177.562v177.562H389.323V631.41z M282.786,524.873h177.562v88.781h-88.781v88.781
					h-88.781V524.873z"/>
				<path fill="#523494" d="M388.598,631.902H566.16v177.562H388.598V631.902z M282.061,525.365h177.562v88.781h-88.781v88.781
					h-88.781V525.365z"/>
				<path fill="#523494" d="M387.873,632.393h177.562v177.562H387.873V632.393z M281.335,525.856h177.562v88.781h-88.781v88.781
					h-88.781V525.856z"/>
				<path fill="#523494" d="M387.147,632.885h177.562v177.562H387.147V632.885z M280.61,526.347h177.562v88.781h-88.781v88.781
					H280.61V526.347z"/>
				<path fill="#523494" d="M386.422,633.376h177.562v177.562H386.422V633.376z M279.885,526.839h177.562v88.781h-88.781v88.781
					h-88.781V526.839z"/>
				<path fill="#523494" d="M385.696,633.867h177.562v177.562H385.696V633.867z M279.159,527.33h177.562v88.781H367.94v88.781
					h-88.781V527.33z"/>
				<path fill="#523494" d="M384.971,634.359h177.562v177.562H384.971V634.359z M278.434,527.821h177.562v88.781h-88.781v88.781
					h-88.781V527.821z"/>
				<path fill="#523494" d="M384.246,634.85h177.562v177.562H384.246V634.85z M277.708,528.313H455.27v88.781h-88.781v88.781
					h-88.781V528.313z"/>
				<path fill="#523494" d="M383.52,635.341h177.562v177.562H383.52V635.341z M276.983,528.804h177.562v88.781h-88.781v88.781
					h-88.781V528.804z"/>
				<path fill="#523494" d="M382.795,635.833h177.562v177.562H382.795V635.833z M276.258,529.295H453.82v88.781h-88.781v88.781
					h-88.781V529.295z"/>
				<path fill="#523494" d="M382.069,636.324h177.562v177.562H382.069V636.324z M275.532,529.787h177.562v88.781h-88.781v88.781
					h-88.781V529.787z"/>
				<path fill="#523494" d="M381.344,636.815h177.562v177.562H381.344V636.815z M274.807,530.278h177.562v88.781h-88.781v88.781
					h-88.781V530.278z"/>
				<path fill="#523494" d="M380.619,637.307h177.562v177.562H380.619V637.307z M274.081,530.77h177.562v88.781h-88.781v88.781
					h-88.781V530.77z"/>
				<path fill="#523494" d="M379.893,637.798h177.562V815.36H379.893V637.798z M273.356,531.261h177.562v88.781h-88.781v88.781
					h-88.781V531.261z"/>
				<path fill="#523494" d="M379.168,638.289H556.73v177.562H379.168V638.289z M272.631,531.752h177.562v88.781h-88.781v88.781
					h-88.781V531.752z"/>
				<path fill="#523494" d="M378.442,638.781h177.562v177.562H378.442V638.781z M271.905,532.244h177.562v88.781h-88.781v88.781
					h-88.781V532.244z"/>
				<path fill="#523494" d="M377.717,639.272h177.562v177.562H377.717V639.272z M271.18,532.735h177.562v88.781h-88.781v88.781
					H271.18V532.735z"/>
				<path fill="#523494" d="M376.992,639.764h177.562v177.562H376.992V639.764z M270.454,533.226h177.562v88.781h-88.781v88.781
					h-88.781V533.226z"/>
				<path fill="#523494" d="M376.266,640.255h177.562v177.562H376.266V640.255z M269.729,533.718h177.562v88.781H358.51v88.781
					h-88.781V533.718z"/>
				<path fill="#523494" d="M375.541,640.746h177.562v177.562H375.541V640.746z M269.004,534.209h177.562v88.781h-88.781v88.781
					h-88.781V534.209z"/>
				<path fill="#523494" d="M374.815,641.238h177.562V818.8H374.815V641.238z M268.278,534.7H445.84v88.781h-88.781v88.781h-88.781
					V534.7z"/>
				<path fill="#523494" d="M374.09,641.729h177.562v177.562H374.09V641.729z M267.553,535.192h177.562v88.781h-88.781v88.781
					h-88.781V535.192z"/>
				<path fill="#523494" d="M373.365,642.22h177.562v177.562H373.365V642.22z M266.827,535.683h177.562v88.781h-88.781v88.781
					h-88.781V535.683z"/>
				<path fill="#523494" d="M372.639,642.712h177.562v177.562H372.639V642.712z M266.102,536.174h177.562v88.781h-88.781v88.781
					h-88.781V536.174z"/>
				<path fill="#523494" d="M371.914,643.203h177.562v177.562H371.914V643.203z M265.377,536.666h177.562v88.781h-88.781v88.781
					h-88.781V536.666z"/>
				<path fill="#523494" d="M371.188,643.694h177.562v177.562H371.188V643.694z M264.651,537.157h177.562v88.781h-88.781v88.781
					h-88.781V537.157z"/>
				<path fill="#523494" d="M370.463,644.186h177.562v177.562H370.463V644.186z M263.926,537.649h177.562v88.781h-88.781v88.781
					h-88.781V537.649z"/>
				<path fill="#523494" d="M369.738,644.677H547.3v177.562H369.738V644.677z M263.2,538.14h177.562v88.781h-88.781v88.781H263.2
					V538.14z"/>
				<path fill="#523494" d="M369.012,645.169h177.562v177.562H369.012V645.169z M262.475,538.631h177.562v88.781h-88.781v88.781
					h-88.781V538.631z"/>
				<path fill="#523494" d="M368.287,645.66h177.562v177.562H368.287V645.66z M261.75,539.123h177.562v88.781h-88.781v88.781H261.75
					V539.123z"/>
				<path fill="#523494" d="M367.561,646.151h177.562v177.562H367.561V646.151z M261.024,539.614h177.562v88.781h-88.781v88.781
					h-88.781V539.614z"/>
				<path fill="#523494" d="M366.836,646.643h177.562v177.562H366.836V646.643z M260.299,540.105h177.562v88.781H349.08v88.781
					h-88.781V540.105z"/>
				<path fill="#523494" d="M366.111,647.134h177.562v177.562H366.111V647.134z M259.573,540.597h177.562v88.781h-88.781v88.781
					h-88.781V540.597z"/>
				<path fill="#523494" d="M365.385,647.625h177.562v177.562H365.385V647.625z M258.848,541.088H436.41v88.781h-88.781v88.781
					h-88.781V541.088z"/>
				<path fill="#523494" d="M364.66,648.117h177.562v177.562H364.66V648.117z M258.123,541.579h177.562v88.781h-88.781v88.781
					h-88.781V541.579z"/>
				<path fill="#523494" d="M363.935,648.608h177.562V826.17H363.935V648.608z M257.397,542.071h177.562v88.781h-88.781v88.781
					h-88.781V542.071z"/>
				<path fill="#523494" d="M363.209,649.099h177.562v177.562H363.209V649.099z M256.672,542.562h177.562v88.781h-88.781v88.781
					h-88.781V542.562z"/>
				<path fill="#523494" d="M362.484,649.591h177.562v177.562H362.484V649.591z M255.946,543.054h177.562v88.781h-88.781v88.781
					h-88.781V543.054z"/>
				<path fill="#523494" d="M361.758,650.082H539.32v177.562H361.758V650.082z M255.221,543.545h177.562v88.781h-88.781v88.781
					h-88.781V543.545z"/>
				<path fill="#523494" d="M361.033,650.574h177.562v177.562H361.033V650.574z M254.496,544.036h177.562v88.781h-88.781v88.781
					h-88.781V544.036z"/>
				<path fill="#523494" d="M360.308,651.065H537.87v177.562H360.308V651.065z M253.77,544.528h177.562v88.781h-88.781v88.781
					H253.77V544.528z"/>
				<path fill="#523494" d="M359.582,651.556h177.562v177.562H359.582V651.556z M253.045,545.019h177.562V633.8h-88.781v88.781
					h-88.781V545.019z"/>
				<path fill="#523494" d="M358.857,652.048h177.562V829.61H358.857V652.048z M252.319,545.51h177.562v88.781h-88.781v88.781
					h-88.781V545.51z"/>
				<path fill="#523494" d="M358.131,652.539h177.562v177.562H358.131V652.539z M251.594,546.002h177.562v88.781h-88.781v88.781
					h-88.781V546.002z"/>
				<path fill="#523494" d="M357.406,653.03h177.562v177.562H357.406V653.03z M250.869,546.493h177.562v88.781H339.65v88.781
					h-88.781V546.493z"/>
				<path fill="#523494" d="M356.681,653.522h177.562v177.562H356.681V653.522z M250.143,546.984h177.562v88.781h-88.781v88.781
					h-88.781V546.984z"/>
				<path fill="#523494" d="M355.955,654.013h177.562v177.562H355.955V654.013z M249.418,547.476H426.98v88.781h-88.781v88.781
					h-88.781V547.476z"/>
				<path fill="#523494" d="M355.23,654.504h177.562v177.562H355.23V654.504z M248.692,547.967h177.562v88.781h-88.781v88.781
					h-88.781V547.967z"/>
				<path fill="#523494" d="M354.504,654.996h177.562v177.562H354.504V654.996z M247.967,548.459h177.562v88.781h-88.781v88.781
					h-88.781V548.459z"/>
				<path fill="#523494" d="M353.779,655.487h177.562v177.562H353.779V655.487z M247.242,548.95h177.562v88.781h-88.781v88.781
					h-88.781V548.95z"/>
				<path fill="#523494" d="M353.054,655.979h177.562v177.562H353.054V655.979z M246.516,549.441h177.562v88.781h-88.781v88.781
					h-88.781V549.441z"/>
				<path fill="#523494" d="M352.328,656.47H529.89v177.562H352.328V656.47z M245.791,549.933h177.562v88.781h-88.781v88.781
					h-88.781V549.933z"/>
				<path fill="#523494" d="M351.603,656.961h177.562v177.562H351.603V656.961z M245.066,550.424h177.562v88.781h-88.781v88.781
					h-88.781V550.424z"/>
				<path fill="#523494" d="M350.877,657.453h177.562v177.562H350.877V657.453z M244.34,550.915h177.562v88.781h-88.781v88.781
					H244.34V550.915z"/>
				<path fill="#523494" d="M350.152,657.944h177.562v177.562H350.152V657.944z M243.615,551.407h177.562v88.781h-88.781v88.781
					h-88.781V551.407z"/>
				<path fill="#523494" d="M349.427,658.435h177.562v177.562H349.427V658.435z M242.889,551.898h177.562v88.781H331.67v88.781
					h-88.781V551.898z"/>
				<path fill="#523494" d="M348.701,658.927h177.562v177.562H348.701V658.927z M242.164,552.389h177.562v88.781h-88.781v88.781
					h-88.781V552.389z"/>
				<path fill="#523494" d="M347.976,659.418h177.562V836.98H347.976V659.418z M241.439,552.881h177.562v88.781H330.22v88.781
					h-88.781V552.881z"/>
				<path fill="#523494" d="M347.25,659.909h177.562v177.562H347.25V659.909z M240.713,553.372h177.562v88.781h-88.781v88.781
					h-88.781V553.372z"/>
				<path fill="#523494" d="M346.525,660.401h177.562v177.562H346.525V660.401z M239.988,553.864H417.55v88.781h-88.781v88.781
					h-88.781V553.864z"/>
				<path fill="#523494" d="M345.8,660.892h177.562v177.562H345.8V660.892z M239.262,554.355h177.562v88.781h-88.781v88.781h-88.781
					V554.355z"/>
				<path fill="#523494" d="M345.074,661.383h177.562v177.562H345.074V661.383z M238.537,554.846h177.562v88.781h-88.781v88.781
					h-88.781V554.846z"/>
				<path fill="#523494" d="M344.349,661.875h177.562v177.562H344.349V661.875z M237.812,555.338h177.562v88.781h-88.781V732.9
					h-88.781V555.338z"/>
				<path fill="#523494" d="M343.623,662.366h177.562v177.562H343.623V662.366z M237.086,555.829h177.562v88.781h-88.781v88.781
					h-88.781V555.829z"/>
				<path fill="#523494" d="M342.898,662.858H520.46V840.42H342.898V662.858z M236.361,556.32h177.562v88.781h-88.781v88.781
					h-88.781V556.32z"/>
				<path fill="#523494" d="M342.173,663.349h177.562v177.562H342.173V663.349z M235.635,556.812h177.562v88.781h-88.781v88.781
					h-88.781V556.812z"/>
				<path id="Rectangle_168_copy_3_" fill="#523494" d="M341.447,663.84h177.562v177.562H341.447V663.84z M234.91,557.303h177.562
					v88.781h-88.781v88.781H234.91V557.303z"/>
			</g>
		</g>
	</g>
	<g id="Icons_with_numbers_1_" clip-path="url(#SVGID_2_)">
		<g id="Group_1_" transform="translate(-528.000000, -240.000000)">
			<path id="Rectangle_168_copy_1_" fill="#FFFFFF" d="M599.082,311.082h177.562v88.781h-88.781v88.781h-88.781V311.082z
				 M705.619,417.619h177.562v177.562H705.619V417.619z"/>
		</g>
	</g>
</g>
</svg>
