<?xml version="1.0" encoding="utf-8"?>
<!-- Generator: Adobe Illustrator 17.0.0, SVG Export Plug-In . SVG Version: 6.00 Build 0)  -->
<!DOCTYPE svg PUBLIC "-//W3C//DTD SVG 1.1//EN" "http://www.w3.org/Graphics/SVG/1.1/DTD/svg11.dtd">
<svg version="1.1" id="Livello_1" xmlns="http://www.w3.org/2000/svg" xmlns:xlink="http://www.w3.org/1999/xlink" x="0px" y="0px"
	 width="426.263px" height="426.263px" viewBox="0 0 426.263 426.263" enable-background="new 0 0 426.263 426.263"
	 xml:space="preserve">
<g>
	<g>
		<defs>
			<path id="SVGID_1_" d="M0,12C0,5.373,5.373,0,12,0l402.263,0c6.627,0,12,5.373,12,12v402.263c0,6.627-5.373,12-12,12H12
				c-6.627,0-12-5.373-12-12L0,12z"/>
		</defs>
		<clipPath id="SVGID_2_">
			<use xlink:href="#SVGID_1_"  overflow="visible"/>
		</clipPath>
		<path clip-path="url(#SVGID_2_)" fill="#646CB2" d="M0.747,414.312V12.05c0-6.627,5.373-12,12-12l402.263,0
			c6.627,0,12,5.373,12,12v402.262c0,6.627-5.373,12-12,12H12.748C6.121,426.312,0.748,420.939,0.747,414.312L0.747,414.312z"/>
	</g>
	<g>
		<defs>
			<path id="SVGID_3_" d="M0,12C0,5.373,5.373,0,12,0l402.263,0c6.627,0,12,5.373,12,12v402.263c0,6.627-5.373,12-12,12H12
				c-6.627,0-12-5.373-12-12L0,12z"/>
		</defs>
		<clipPath id="SVGID_4_">
			<use xlink:href="#SVGID_3_"  overflow="visible"/>
		</clipPath>
		<g id="Icons_with_numbers_2_" clip-path="url(#SVGID_4_)">
			<g id="Group_2_" transform="translate(-528.000000, -240.000000)">
				<g>
					<path id="Rectangle_168_copy_4_" fill="#523494" d="M777.392,595.231H599.83V417.669h177.562V595.231z M883.929,488.693
						h-88.781v-88.781h-88.781v-88.781h177.562V488.693z"/>
					<path fill="#523494" d="M778.117,595.722H600.555V418.16h177.562V595.722z M884.654,489.185h-88.781v-88.781h-88.781v-88.781
						h177.562V489.185z"/>
					<path fill="#523494" d="M778.842,596.213H601.28V418.651h177.562V596.213z M885.38,489.676h-88.781v-88.781h-88.781v-88.781
						H885.38V489.676z"/>
					<path fill="#523494" d="M779.568,596.705H602.006V419.143h177.562V596.705z M886.105,312.605v177.562h-88.781v-88.781h-88.781
						v-88.781H886.105L886.105,312.605z"/>
					<path fill="#523494" d="M780.293,597.196H602.731V419.634h177.562V597.196z M886.83,490.659h-88.781v-88.781h-88.781v-88.781
						H886.83V490.659z"/>
					<path fill="#523494" d="M781.019,597.687H603.457V420.125h177.562V597.687z M887.556,491.15h-88.781v-88.781h-88.781v-88.781
						h177.562V491.15z"/>
					<path fill="#523494" d="M781.744,598.179H604.182V420.617h177.562V598.179z M888.281,491.641H799.5V402.86h-88.781v-88.781
						h177.562V491.641z"/>
					<path fill="#523494" d="M782.469,598.67H604.907V421.108h177.562V598.67z M889.007,492.133h-88.781v-88.781h-88.781v-88.781
						h177.562V492.133z"/>
					<path fill="#523494" d="M783.195,599.161H605.633V421.599h177.562V599.161z M889.732,492.624h-88.781v-88.781H712.17v-88.781
						h177.562V492.624z"/>
					<path fill="#523494" d="M783.92,599.653H606.358V422.091H783.92V599.653z M890.457,493.116h-88.781v-88.781h-88.781v-88.781
						h177.562V493.116z"/>
					<path fill="#523494" d="M784.646,600.144H607.083V422.582h177.563V600.144z M891.183,493.607h-88.781v-88.781h-88.781v-88.781
						h177.562V493.607z"/>
					<path fill="#523494" d="M785.371,600.636H607.809V423.074h177.562V600.636z M891.908,494.098h-88.781v-88.781h-88.781v-88.781
						h177.562V494.098z"/>
					<path fill="#523494" d="M786.096,601.127H608.534V423.565h177.562V601.127z M892.634,317.028V494.59h-88.781v-88.781h-88.781
						v-88.781H892.634L892.634,317.028z"/>
					<path fill="#523494" d="M786.822,601.618H609.26V424.056h177.562V601.618z M893.359,495.081h-88.781V406.3h-88.781v-88.781
						h177.562V495.081z"/>
					<path fill="#523494" d="M787.547,602.11H609.985V424.548h177.562V602.11z M894.084,495.572h-88.781v-88.781h-88.781V318.01
						h177.562V495.572z"/>
					<path fill="#523494" d="M788.273,602.601H610.711V425.039h177.562V602.601z M894.81,496.064h-88.781v-88.781h-88.781v-88.781
						H894.81V496.064z"/>
					<path fill="#523494" d="M788.998,603.092H611.436V425.53h177.562V603.092z M895.535,318.993v177.562h-88.781v-88.781h-88.781
						v-88.781H895.535L895.535,318.993z"/>
					<path fill="#523494" d="M789.723,603.584H612.161V426.022h177.562V603.584z M896.261,497.046H807.48v-88.781h-88.781v-88.781
						h177.562V497.046z"/>
					<path fill="#523494" d="M790.449,604.075H612.887V426.513h177.562V604.075z M896.986,497.538h-88.781v-88.781h-88.781v-88.781
						h177.562V497.538z"/>
					<path fill="#523494" d="M791.174,604.566H613.612V427.004h177.562V604.566z M897.711,498.029H808.93v-88.781h-88.781v-88.781
						h177.562V498.029z"/>
					<path fill="#523494" d="M791.9,605.058H614.338V427.496H791.9V605.058z M898.437,498.521h-88.781V409.74h-88.781v-88.781
						h177.562V498.521z"/>
					<path fill="#523494" d="M792.625,605.549H615.063V427.987h177.562V605.549z M899.162,499.012h-88.781v-88.781H721.6V321.45
						h177.562V499.012z"/>
					<path fill="#523494" d="M793.35,606.04H615.788V428.478H793.35V606.04z M899.888,499.503h-88.781v-88.781h-88.781v-88.781
						h177.562V499.503z"/>
					<path fill="#523494" d="M794.076,606.532H616.514V428.97h177.562V606.532z M900.613,499.995h-88.781v-88.781h-88.781v-88.781
						h177.562V499.995z"/>
					<path fill="#523494" d="M794.801,607.023H617.239V429.461h177.562V607.023z M901.338,500.486h-88.781v-88.781h-88.781v-88.781
						h177.562V500.486z"/>
					<path fill="#523494" d="M795.526,607.515H617.964V429.953h177.562V607.515z M902.064,500.977h-88.781v-88.781h-88.781v-88.781
						h177.562V500.977z"/>
					<path fill="#523494" d="M796.252,608.006H618.69V430.444h177.562V608.006z M902.789,501.469h-88.781v-88.781h-88.781v-88.781
						h177.562V501.469z"/>
					<path fill="#523494" d="M796.977,608.497H619.415V430.935h177.562V608.497z M903.515,501.96h-88.781v-88.781h-88.781v-88.781
						h177.562V501.96z"/>
					<path fill="#523494" d="M797.703,608.989H620.141V431.427h177.562V608.989z M904.24,502.451h-88.781V413.67h-88.781v-88.781
						H904.24V502.451z"/>
					<path fill="#523494" d="M798.428,609.48H620.866V431.918h177.562V609.48z M904.965,502.943h-88.781v-88.781h-88.781v-88.781
						h177.562V502.943z"/>
					<path fill="#523494" d="M799.154,609.971H621.592V432.409h177.562V609.971z M905.691,503.434H816.91v-88.781h-88.781v-88.781
						h177.562V503.434z"/>
					<path fill="#523494" d="M799.879,610.463H622.317V432.901h177.562V610.463z M906.416,503.925h-88.781v-88.781h-88.781v-88.781
						h177.562V503.925z"/>
					<path fill="#523494" d="M800.604,610.954H623.042V433.392h177.562V610.954z M907.142,504.417h-88.781v-88.781H729.58v-88.781
						h177.562V504.417z"/>
					<path fill="#523494" d="M801.33,611.445H623.768V433.883H801.33V611.445z M907.867,504.908h-88.781v-88.781h-88.781v-88.781
						h177.562V504.908z"/>
					<path fill="#523494" d="M802.055,611.937H624.493V434.375h177.562V611.937z M908.592,505.4h-88.781v-88.781H731.03v-88.781
						h177.562V505.4z"/>
					<path fill="#523494" d="M802.781,612.428H625.219V434.866h177.562V612.428z M909.318,505.891h-88.781V417.11h-88.781v-88.781
						h177.562V505.891z"/>
					<path fill="#523494" d="M803.506,612.92H625.944V435.358h177.562V612.92z M910.043,506.382h-88.781v-88.781h-88.781V328.82
						h177.562V506.382z"/>
					<path fill="#523494" d="M804.231,613.411H626.669V435.849h177.562V613.411z M910.768,506.874h-88.781v-88.781h-88.781v-88.781
						h177.562V506.874z"/>
					<path fill="#523494" d="M804.957,613.902H627.395V436.34h177.562V613.902z M911.494,507.365h-88.781v-88.781h-88.781v-88.781
						h177.562V507.365z"/>
					<path fill="#523494" d="M805.682,614.394H628.12V436.832h177.562V614.394z M912.219,507.856h-88.781v-88.781h-88.781v-88.781
						h177.562V507.856z"/>
					<path fill="#523494" d="M806.407,614.885H628.845V437.323h177.562V614.885z M912.945,508.348h-88.781v-88.781h-88.781v-88.781
						h177.562V508.348z"/>
					<path fill="#523494" d="M807.133,615.376H629.571V437.814h177.562V615.376z M913.67,508.839h-88.781v-88.781h-88.781v-88.781
						H913.67V508.839z"/>
					<path fill="#523494" d="M807.858,615.868H630.296V438.306h177.562V615.868z M914.395,331.768V509.33h-88.781v-88.781h-88.781
						v-88.781H914.395L914.395,331.768z"/>
					<path fill="#523494" d="M808.584,616.359H631.022V438.797h177.562V616.359z M915.121,509.822H826.34v-88.781h-88.781V332.26
						h177.562V509.822z"/>
					<path fill="#523494" d="M809.309,616.85H631.747V439.288h177.562V616.85z M915.846,510.313h-88.781v-88.781h-88.781v-88.781
						h177.562V510.313z"/>
					<path fill="#523494" d="M810.034,617.342H632.472V439.78h177.562V617.342z M916.572,510.805h-88.781v-88.781H739.01v-88.781
						h177.562V510.805z"/>
					<path fill="#523494" d="M810.76,617.833H633.198V440.271H810.76V617.833z M917.297,511.296h-88.781v-88.781h-88.781v-88.781
						h177.562V511.296z"/>
					<path fill="#523494" d="M811.485,618.325H633.923V440.763h177.562V618.325z M918.023,511.787h-88.781v-88.781h-88.781v-88.781
						h177.562V511.787z"/>
					<path fill="#523494" d="M812.211,618.816H634.649V441.254h177.562V618.816z M918.748,512.279h-88.781v-88.781h-88.781v-88.781
						h177.562V512.279z"/>
					<path fill="#523494" d="M812.936,619.307H635.374V441.745h177.562V619.307z M919.473,512.77h-88.781v-88.781h-88.781v-88.781
						h177.562V512.77z"/>
					<path fill="#523494" d="M813.661,619.799H636.099V442.237h177.562V619.799z M920.199,513.261h-88.781V424.48h-88.781v-88.781
						h177.562V513.261z"/>
					<path fill="#523494" d="M814.387,620.29H636.825V442.728h177.562V620.29z M920.924,513.753h-88.781v-88.781h-88.781v-88.781
						h177.562V513.753z"/>
					<path fill="#523494" d="M815.112,620.781H637.55V443.219h177.562V620.781z M921.649,514.244h-88.781v-88.781h-88.781v-88.781
						h177.562V514.244z"/>
					<path fill="#523494" d="M815.838,621.273H638.276V443.711h177.562V621.273z M922.375,514.735h-88.781v-88.781h-88.781v-88.781
						h177.562V514.735z"/>
					<path fill="#523494" d="M816.563,621.764H639.001V444.202h177.562V621.764z M923.1,515.227h-88.781v-88.781h-88.781v-88.781
						H923.1V515.227z"/>
					<path fill="#523494" d="M817.288,622.255H639.726V444.693h177.562V622.255z M923.826,515.718h-88.781v-88.781h-88.781v-88.781
						h177.562V515.718z"/>
					<path fill="#523494" d="M818.014,622.747H640.452V445.185h177.562V622.747z M924.551,516.21H835.77v-88.781h-88.781v-88.781
						h177.562V516.21z"/>
					<path fill="#523494" d="M818.739,623.238H641.177V445.676h177.562V623.238z M925.276,516.701h-88.781V427.92h-88.781v-88.781
						h177.562V516.701z"/>
					<path fill="#523494" d="M819.465,623.73H641.903V446.167h177.562V623.73z M926.002,517.192h-88.781v-88.781H748.44V339.63
						h177.562V517.192z"/>
					<path fill="#523494" d="M820.19,624.221H642.628V446.659H820.19V624.221z M926.727,517.684h-88.781v-88.781h-88.781v-88.781
						h177.562V517.684z"/>
					<path fill="#523494" d="M820.915,624.712H643.353V447.15h177.562V624.712z M927.453,518.175h-88.781v-88.781h-88.781v-88.781
						h177.562V518.175z"/>
					<path fill="#523494" d="M821.641,625.204H644.079V447.642h177.562V625.204z M928.178,518.666h-88.781v-88.781h-88.781v-88.781
						h177.562V518.666z"/>
					<path fill="#523494" d="M822.366,625.695H644.804V448.133h177.562V625.695z M928.903,519.158h-88.781v-88.781h-88.781v-88.781
						h177.562V519.158z"/>
					<path fill="#523494" d="M823.092,626.186H645.53V448.624h177.562V626.186z M929.629,519.649h-88.781v-88.781h-88.781v-88.781
						h177.562V519.649z"/>
					<path fill="#523494" d="M823.817,626.678H646.255V449.116h177.562V626.678z M930.354,520.14h-88.781v-88.781h-88.781v-88.781
						h177.562V520.14z"/>
					<path fill="#523494" d="M824.542,627.169H646.98V449.607h177.562V627.169z M931.08,520.632h-88.781v-88.781h-88.781V343.07
						H931.08V520.632z"/>
					<path fill="#523494" d="M825.268,627.66H647.706V450.098h177.562V627.66z M931.805,521.123h-88.781v-88.781h-88.781v-88.781
						h177.562V521.123z"/>
					<path fill="#523494" d="M825.993,628.152H648.431V450.59h177.562V628.152z M932.53,521.614h-88.781v-88.781h-88.781v-88.781
						H932.53V521.614z"/>
					<path fill="#523494" d="M826.719,628.643H649.157V451.081h177.562V628.643z M933.256,522.106h-88.781v-88.781h-88.781v-88.781
						h177.562V522.106z"/>
					<path fill="#523494" d="M827.444,629.134H649.882V451.572h177.562V629.134z M933.981,522.597H845.2v-88.781h-88.781v-88.781
						h177.562V522.597z"/>
					<path fill="#523494" d="M828.169,629.626H650.607V452.064h177.562V629.626z M934.707,523.089h-88.781v-88.781h-88.781v-88.781
						h177.562V523.089z"/>
					<path fill="#523494" d="M828.895,630.117H651.333V452.555h177.562V630.117z M935.432,523.58h-88.781v-88.781H757.87v-88.781
						h177.562V523.58z"/>
					<path fill="#523494" d="M829.62,630.609H652.058V453.047H829.62V630.609z M936.157,524.071h-88.781V435.29h-88.781v-88.781
						h177.562V524.071z"/>
					<path fill="#523494" d="M830.346,631.1H652.784V453.538h177.562V631.1z M936.883,524.563h-88.781v-88.781h-88.781v-88.781
						h177.562V524.563z"/>
					<path fill="#523494" d="M831.071,631.591H653.509V454.029h177.562V631.591z M937.608,525.054h-88.781v-88.781h-88.781v-88.781
						h177.562V525.054z"/>
					<path fill="#523494" d="M831.796,632.083H654.234V454.521h177.562V632.083z M938.334,525.545h-88.781v-88.781h-88.781v-88.781
						h177.562V525.545z"/>
					<path fill="#523494" d="M832.522,632.574H654.96V455.012h177.562V632.574z M939.059,526.037h-88.781v-88.781h-88.781v-88.781
						h177.562V526.037z"/>
					<path fill="#523494" d="M833.247,633.065H655.685V455.503h177.562V633.065z M939.784,526.528h-88.781v-88.781h-88.781v-88.781
						h177.562V526.528z"/>
					<path fill="#523494" d="M833.973,633.557H656.411V455.995h177.562V633.557z M940.51,527.019h-88.781v-88.781h-88.781v-88.781
						H940.51V527.019z"/>
					<path fill="#523494" d="M834.698,634.048H657.136V456.486h177.562V634.048z M941.235,527.511h-88.781V438.73h-88.781v-88.781
						h177.562V527.511z"/>
					<path fill="#523494" d="M835.423,634.539H657.861V456.977h177.562V634.539z M941.961,528.002H853.18v-88.781h-88.781V350.44
						h177.562V528.002z"/>
					<path fill="#523494" d="M836.149,635.031H658.587V457.469h177.562V635.031z M942.686,528.494h-88.781v-88.781h-88.781v-88.781
						h177.562V528.494z"/>
					<path fill="#523494" d="M836.874,635.522H659.312V457.96h177.562V635.522z M943.411,528.985H854.63v-88.781h-88.781v-88.781
						h177.562V528.985z"/>
					<path fill="#523494" d="M837.6,636.014H660.038V458.452H837.6V636.014z M944.137,529.476h-88.781v-88.781h-88.781v-88.781
						h177.562V529.476z"/>
					<path fill="#523494" d="M838.325,636.505H660.763V458.943h177.562V636.505z M944.862,529.968h-88.781v-88.781H767.3v-88.781
						h177.562V529.968z"/>
					<path fill="#523494" d="M839.05,636.996H661.488V459.434H839.05V636.996z M945.588,530.459h-88.781v-88.781h-88.781v-88.781
						h177.562V530.459z"/>
					<path fill="#523494" d="M839.776,637.488H662.214V459.926h177.562V637.488z M946.313,530.95h-88.781v-88.781h-88.781v-88.781
						h177.562V530.95z"/>
					<path fill="#523494" d="M840.501,637.979H662.939V460.417h177.562V637.979z M947.038,531.442h-88.781v-88.781h-88.781V353.88
						h177.562V531.442z"/>
					<path fill="#523494" d="M841.227,638.47H663.665V460.908h177.562V638.47z M947.764,531.933h-88.781v-88.781h-88.781v-88.781
						h177.562V531.933z"/>
					<path fill="#523494" d="M841.952,638.962H664.39V461.4h177.562V638.962z M948.489,532.424h-88.781v-88.781h-88.781v-88.781
						h177.562V532.424z"/>
					<path fill="#523494" d="M842.677,639.453H665.115V461.891h177.562V639.453z M949.215,532.916h-88.781v-88.781h-88.781v-88.781
						h177.562V532.916z"/>
					<path fill="#523494" d="M843.403,639.944H665.841V462.382h177.562V639.944z M949.94,533.407h-88.781v-88.781h-88.781v-88.781
						H949.94V533.407z"/>
					<path fill="#523494" d="M844.128,640.436H666.566V462.874h177.562V640.436z M950.665,356.336v177.562h-88.781v-88.781h-88.781
						v-88.781H950.665L950.665,356.336z"/>
					<path fill="#523494" d="M844.854,640.927H667.292V463.365h177.562V640.927z M951.391,534.39H862.61v-88.781h-88.781v-88.781
						h177.562V534.39z"/>
					<path fill="#523494" d="M845.579,641.418H668.017V463.856h177.562V641.418z M952.116,534.881h-88.781V446.1h-88.781v-88.781
						h177.562V534.881z"/>
					<path fill="#523494" d="M846.304,641.91H668.742V464.348h177.562V641.91z M952.842,535.373h-88.781v-88.781H775.28v-88.781
						h177.562V535.373z"/>
					<path fill="#523494" d="M847.03,642.401H669.468V464.839H847.03V642.401z M953.567,535.864h-88.781v-88.781h-88.781v-88.781
						h177.562V535.864z"/>
					<path fill="#523494" d="M847.755,642.893H670.193V465.331h177.562V642.893z M954.292,536.355h-88.781v-88.781H776.73v-88.781
						h177.562V536.355z"/>
					<path fill="#523494" d="M848.481,643.384H670.919V465.822h177.562V643.384z M955.018,536.847h-88.781v-88.781h-88.781v-88.781
						h177.562V536.847z"/>
					<path fill="#523494" d="M849.206,643.875H671.644V466.313h177.562V643.875z M955.743,537.338h-88.781v-88.781h-88.781v-88.781
						h177.562V537.338z"/>
					<path fill="#523494" d="M849.931,644.367H672.369V466.805h177.562V644.367z M956.469,537.829h-88.781v-88.781h-88.781v-88.781
						h177.562V537.829z"/>
					<path fill="#523494" d="M850.657,644.858H673.095V467.296h177.562V644.858z M957.194,538.321h-88.781V449.54h-88.781v-88.781
						h177.562V538.321z"/>
					<path fill="#523494" d="M851.382,645.349H673.82V467.787h177.562V645.349z M957.919,538.812h-88.781v-88.781h-88.781V361.25
						h177.562V538.812z"/>
					<path fill="#523494" d="M852.108,645.841H674.546V468.279h177.562V645.841z M958.645,539.303h-88.781v-88.781h-88.781v-88.781
						h177.562V539.303z"/>
					<path fill="#523494" d="M852.833,646.332H675.271V468.77h177.562V646.332z M959.37,539.795h-88.781v-88.781h-88.781v-88.781
						H959.37V539.795z"/>
					<path fill="#523494" d="M853.558,646.823H675.996V469.261h177.562V646.823z M960.096,540.286h-88.781v-88.781h-88.781v-88.781
						h177.562V540.286z"/>
					<path fill="#523494" d="M854.284,647.315H676.722V469.753h177.562V647.315z M960.821,540.778H872.04v-88.781h-88.781v-88.781
						h177.562V540.778z"/>
					<path fill="#523494" d="M855.009,647.806H677.447V470.244h177.562V647.806z M961.546,541.269h-88.781v-88.781h-88.781v-88.781
						h177.562V541.269z"/>
					<path fill="#523494" d="M855.734,648.298H678.172V470.736h177.562V648.298z M962.272,541.76h-88.781v-88.781H784.71v-88.781
						h177.562V541.76z"/>
					<path fill="#523494" d="M856.46,648.789H678.898V471.227H856.46V648.789z M962.997,542.252h-88.781v-88.781h-88.781V364.69
						h177.562V542.252z"/>
					<path fill="#523494" d="M857.185,649.28H679.623V471.718h177.562V649.28z M963.723,542.743h-88.781v-88.781h-88.781v-88.781
						h177.562V542.743z"/>
					<path fill="#523494" d="M857.911,649.772H680.349V472.21h177.562V649.772z M964.448,543.234h-88.781v-88.781h-88.781v-88.781
						h177.562V543.234z"/>
					<path fill="#523494" d="M858.636,650.263H681.074V472.701h177.562V650.263z M965.173,543.726h-88.781v-88.781h-88.781v-88.781
						h177.562V543.726z"/>
					<path fill="#523494" d="M859.362,650.754H681.8V473.192h177.562V650.754z M965.899,544.217h-88.781v-88.781h-88.781v-88.781
						h177.562V544.217z"/>
					<path fill="#523494" d="M860.087,651.246H682.525V473.684h177.562V651.246z M966.624,544.708h-88.781v-88.781h-88.781v-88.781
						h177.562V544.708z"/>
					<path fill="#523494" d="M860.812,651.737H683.25V474.175h177.562V651.737z M967.35,545.2h-88.781v-88.781h-88.781v-88.781
						H967.35V545.2z"/>
					<path fill="#523494" d="M861.538,652.228H683.976V474.666h177.562V652.228z M968.075,545.691h-88.781V456.91h-88.781v-88.781
						h177.562V545.691z"/>
					<path fill="#523494" d="M862.263,652.72H684.701V475.158h177.562V652.72z M968.8,546.183h-88.781v-88.781h-88.781v-88.781
						H968.8V546.183z"/>
					<path fill="#523494" d="M862.989,653.211H685.427V475.649h177.562V653.211z M969.526,546.674h-88.781v-88.781h-88.781v-88.781
						h177.562V546.674z"/>
					<path fill="#523494" d="M863.714,653.702H686.152V476.14h177.562V653.702z M970.251,547.165H881.47v-88.781h-88.781v-88.781
						h177.562V547.165z"/>
					<path fill="#523494" d="M864.439,654.194H686.877V476.632h177.562V654.194z M970.977,547.657h-88.781v-88.781h-88.781v-88.781
						h177.562V547.657z"/>
					<path fill="#523494" d="M865.165,654.685H687.603V477.123h177.562V654.685z M971.702,370.586v177.562h-88.781v-88.781H794.14
						v-88.781H971.702L971.702,370.586z"/>
					<path fill="#523494" d="M865.89,655.177H688.328V477.615H865.89V655.177z M972.427,548.639h-88.781v-88.781h-88.781v-88.781
						h177.562V548.639z"/>
					<path fill="#523494" d="M866.615,655.668H689.053V478.106h177.562V655.668z M973.153,549.131h-88.781V460.35h-88.781v-88.781
						h177.562V549.131z"/>
					<path fill="#523494" d="M867.341,656.159H689.779V478.597h177.562V656.159z M973.878,549.622h-88.781v-88.781h-88.781V372.06
						h177.562V549.622z"/>
					<path fill="#523494" d="M868.066,656.651H690.504V479.089h177.562V656.651z M974.604,550.113h-88.781v-88.781h-88.781v-88.781
						h177.562V550.113z"/>
					<path fill="#523494" d="M868.792,657.142H691.23V479.58h177.562V657.142z M975.329,373.043v177.562h-88.781v-88.781h-88.781
						v-88.781H975.329L975.329,373.043z"/>
					<path fill="#523494" d="M869.517,657.633H691.955V480.071h177.562V657.633z M976.054,373.534v177.562h-88.781v-88.781h-88.781
						v-88.781H976.054L976.054,373.534z"/>
					<path fill="#523494" d="M870.242,658.125H692.68V480.563h177.562V658.125z M976.78,374.025v177.562h-88.781v-88.781h-88.781
						v-88.781H976.78L976.78,374.025z"/>
					<path fill="#523494" d="M870.968,658.616H693.406V481.054h177.562V658.616z M977.505,552.079h-88.781v-88.781h-88.781v-88.781
						h177.562V552.079z"/>
					<path fill="#523494" d="M871.693,659.107H694.131V481.545h177.562V659.107z M978.23,375.008V552.57h-88.781v-88.781h-88.781
						v-88.781H978.23L978.23,375.008z"/>
					<path fill="#523494" d="M872.419,659.599H694.857V482.037h177.562V659.599z M978.956,553.062h-88.781v-88.781h-88.781V375.5
						h177.562V553.062z"/>
					<path fill="#523494" d="M873.144,660.09H695.582V482.528h177.562V660.09z M979.681,375.991v177.562H890.9v-88.781h-88.781
						v-88.781H979.681L979.681,375.991z"/>
					<path fill="#523494" d="M873.869,660.582H696.307V483.02h177.562V660.582z M980.407,376.482v177.562h-88.781v-88.781h-88.781
						v-88.781H980.407L980.407,376.482z"/>
					<path fill="#523494" d="M874.595,661.073H697.033V483.511h177.562V661.073z M981.132,376.974v177.562h-88.781v-88.781H803.57
						v-88.781H981.132L981.132,376.974z"/>
					<path fill="#523494" d="M875.32,661.564H697.758V484.002H875.32V661.564z M981.857,555.027h-88.781v-88.781h-88.781v-88.781
						h177.562V555.027z"/>
					<path fill="#523494" d="M876.046,662.056H698.484V484.494h177.562V662.056z M982.583,555.518h-88.781v-88.781h-88.781v-88.781
						h177.562V555.518z"/>
					<path fill="#523494" d="M876.771,662.547H699.209V484.985h177.562V662.547z M983.308,378.448V556.01h-88.781v-88.781h-88.781
						v-88.781H983.308L983.308,378.448z"/>
					<path fill="#523494" d="M877.496,663.038H699.934V485.476h177.562V663.038z M984.034,556.501h-88.781V467.72h-88.781v-88.781
						h177.562V556.501z"/>
					<path fill="#523494" d="M878.222,663.53H700.66V485.968h177.562V663.53z M984.759,379.43v177.562h-88.781v-88.781h-88.781
						V379.43H984.759L984.759,379.43z"/>
					<path fill="#523494" d="M878.947,664.021H701.385V486.459h177.562V664.021z M985.484,557.484h-88.781v-88.781h-88.781v-88.781
						h177.562V557.484z"/>
					<path fill="#523494" d="M879.673,664.512H702.111V486.95h177.562V664.512z M986.21,380.413v177.562h-88.781v-88.781h-88.781
						v-88.781H986.21L986.21,380.413z"/>
					<path fill="#523494" d="M880.398,665.004H702.836V487.442h177.562V665.004z M986.935,558.467h-88.781v-88.781h-88.781v-88.781
						h177.562V558.467z"/>
					<path fill="#523494" d="M881.123,665.495H703.561V487.933h177.562V665.495z M987.661,558.958H898.88v-88.781h-88.781v-88.781
						h177.562V558.958z"/>
					<path fill="#523494" d="M881.849,665.986H704.287V488.424h177.562V665.986z M988.386,559.449h-88.781v-88.781h-88.781v-88.781
						h177.562V559.449z"/>
					<path fill="#523494" d="M882.574,666.478H705.012V488.916h177.562V666.478z M989.111,382.379v177.562H900.33V471.16h-88.781
						v-88.781H989.111L989.111,382.379z"/>
					<path fill="#523494" d="M883.3,666.969H705.738V489.407H883.3V666.969z M989.837,382.87v177.562h-88.781v-88.781h-88.781
						V382.87H989.837L989.837,382.87z"/>
					<path fill="#523494" d="M884.025,667.461H706.463V489.899h177.562V667.461z M990.562,560.923h-88.781v-88.781H813v-88.781
						h177.562V560.923z"/>
					<path fill="#523494" d="M884.75,667.952H707.188V490.39H884.75V667.952z M991.288,383.853v177.562h-88.781v-88.781h-88.781
						v-88.781H991.288L991.288,383.853z"/>
					<path fill="#523494" d="M885.476,668.443H707.914V490.881h177.562V668.443z M992.013,561.906h-88.781v-88.781h-88.781v-88.781
						h177.562V561.906z"/>
					<path fill="#523494" d="M886.201,668.935H708.639V491.373h177.562V668.935z M992.738,384.835v177.562h-88.781v-88.781h-88.781
						v-88.781H992.738L992.738,384.835z"/>
					<path fill="#523494" d="M886.927,669.426H709.365V491.864h177.562V669.426z M993.464,562.889h-88.781v-88.781h-88.781v-88.781
						h177.562V562.889z"/>
					<path fill="#523494" d="M887.652,669.917H710.09V492.355h177.562V669.917z M994.189,385.818V563.38h-88.781v-88.781h-88.781
						v-88.781H994.189L994.189,385.818z"/>
					<path fill="#523494" d="M888.377,670.409H710.815V492.847h177.562V670.409z M994.915,386.31v177.562h-88.781v-88.781h-88.781
						V386.31H994.915L994.915,386.31z"/>
					<path fill="#523494" d="M889.103,670.9H711.541V493.338h177.562V670.9z M995.64,564.363h-88.781v-88.781h-88.781v-88.781
						H995.64V564.363z"/>
					<path fill="#523494" d="M889.828,671.391H712.266V493.829h177.562V671.391z M996.365,564.854h-88.781v-88.781h-88.781v-88.781
						h177.562V564.854z"/>
					<path fill="#523494" d="M890.554,671.883H712.992V494.321h177.562V671.883z M997.091,565.346H908.31v-88.781h-88.781v-88.781
						h177.562V565.346z"/>
					<path fill="#523494" d="M891.279,672.374H713.717V494.812h177.562V672.374z M997.816,388.275v177.562h-88.781v-88.781h-88.781
						v-88.781H997.816L997.816,388.275z"/>
					<path fill="#523494" d="M892.004,672.866H714.442V495.304h177.562V672.866z M998.542,566.328h-88.781v-88.781H820.98v-88.781
						h177.562V566.328z"/>
					<path fill="#523494" d="M892.73,673.357H715.168V495.795H892.73V673.357z M999.267,389.258V566.82h-88.781v-88.781h-88.781
						v-88.781H999.267L999.267,389.258z"/>
					<path fill="#523494" d="M893.455,673.848H715.893V496.286h177.562V673.848z M999.992,567.311h-88.781V478.53H822.43v-88.781
						h177.562V567.311z"/>
					<path fill="#523494" d="M894.181,674.34H716.619V496.778h177.562V674.34z M1000.718,390.24v177.562h-88.781v-88.781h-88.781
						V390.24H1000.718L1000.718,390.24z"/>
					<path fill="#523494" d="M894.906,674.831H717.344V497.269h177.562V674.831z M1001.443,568.294h-88.781v-88.781h-88.781v-88.781
						h177.562V568.294z"/>
					<path fill="#523494" d="M895.631,675.322H718.069V497.76h177.562V675.322z M1002.169,568.785h-88.781v-88.781h-88.781v-88.781
						h177.562V568.785z"/>
					<path fill="#523494" d="M896.357,675.814H718.795V498.252h177.562V675.814z M1002.894,391.714v177.562h-88.781v-88.781h-88.781
						v-88.781H1002.894L1002.894,391.714z"/>
					<path fill="#523494" d="M897.082,676.305H719.52V498.743h177.562V676.305z M1003.619,392.206v177.562h-88.781v-88.781h-88.781
						v-88.781H1003.619L1003.619,392.206z"/>
					<path fill="#523494" d="M897.808,676.796H720.246V499.234h177.562V676.796z M1004.345,392.697v177.562h-88.781v-88.781h-88.781
						v-88.781H1004.345L1004.345,392.697z"/>
					<path fill="#523494" d="M898.533,677.288H720.971V499.726h177.562V677.288z M1005.07,570.751h-88.781V481.97h-88.781v-88.781
						h177.562V570.751z"/>
					<path fill="#523494" d="M899.258,677.779H721.696V500.217h177.562V677.779z M1005.796,393.68v177.562h-88.781v-88.781h-88.781
						V393.68H1005.796L1005.796,393.68z"/>
					<path fill="#523494" d="M899.984,678.271H722.422V500.709h177.562V678.271z M1006.521,571.733H917.74v-88.781h-88.781v-88.781
						h177.562V571.733z"/>
					<path fill="#523494" d="M900.709,678.762H723.147V501.2h177.562V678.762z M1007.246,394.663v177.562h-88.781v-88.781h-88.781
						v-88.781H1007.246L1007.246,394.663z"/>
					<path fill="#523494" d="M901.435,679.253H723.873V501.691h177.562V679.253z M1007.972,395.154v177.562h-88.781v-88.781H830.41
						v-88.781H1007.972L1007.972,395.154z"/>
					<path fill="#523494" d="M902.16,679.745H724.598V502.183H902.16V679.745z M1008.697,395.645v177.562h-88.781v-88.781h-88.781
						v-88.781H1008.697L1008.697,395.645z"/>
					<path fill="#523494" d="M902.885,680.236H725.323V502.674h177.562V680.236z M1009.423,573.699h-88.781v-88.781h-88.781v-88.781
						h177.562V573.699z"/>
					<path fill="#523494" d="M903.611,680.727H726.049V503.165h177.562V680.727z M1010.148,574.19h-88.781v-88.781h-88.781v-88.781
						h177.562V574.19z"/>
					<path fill="#523494" d="M904.336,681.219H726.774V503.657h177.562V681.219z M1010.873,574.681h-88.781V485.9h-88.781v-88.781
						h177.562V574.681z"/>
					<path fill="#523494" d="M905.062,681.71H727.5V504.148h177.562V681.71z M1011.599,575.173h-88.781v-88.781h-88.781v-88.781
						h177.562V575.173z"/>
					<path fill="#523494" d="M905.787,682.201H728.225V504.639h177.562V682.201z M1012.324,398.102v177.562h-88.781v-88.781h-88.781
						v-88.781H1012.324L1012.324,398.102z"/>
					<path fill="#523494" d="M906.512,682.693H728.95V505.131h177.562V682.693z M1013.05,576.156h-88.781v-88.781h-88.781v-88.781
						h177.562V576.156z"/>
					<path fill="#523494" d="M907.238,683.184H729.676V505.622h177.562V683.184z M1013.775,399.085v177.562h-88.781v-88.781h-88.781
						v-88.781H1013.775L1013.775,399.085z"/>
					<path fill="#523494" d="M907.963,683.675H730.401V506.113h177.562V683.675z M1014.5,577.138h-88.781v-88.781h-88.781v-88.781
						H1014.5V577.138z"/>
					<path fill="#523494" d="M908.689,684.167H731.127V506.605h177.562V684.167z M1015.226,577.63h-88.781v-88.781h-88.781v-88.781
						h177.562V577.63z"/>
					<path fill="#523494" d="M909.414,684.658H731.852V507.096h177.562V684.658z M1015.951,578.121H927.17V489.34h-88.781v-88.781
						h177.562V578.121z"/>
					<path fill="#523494" d="M910.139,685.15H732.577V507.588h177.562V685.15z M1016.677,578.612h-88.781v-88.781h-88.781V401.05
						h177.562V578.612z"/>
					<path fill="#523494" d="M910.865,685.641H733.303V508.079h177.562V685.641z M1017.402,401.542v177.562h-88.781v-88.781H839.84
						v-88.781H1017.402L1017.402,401.542z"/>
					<path fill="#523494" d="M911.59,686.132H734.028V508.57H911.59V686.132z M1018.127,579.595h-88.781v-88.781h-88.781v-88.781
						h177.562V579.595z"/>
					<path fill="#523494" d="M912.316,686.624H734.753V509.062h177.563V686.624z M1018.853,580.086h-88.781v-88.781h-88.781v-88.781
						h177.562V580.086z"/>
					<path fill="#523494" d="M913.041,687.115H735.479V509.553h177.562V687.115z M1019.578,580.578h-88.781v-88.781h-88.781v-88.781
						h177.562V580.578z"/>
					<path fill="#523494" d="M913.766,687.606H736.204V510.044h177.562V687.606z M1020.304,403.507v177.562h-88.781v-88.781h-88.781
						v-88.781H1020.304L1020.304,403.507z"/>
					<path fill="#523494" d="M914.492,688.098H736.93V510.536h177.562V688.098z M1021.029,581.561h-88.781V492.78h-88.781v-88.781
						h177.562V581.561z"/>
					<path fill="#523494" d="M915.217,688.589H737.655V511.027h177.562V688.589z M1021.754,404.49v177.562h-88.781v-88.781h-88.781
						V404.49H1021.754L1021.754,404.49z"/>
					<path fill="#523494" d="M915.943,689.08H738.381V511.518h177.562V689.08z M1022.48,404.981v177.562h-88.781v-88.781h-88.781
						v-88.781H1022.48L1022.48,404.981z"/>
					<path fill="#523494" d="M916.668,689.572H739.106V512.01h177.562V689.572z M1023.205,405.473v177.562h-88.781v-88.781h-88.781
						v-88.781H1023.205L1023.205,405.473z"/>
					<path fill="#523494" d="M917.393,690.063H739.831V512.501h177.562V690.063z M1023.931,405.964v177.562H935.15v-88.781h-88.781
						v-88.781H1023.931L1023.931,405.964z"/>
					<path fill="#523494" d="M918.119,690.555H740.557V512.993h177.562V690.555z M1024.656,584.017h-88.781v-88.781h-88.781v-88.781
						h177.562V584.017z"/>
					<path fill="#523494" d="M918.844,691.046H741.282V513.484h177.562V691.046z M1025.381,406.947v177.562H936.6v-88.781h-88.781
						v-88.781H1025.381L1025.381,406.947z"/>
					<path fill="#523494" d="M919.57,691.537H742.008V513.975H919.57V691.537z M1026.107,585h-88.781v-88.781h-88.781v-88.781
						h177.562V585z"/>
					<path fill="#523494" d="M920.295,692.029H742.733V514.467h177.562V692.029z M1026.832,407.929v177.562h-88.781V496.71H849.27
						v-88.781H1026.832L1026.832,407.929z"/>
					<path fill="#523494" d="M921.02,692.52H743.458V514.958H921.02V692.52z M1027.558,408.421v177.562h-88.781v-88.781h-88.781
						v-88.781H1027.558L1027.558,408.421z"/>
					<path fill="#523494" d="M921.746,693.011H744.184V515.449h177.562V693.011z M1028.283,586.474h-88.781v-88.781h-88.781v-88.781
						h177.562V586.474z"/>
					<path fill="#523494" d="M922.471,693.503H744.909V515.941h177.562V693.503z M1029.008,586.965h-88.781v-88.781h-88.781v-88.781
						h177.562V586.965z"/>
					<path fill="#523494" d="M923.197,693.994H745.635V516.432h177.562V693.994z M1029.734,587.457h-88.781v-88.781h-88.781v-88.781
						h177.562V587.457z"/>
					<path fill="#523494" d="M923.922,694.485H746.36V516.923h177.562V694.485z M1030.459,410.386v177.562h-88.781v-88.781h-88.781
						v-88.781H1030.459L1030.459,410.386z"/>
					<path fill="#523494" d="M924.647,694.977H747.085V517.415h177.562V694.977z M1031.185,588.44h-88.781v-88.781h-88.781v-88.781
						h177.562V588.44z"/>
					<path fill="#523494" d="M925.373,695.468H747.811V517.906h177.562V695.468z M1031.91,411.369v177.562h-88.781V500.15h-88.781
						v-88.781H1031.91L1031.91,411.369z"/>
					<path fill="#523494" d="M926.098,695.96H748.536V518.398h177.562V695.96z M1032.635,589.422h-88.781v-88.781h-88.781V411.86
						h177.562V589.422z"/>
					<path fill="#523494" d="M926.823,696.451H749.261V518.889h177.562V696.451z M1033.361,412.352v177.562H944.58v-88.781h-88.781
						v-88.781H1033.361L1033.361,412.352z"/>
					<path fill="#523494" d="M927.549,696.942H749.987V519.38h177.562V696.942z M1034.086,590.405h-88.781v-88.781h-88.781v-88.781
						h177.562V590.405z"/>
					<path fill="#523494" d="M928.274,697.434H750.712V519.872h177.562V697.434z M1034.812,590.896h-88.781v-88.781H857.25v-88.781
						h177.562V590.896z"/>
					<path fill="#523494" d="M929,697.925H751.438V520.363H929V697.925z M1035.537,591.388h-88.781v-88.781h-88.781v-88.781h177.562
						V591.388z"/>
					<path fill="#523494" d="M929.725,698.416H752.163V520.854h177.562V698.416z M1036.262,414.317v177.562h-88.781v-88.781H858.7
						v-88.781H1036.262L1036.262,414.317z"/>
					<path fill="#523494" d="M930.45,698.908H752.888V521.346H930.45V698.908z M1036.988,414.808V592.37h-88.781v-88.781h-88.781
						v-88.781H1036.988L1036.988,414.808z"/>
					<path fill="#523494" d="M931.176,699.399H753.614V521.837h177.562V699.399z M1037.713,592.862h-88.781v-88.781h-88.781V415.3
						h177.562V592.862z"/>
					<path fill="#523494" d="M931.901,699.89H754.339V522.328h177.562V699.89z M1038.439,415.791v177.562h-88.781v-88.781h-88.781
						v-88.781H1038.439L1038.439,415.791z"/>
					<path fill="#523494" d="M932.627,700.382H755.065V522.82h177.562V700.382z M1039.164,593.845h-88.781v-88.781h-88.781v-88.781
						h177.562V593.845z"/>
					<path fill="#523494" d="M933.352,700.873H755.79V523.311h177.562V700.873z M1039.889,416.774v177.562h-88.781v-88.781h-88.781
						v-88.781H1039.889L1039.889,416.774z"/>
					<path fill="#523494" d="M934.077,701.364H756.515V523.802h177.562V701.364z M1040.615,594.827h-88.781v-88.781h-88.781v-88.781
						h177.562V594.827z"/>
					<path fill="#523494" d="M934.803,701.856H757.241V524.294h177.562V701.856z M1041.34,417.757v177.562h-88.781v-88.781h-88.781
						v-88.781H1041.34L1041.34,417.757z"/>
					<path fill="#523494" d="M935.528,702.347H757.966V524.785h177.562V702.347z M1042.065,418.248V595.81h-88.781v-88.781h-88.781
						v-88.781H1042.065L1042.065,418.248z"/>
					<path fill="#523494" d="M936.254,702.839H758.692V525.277h177.562V702.839z M1042.791,596.301H954.01V507.52h-88.781v-88.781
						h177.562V596.301z"/>
					<path fill="#523494" d="M936.979,703.33H759.417V525.768h177.562V703.33z M1043.516,596.793h-88.781v-88.781h-88.781v-88.781
						h177.562V596.793z"/>
					<path fill="#523494" d="M937.704,703.821H760.142V526.259h177.562V703.821z M1044.242,597.284h-88.781v-88.781H866.68v-88.781
						h177.562V597.284z"/>
					<path fill="#523494" d="M938.43,704.313H760.868V526.751H938.43V704.313z M1044.967,420.213v177.562h-88.781v-88.781h-88.781
						v-88.781H1044.967L1044.967,420.213z"/>
					<path fill="#523494" d="M939.155,704.804H761.593V527.242h177.562V704.804z M1045.693,598.267h-88.781v-88.781h-88.781v-88.781
						h177.562V598.267z"/>
					<path fill="#523494" d="M939.881,705.295H762.319V527.733h177.562V705.295z M1046.418,421.196v177.562h-88.781v-88.781h-88.781
						v-88.781H1046.418L1046.418,421.196z"/>
					<path fill="#523494" d="M940.606,705.787H763.044V528.225h177.562V705.787z M1047.143,599.249h-88.781v-88.781h-88.781v-88.781
						h177.562V599.249z"/>
					<path fill="#523494" d="M941.331,706.278H763.769V528.716h177.562V706.278z M1047.869,422.179v177.562h-88.781V510.96h-88.781
						v-88.781H1047.869L1047.869,422.179z"/>
					<path fill="#523494" d="M942.057,706.769H764.495V529.207h177.562V706.769z M1048.594,600.232h-88.781v-88.781h-88.781V422.67
						h177.562V600.232z"/>
					<path fill="#523494" d="M942.782,707.261H765.22V529.699h177.562V707.261z M1049.319,423.162v177.562h-88.781v-88.781h-88.781
						v-88.781H1049.319L1049.319,423.162z"/>
					<path fill="#523494" d="M943.508,707.752H765.946V530.19h177.562V707.752z M1050.045,423.653v177.562h-88.781v-88.781h-88.781
						v-88.781H1050.045L1050.045,423.653z"/>
					<path fill="#523494" d="M944.233,708.244H766.671V530.682h177.562V708.244z M1050.77,424.144v177.562h-88.781v-88.781h-88.781
						v-88.781H1050.77L1050.77,424.144z"/>
					<path fill="#523494" d="M944.958,708.735H767.396V531.173h177.562V708.735z M1051.496,424.636v177.562h-88.781v-88.781h-88.781
						v-88.781H1051.496L1051.496,424.636z"/>
					<path fill="#523494" d="M945.684,709.226H768.122V531.664h177.562V709.226z M1052.221,602.689H963.44v-88.781h-88.781v-88.781
						h177.562V602.689z"/>
					<path fill="#523494" d="M946.409,709.718H768.847V532.156h177.562V709.718z M1052.946,425.618V603.18h-88.781v-88.781h-88.781
						v-88.781H1052.946L1052.946,425.618z"/>
					<path fill="#523494" d="M947.135,710.209H769.573V532.647h177.562V710.209z M1053.672,603.672h-88.781v-88.781H876.11V426.11
						h177.562V603.672z"/>
					<path fill="#523494" d="M947.86,710.7H770.298V533.138H947.86V710.7z M1054.397,426.601v177.562h-88.781v-88.781h-88.781
						v-88.781H1054.397L1054.397,426.601z"/>
					<path fill="#523494" d="M948.585,711.192H771.023V533.63h177.562V711.192z M1055.123,604.654h-88.781v-88.781h-88.781v-88.781
						h177.562V604.654z"/>
					<path fill="#523494" d="M949.311,711.683H771.749V534.121h177.562V711.683z M1055.848,427.584v177.562h-88.781v-88.781h-88.781
						v-88.781H1055.848L1055.848,427.584z"/>
					<path fill="#523494" d="M950.036,712.174H772.474V534.612h177.562V712.174z M1056.573,605.637h-88.781v-88.781h-88.781v-88.781
						h177.562V605.637z"/>
					<path fill="#523494" d="M950.762,712.666H773.2V535.104h177.562V712.666z M1057.299,606.129h-88.781v-88.781h-88.781v-88.781
						h177.562V606.129z"/>
					<path fill="#523494" d="M951.487,713.157H773.925V535.595h177.562V713.157z M1058.024,606.62h-88.781v-88.781h-88.781v-88.781
						h177.562V606.62z"/>
					<path fill="#523494" d="M952.212,713.648H774.65V536.086h177.562V713.648z M1058.75,607.111h-88.781V518.33h-88.781v-88.781
						h177.562V607.111z"/>
					<path fill="#523494" d="M952.938,714.14H775.376V536.578h177.562V714.14z M1059.475,430.041v177.562h-88.781v-88.781h-88.781
						v-88.781H1059.475L1059.475,430.041z"/>
					<path fill="#523494" d="M953.663,714.631H776.101V537.069h177.562V714.631z M1060.2,608.094h-88.781v-88.781h-88.781v-88.781
						H1060.2V608.094z"/>
					<path fill="#523494" d="M954.389,715.123H776.827V537.561h177.562V715.123z M1060.926,431.023v177.562h-88.781v-88.781h-88.781
						v-88.781H1060.926L1060.926,431.023z"/>
					<path fill="#523494" d="M955.114,715.614H777.552V538.052h177.562V715.614z M1061.651,609.077H972.87v-88.781h-88.781v-88.781
						h177.562V609.077z"/>
					<path fill="#523494" d="M955.839,716.105H778.277V538.543h177.562V716.105z M1062.377,609.568h-88.781v-88.781h-88.781v-88.781
						h177.562V609.568z"/>
					<path fill="#523494" d="M956.565,716.597H779.003V539.035h177.562V716.597z M1063.102,610.059h-88.781v-88.781H885.54v-88.781
						h177.562V610.059z"/>
					<path fill="#523494" d="M957.29,717.088H779.728V539.526H957.29V717.088z M1063.827,432.989v177.562h-88.781V521.77h-88.781
						v-88.781H1063.827L1063.827,432.989z"/>
					<path fill="#523494" d="M958.016,717.579H780.454V540.017h177.562V717.579z M1064.553,611.042h-88.781v-88.781h-88.781V433.48
						h177.562V611.042z"/>
					<path fill="#523494" d="M958.741,718.071H781.179V540.509h177.562V718.071z M1065.278,611.533h-88.781v-88.781h-88.781v-88.781
						h177.562V611.533z"/>
					<path fill="#523494" d="M959.466,718.562H781.904V541h177.562V718.562z M1066.004,612.025h-88.781v-88.781h-88.781v-88.781
						h177.562V612.025z"/>
					<path fill="#523494" d="M960.192,719.053H782.63V541.491h177.562V719.053z M1066.729,612.516h-88.781v-88.781h-88.781v-88.781
						h177.562V612.516z"/>
					<path fill="#523494" d="M960.917,719.545H783.355V541.983h177.562V719.545z M1067.454,613.008h-88.781v-88.781h-88.781v-88.781
						h177.562V613.008z"/>
					<path fill="#523494" d="M961.643,720.036H784.081V542.474h177.562V720.036z M1068.18,613.499h-88.781v-88.781h-88.781v-88.781
						h177.562V613.499z"/>
					<path fill="#523494" d="M962.368,720.528H784.806V542.966h177.562V720.528z M1068.905,436.428V613.99h-88.781v-88.781h-88.781
						v-88.781H1068.905L1068.905,436.428z"/>
					<path fill="#523494" d="M963.093,721.019H785.531V543.457h177.562V721.019z M1069.631,436.92v177.562H980.85v-88.781h-88.781
						V436.92H1069.631L1069.631,436.92z"/>
					<path fill="#523494" d="M963.819,721.51H786.257V543.948h177.562V721.51z M1070.356,437.411v177.562h-88.781v-88.781h-88.781
						v-88.781H1070.356L1070.356,437.411z"/>
					<path fill="#523494" d="M964.544,722.002H786.982V544.44h177.562V722.002z M1071.081,615.464H982.3v-88.781h-88.781v-88.781
						h177.562V615.464z"/>
					<path fill="#523494" d="M965.27,722.493H787.708V544.931H965.27V722.493z M1071.807,615.956h-88.781v-88.781h-88.781v-88.781
						h177.562V615.956z"/>
					<path fill="#523494" d="M965.995,722.984H788.433V545.422h177.562V722.984z M1072.532,438.885v177.562h-88.781v-88.781H894.97
						v-88.781H1072.532L1072.532,438.885z"/>
					<path fill="#523494" d="M966.72,723.476H789.158V545.914H966.72V723.476z M1073.258,616.938h-88.781v-88.781h-88.781v-88.781
						h177.562V616.938z"/>
					<path fill="#523494" d="M967.446,723.967H789.884V546.405h177.562V723.967z M1073.983,617.43h-88.781v-88.781h-88.781v-88.781
						h177.562V617.43z"/>
					<path fill="#523494" d="M968.171,724.458H790.609V546.896h177.562V724.458z M1074.708,617.921h-88.781V529.14h-88.781v-88.781
						h177.562V617.921z"/>
					<path fill="#523494" d="M968.897,724.95H791.335V547.388h177.562V724.95z M1075.434,440.851v177.562h-88.781v-88.781h-88.781
						v-88.781H1075.434L1075.434,440.851z"/>
					<path fill="#523494" d="M969.622,725.441H792.06V547.879h177.562V725.441z M1076.159,618.904h-88.781v-88.781h-88.781v-88.781
						h177.562V618.904z"/>
					<path fill="#523494" d="M970.347,725.932H792.785V548.37h177.562V725.932z M1076.885,619.395h-88.781v-88.781h-88.781v-88.781
						h177.562V619.395z"/>
					<path fill="#523494" d="M971.073,726.424H793.511V548.862h177.562V726.424z M1077.61,619.887h-88.781v-88.781h-88.781v-88.781
						h177.562V619.887z"/>
					<path fill="#523494" d="M971.798,726.915H794.236V549.353h177.562V726.915z M1078.335,442.816v177.562h-88.781v-88.781h-88.781
						v-88.781H1078.335L1078.335,442.816z"/>
					<path fill="#523494" d="M972.524,727.407H794.962V549.845h177.562V727.407z M1079.061,443.307v177.562H990.28v-88.781h-88.781
						v-88.781H1079.061L1079.061,443.307z"/>
					<path fill="#523494" d="M973.249,727.898H795.687V550.336h177.562V727.898z M1079.786,621.361h-88.781V532.58h-88.781v-88.781
						h177.562V621.361z"/>
					<path fill="#523494" d="M973.974,728.389H796.412V550.827h177.562V728.389z M1080.512,444.29v177.562h-88.781v-88.781H902.95
						V444.29H1080.512L1080.512,444.29z"/>
					<path fill="#523494" d="M974.7,728.881H797.138V551.319H974.7V728.881z M1081.237,622.343h-88.781v-88.781h-88.781v-88.781
						h177.562V622.343z"/>
					<path fill="#523494" d="M975.425,729.372H797.863V551.81h177.562V729.372z M1081.962,445.273v177.562h-88.781v-88.781H904.4
						v-88.781H1081.962L1081.962,445.273z"/>
					<path fill="#523494" d="M976.151,729.863H798.589V552.301h177.562V729.863z M1082.688,623.326h-88.781v-88.781h-88.781v-88.781
						h177.562V623.326z"/>
					<path fill="#523494" d="M976.876,730.355H799.314V552.793h177.562V730.355z M1083.413,623.818h-88.781v-88.781h-88.781v-88.781
						h177.562V623.818z"/>
					<path fill="#523494" d="M977.601,730.846H800.039V553.284h177.562V730.846z M1084.139,446.747v177.562h-88.781v-88.781h-88.781
						v-88.781H1084.139L1084.139,446.747z"/>
					<path fill="#523494" d="M978.327,731.337H800.765V553.775h177.562V731.337z M1084.864,624.8h-88.781v-88.781h-88.781v-88.781
						h177.562V624.8z"/>
					<path fill="#523494" d="M979.052,731.829H801.49V554.267h177.562V731.829z M1085.589,625.292h-88.781v-88.781h-88.781V447.73
						h177.562V625.292z"/>
					<path fill="#523494" d="M979.778,732.32H802.216V554.758h177.562V732.32z M1086.315,625.783h-88.781v-88.781h-88.781v-88.781
						h177.562V625.783z"/>
					<path fill="#523494" d="M980.503,732.812H802.941V555.25h177.562V732.812z M1087.04,448.712v177.562h-88.781v-88.781h-88.781
						v-88.781H1087.04L1087.04,448.712z"/>
					<path fill="#523494" d="M981.228,733.303H803.666V555.741h177.562V733.303z M1087.765,449.204v177.562h-88.781v-88.781h-88.781
						v-88.781H1087.765L1087.765,449.204z"/>
					<path fill="#523494" d="M981.954,733.794H804.392V556.232h177.562V733.794z M1088.491,449.695v177.562H999.71v-88.781h-88.781
						v-88.781H1088.491L1088.491,449.695z"/>
					<path fill="#523494" d="M982.679,734.286H805.117V556.724h177.562V734.286z M1089.216,627.748h-88.781v-88.781h-88.781v-88.781
						h177.562V627.748z"/>
					<path fill="#523494" d="M983.405,734.777H805.843V557.215h177.562V734.777z M1089.942,450.678V628.24h-88.781v-88.781H912.38
						v-88.781H1089.942L1089.942,450.678z"/>
					<path fill="#523494" d="M984.13,735.268H806.568V557.706H984.13V735.268z M1090.667,628.731h-88.781V539.95h-88.781v-88.781
						h177.562V628.731z"/>
					<path fill="#523494" d="M984.855,735.76H807.293V558.198h177.562V735.76z M1091.393,629.222h-88.781v-88.781h-88.781V451.66
						h177.562V629.222z"/>
					<path fill="#523494" d="M985.581,736.251H808.019V558.689h177.562V736.251z M1092.118,452.152v177.562h-88.781v-88.781h-88.781
						v-88.781H1092.118L1092.118,452.152z"/>
					<path fill="#523494" d="M986.306,736.742H808.744V559.18h177.562V736.742z M1092.843,630.205h-88.781v-88.781h-88.781v-88.781
						h177.562V630.205z"/>
					<path fill="#523494" d="M987.031,737.234H809.469V559.672h177.562V737.234z M1093.569,453.135v177.562h-88.781v-88.781h-88.781
						v-88.781H1093.569L1093.569,453.135z"/>
					<path fill="#523494" d="M987.757,737.725H810.195V560.163h177.562V737.725z M1094.294,631.188h-88.781v-88.781h-88.781v-88.781
						h177.562V631.188z"/>
					<path fill="#523494" d="M988.482,738.217H810.92V560.655h177.562V738.217z M1095.02,454.117v177.562h-88.781v-88.781h-88.781
						v-88.781H1095.02L1095.02,454.117z"/>
					<path fill="#523494" d="M989.208,738.708H811.646V561.146h177.562V738.708z M1095.745,632.171h-88.781V543.39h-88.781v-88.781
						h177.562V632.171z"/>
					<path fill="#523494" d="M989.933,739.199H812.371V561.637h177.562V739.199z M1096.47,455.1v177.562h-88.781v-88.781h-88.781
						V455.1H1096.47L1096.47,455.1z"/>
					<path fill="#523494" d="M990.659,739.691H813.097V562.129h177.562V739.691z M1097.196,455.591v177.562h-88.781v-88.781h-88.781
						v-88.781H1097.196L1097.196,455.591z"/>
					<path fill="#523494" d="M991.384,740.182H813.822V562.62h177.562V740.182z M1097.921,456.083v177.562h-88.781v-88.781h-88.781
						v-88.781H1097.921L1097.921,456.083z"/>
					<path fill="#523494" d="M992.109,740.673H814.547V563.111h177.562V740.673z M1098.647,456.574v177.562h-88.781v-88.781h-88.781
						v-88.781H1098.647L1098.647,456.574z"/>
					<path fill="#523494" d="M992.835,741.165H815.273V563.603h177.562V741.165z M1099.372,634.627h-88.781v-88.781H921.81v-88.781
						h177.562V634.627z"/>
					<path fill="#523494" d="M993.56,741.656H815.998V564.094H993.56V741.656z M1100.097,457.557v177.562h-88.781v-88.781h-88.781
						v-88.781H1100.097L1100.097,457.557z"/>
					<path fill="#523494" d="M994.285,742.147H816.723V564.585h177.562V742.147z M1100.823,635.61h-88.781v-88.781h-88.781v-88.781
						h177.562V635.61z"/>
					<path fill="#523494" d="M995.011,742.639H817.449V565.077h177.562V742.639z M1101.548,458.54v177.562h-88.781v-88.781h-88.781
						V458.54H1101.548L1101.548,458.54z"/>
					<path fill="#523494" d="M995.736,743.13H818.174V565.568h177.562V743.13z M1102.274,636.593h-88.781v-88.781h-88.781v-88.781
						h177.562V636.593z"/>
					<path fill="#523494" d="M996.462,743.622H818.9V566.06h177.562V743.622z M1102.999,459.522v177.562h-88.781v-88.781h-88.781
						v-88.781H1102.999L1102.999,459.522z"/>
					<path fill="#523494" d="M997.187,744.113H819.625V566.551h177.562V744.113z M1103.724,637.576h-88.781v-88.781h-88.781v-88.781
						h177.562V637.576z"/>
					<path fill="#523494" d="M997.912,744.604H820.35V567.042h177.562V744.604z M1104.45,638.067h-88.781v-88.781h-88.781v-88.781
						h177.562V638.067z"/>
					<path fill="#523494" d="M998.638,745.096H821.076V567.534h177.562V745.096z M1105.175,638.558h-88.781v-88.781h-88.781v-88.781
						h177.562V638.558z"/>
					<path fill="#523494" d="M999.363,745.587H821.801V568.025h177.562V745.587z M1105.901,639.05h-88.781v-88.781h-88.781v-88.781
						h177.562V639.05z"/>
					<path fill="#523494" d="M1000.089,746.078H822.527V568.516h177.562V746.078z M1106.626,461.979v177.562h-88.781V550.76h-88.781
						v-88.781H1106.626L1106.626,461.979z"/>
					<path fill="#523494" d="M1000.814,746.57H823.252V569.008h177.562V746.57z M1107.351,640.032h-88.781v-88.781h-88.781V462.47
						h177.562V640.032z"/>
					<path fill="#523494" d="M1001.539,747.061H823.977V569.499h177.562V747.061z M1108.077,462.962v177.562h-88.781v-88.781
						h-88.781v-88.781H1108.077L1108.077,462.962z"/>
					<path fill="#523494" d="M1002.265,747.552H824.703V569.99h177.562V747.552z M1108.802,641.015h-88.781v-88.781H931.24v-88.781
						h177.562V641.015z"/>
					<path fill="#523494" d="M1002.99,748.044H825.428V570.482h177.562V748.044z M1109.527,463.944v177.562h-88.781v-88.781h-88.781
						v-88.781H1109.527L1109.527,463.944z"/>
					<path fill="#523494" d="M1003.716,748.535H826.154V570.973h177.562V748.535z M1110.253,641.998h-88.781v-88.781h-88.781
						v-88.781h177.562V641.998z"/>
					<path fill="#523494" d="M1004.441,749.026H826.879V571.464h177.562V749.026z M1110.978,464.927v177.562h-88.781v-88.781
						h-88.781v-88.781H1110.978L1110.978,464.927z"/>
					<path fill="#523494" d="M1005.166,749.518H827.604V571.956h177.562V749.518z M1111.704,642.981h-88.781V554.2h-88.781v-88.781
						h177.562V642.981z"/>
					<path fill="#523494" d="M1005.892,750.009H828.33V572.447h177.562V750.009z M1112.429,465.91v177.562h-88.781v-88.781h-88.781
						V465.91H1112.429L1112.429,465.91z"/>
					<path fill="#523494" d="M1006.617,750.501H829.055V572.939h177.562V750.501z M1113.154,643.963h-88.781v-88.781h-88.781
						v-88.781h177.562V643.963z"/>
					<path fill="#523494" d="M1007.343,750.992H829.781V573.43h177.562V750.992z M1113.88,644.455h-88.781v-88.781h-88.781v-88.781
						h177.562V644.455z"/>
					<path fill="#523494" d="M1008.068,751.483H830.506V573.921h177.562V751.483z M1114.605,467.384v177.562h-88.781v-88.781
						h-88.781v-88.781H1114.605L1114.605,467.384z"/>
					<path fill="#523494" d="M1008.793,751.975H831.231V574.413h177.562V751.975z M1115.331,645.437h-88.781v-88.781h-88.781
						v-88.781h177.562V645.437z"/>
					<path fill="#523494" d="M1009.519,752.466H831.957V574.904h177.562V752.466z M1116.056,468.367v177.562h-88.781v-88.781
						h-88.781v-88.781H1116.056L1116.056,468.367z"/>
					<path fill="#523494" d="M1010.244,752.957H832.682V575.395h177.562V752.957z M1116.781,646.42H1028v-88.781h-88.781v-88.781
						h177.562V646.42z"/>
					<path fill="#523494" d="M1010.97,753.449H833.408V575.887h177.562V753.449z M1117.507,469.349v177.562h-88.781V558.13h-88.781
						v-88.781H1117.507L1117.507,469.349z"/>
					<path fill="#523494" d="M1011.695,753.94H834.133V576.378h177.562V753.94z M1118.232,647.403h-88.781v-88.781H940.67v-88.781
						h177.562V647.403z"/>
					<path fill="#523494" d="M1012.42,754.431H834.858V576.869h177.562V754.431z M1118.958,647.894h-88.781v-88.781h-88.781v-88.781
						h177.562V647.894z"/>
					<path fill="#523494" d="M1013.146,754.923H835.584V577.361h177.562V754.923z M1119.683,648.386h-88.781v-88.781h-88.781
						v-88.781h177.562V648.386z"/>
					<path fill="#523494" d="M1013.871,755.414H836.309V577.852h177.562V755.414z M1120.408,471.315v177.562h-88.781v-88.781
						h-88.781v-88.781H1120.408L1120.408,471.315z"/>
					<path fill="#523494" d="M1014.597,755.906H837.035V578.344h177.562V755.906z M1121.134,649.368h-88.781v-88.781h-88.781
						v-88.781h177.562V649.368z"/>
					<path fill="#523494" d="M1015.322,756.397H837.76V578.835h177.562V756.397z M1121.859,649.86h-88.781v-88.781h-88.781v-88.781
						h177.562V649.86z"/>
					<path fill="#523494" d="M1016.047,756.888H838.485V579.326h177.562V756.888z M1122.585,472.789v177.562h-88.781V561.57h-88.781
						v-88.781H1122.585L1122.585,472.789z"/>
					<path fill="#523494" d="M1016.773,757.38H839.211V579.818h177.562V757.38z M1123.31,650.842h-88.781v-88.781h-88.781V473.28
						h177.562V650.842z"/>
					<path fill="#523494" d="M1017.498,757.871H839.936V580.309h177.562V757.871z M1124.035,473.772v177.562h-88.781v-88.781
						h-88.781v-88.781H1124.035L1124.035,473.772z"/>
					<path fill="#523494" d="M1018.224,758.362H840.662V580.8h177.562V758.362z M1124.761,651.825h-88.781v-88.781h-88.781v-88.781
						h177.562V651.825z"/>
					<path fill="#523494" d="M1018.949,758.854H841.387V581.292h177.562V758.854z M1125.486,474.754v177.562h-88.781v-88.781
						h-88.781v-88.781H1125.486L1125.486,474.754z"/>
					<path fill="#523494" d="M1019.674,759.345H842.112V581.783h177.562V759.345z M1126.212,475.246v177.562h-88.781v-88.781H948.65
						v-88.781H1126.212L1126.212,475.246z"/>
					<path fill="#523494" d="M1020.4,759.836H842.838V582.274H1020.4V759.836z M1126.937,653.299h-88.781v-88.781h-88.781v-88.781
						h177.562V653.299z"/>
					<path fill="#523494" d="M1021.125,760.328H843.563V582.766h177.562V760.328z M1127.662,653.791h-88.781V565.01H950.1v-88.781
						h177.562V653.791z"/>
					<path fill="#523494" d="M1021.851,760.819H844.289V583.257h177.562V760.819z M1128.388,654.282h-88.781v-88.781h-88.781V476.72
						h177.562V654.282z"/>
					<path fill="#523494" d="M1022.576,761.31H845.014V583.748h177.562V761.31z M1129.113,654.773h-88.781v-88.781h-88.781v-88.781
						h177.562V654.773z"/>
					<path fill="#523494" d="M1023.301,761.802H845.739V584.24h177.562V761.802z M1129.839,655.265h-88.781v-88.781h-88.781v-88.781
						h177.562V655.265z"/>
					<path fill="#523494" d="M1024.027,762.293H846.465V584.731h177.562V762.293z M1130.564,655.756h-88.781v-88.781h-88.781
						v-88.781h177.562V655.756z"/>
					<path fill="#523494" d="M1024.752,762.785H847.19V585.223h177.562V762.785z M1131.289,656.247h-88.781v-88.781h-88.781v-88.781
						h177.562V656.247z"/>
					<path fill="#523494" d="M1025.478,763.276H847.916V585.714h177.562V763.276z M1132.015,656.739h-88.781v-88.781h-88.781
						v-88.781h177.562V656.739z"/>
					<path fill="#523494" d="M1026.203,763.767H848.641V586.205h177.562V763.767z M1132.74,657.23h-88.781v-88.781h-88.781v-88.781
						h177.562V657.23z"/>
					<path fill="#523494" d="M1026.928,764.259H849.366V586.697h177.562V764.259z M1133.466,657.721h-88.781V568.94h-88.781v-88.781
						h177.562V657.721z"/>
					<path fill="#523494" d="M1027.654,764.75H850.092V587.188h177.562V764.75z M1134.191,480.651v177.562h-88.781v-88.781h-88.781
						v-88.781H1134.191L1134.191,480.651z"/>
					<path fill="#523494" d="M1028.379,765.241H850.817V587.679h177.562V765.241z M1134.916,658.704h-88.781v-88.781h-88.781
						v-88.781h177.562V658.704z"/>
					<path fill="#523494" d="M1029.105,765.733H851.543V588.171h177.562V765.733z M1135.642,481.633v177.562h-88.781v-88.781H958.08
						v-88.781H1135.642L1135.642,481.633z"/>
					<path fill="#523494" d="M1029.83,766.224H852.268V588.662h177.562V766.224z M1136.367,659.687h-88.781v-88.781h-88.781v-88.781
						h177.562V659.687z"/>
					<path fill="#523494" d="M1030.555,766.715H852.993V589.153h177.562V766.715z M1137.093,660.178h-88.781v-88.781h-88.781
						v-88.781h177.562V660.178z"/>
					<path fill="#523494" d="M1031.281,767.207H853.719V589.645h177.562V767.207z M1137.818,660.67h-88.781v-88.781h-88.781v-88.781
						h177.562V660.67z"/>
					<path fill="#523494" d="M1032.006,767.698H854.444V590.136h177.562V767.698z M1138.543,661.161h-88.781V572.38h-88.781v-88.781
						h177.562V661.161z"/>
					<path fill="#523494" d="M1032.732,768.19H855.17V590.628h177.562V768.19z M1139.269,484.09v177.562h-88.781v-88.781h-88.781
						V484.09H1139.269L1139.269,484.09z"/>
					<path fill="#523494" d="M1033.457,768.681H855.895V591.119h177.562V768.681z M1139.994,484.582v177.562h-88.781v-88.781
						h-88.781v-88.781H1139.994L1139.994,484.582z"/>
					<path fill="#523494" d="M1034.182,769.172H856.62V591.61h177.562V769.172z M1140.72,485.073v177.562h-88.781v-88.781h-88.781
						v-88.781H1140.72L1140.72,485.073z"/>
					<path fill="#523494" d="M1034.908,769.664H857.346V592.102h177.562V769.664z M1141.445,663.126h-88.781v-88.781h-88.781
						v-88.781h177.562V663.126z"/>
					<path fill="#523494" d="M1035.633,770.155H858.071V592.593h177.562V770.155z M1142.17,486.056v177.562h-88.781v-88.781h-88.781
						v-88.781H1142.17L1142.17,486.056z"/>
					<path fill="#523494" d="M1036.359,770.646H858.797V593.084h177.562V770.646z M1142.896,664.109h-88.781v-88.781h-88.781
						v-88.781h177.562V664.109z"/>
					<path fill="#523494" d="M1037.084,771.138H859.522V593.576h177.562V771.138z M1143.621,487.038V664.6h-88.781v-88.781h-88.781
						v-88.781H1143.621L1143.621,487.038z"/>
					<path fill="#523494" d="M1037.809,771.629H860.247V594.067h177.562V771.629z M1144.347,487.53v177.562h-88.781v-88.781h-88.781
						V487.53H1144.347L1144.347,487.53z"/>
					<path fill="#523494" d="M1038.535,772.12H860.973V594.558h177.562V772.12z M1145.072,488.021v177.562h-88.781v-88.781H967.51
						v-88.781H1145.072L1145.072,488.021z"/>
					<path fill="#523494" d="M1039.26,772.612H861.698V595.05h177.562V772.612z M1145.797,666.075h-88.781v-88.781h-88.781v-88.781
						h177.562V666.075z"/>
					<path fill="#523494" d="M1039.986,773.103H862.423V595.541h177.563V773.103z M1146.523,666.566h-88.781v-88.781h-88.781
						v-88.781h177.562V666.566z"/>
					<path fill="#523494" d="M1040.711,773.594H863.149V596.032h177.562V773.594z M1147.248,667.057h-88.781v-88.781h-88.781
						v-88.781h177.562V667.057z"/>
					<path fill="#523494" d="M1041.436,774.086H863.874V596.524h177.562V774.086z M1147.974,667.549h-88.781v-88.781h-88.781
						v-88.781h177.562V667.549z"/>
					<path fill="#523494" d="M1042.162,774.577H864.6V597.015h177.562V774.577z M1148.699,490.478V668.04h-88.781v-88.781h-88.781
						v-88.781H1148.699L1148.699,490.478z"/>
					<path fill="#523494" d="M1042.887,775.069H865.325V597.507h177.562V775.069z M1149.424,668.531h-88.781V579.75h-88.781v-88.781
						h177.562V668.531z"/>
					<path fill="#523494" d="M1043.613,775.56H866.051V597.998h177.562V775.56z M1150.15,491.461v177.562h-88.781v-88.781h-88.781
						v-88.781H1150.15L1150.15,491.461z"/>
					<path fill="#523494" d="M1044.338,776.051H866.776V598.489h177.562V776.051z M1150.875,669.514h-88.781v-88.781h-88.781
						v-88.781h177.562V669.514z"/>
					<path fill="#523494" d="M1045.063,776.543H867.501V598.981h177.562V776.543z M1151.601,670.005h-88.781v-88.781h-88.781
						v-88.781h177.562V670.005z"/>
					<path fill="#523494" d="M1045.789,777.034H868.227V599.472h177.562V777.034z M1152.326,670.497h-88.781v-88.781h-88.781
						v-88.781h177.562V670.497z"/>
					<path fill="#523494" d="M1046.514,777.525H868.952V599.963h177.562V777.525z M1153.051,493.426v177.562h-88.781v-88.781
						h-88.781v-88.781H1153.051L1153.051,493.426z"/>
					<path fill="#523494" d="M1047.24,778.017H869.678V600.455h177.562V778.017z M1153.777,493.918V671.48h-88.781v-88.781h-88.781
						v-88.781H1153.777L1153.777,493.918z"/>
					<path fill="#523494" d="M1047.965,778.508H870.403V600.946h177.562V778.508z M1154.502,671.971h-88.781V583.19H976.94v-88.781
						h177.562V671.971z"/>
					<path fill="#523494" d="M1048.69,779H871.128V601.437h177.562V779z M1155.228,494.9v177.562h-88.781v-88.781h-88.781V494.9
						H1155.228L1155.228,494.9z"/>
					<path fill="#523494" d="M1049.416,779.491H871.854V601.929h177.562V779.491z M1155.953,672.954h-88.781v-88.781h-88.781
						v-88.781h177.562V672.954z"/>
					<path fill="#523494" d="M1050.141,779.982H872.579V602.42h177.562V779.982z M1156.678,495.883v177.562h-88.781v-88.781h-88.781
						v-88.781H1156.678L1156.678,495.883z"/>
					<path fill="#523494" d="M1050.867,780.474H873.305V602.912h177.562V780.474z M1157.404,673.936h-88.781v-88.781h-88.781
						v-88.781h177.562V673.936z"/>
					<path fill="#523494" d="M1051.592,780.965H874.03V603.403h177.562V780.965z M1158.129,496.866v177.562h-88.781v-88.781h-88.781
						v-88.781H1158.129L1158.129,496.866z"/>
					<path fill="#523494" d="M1052.317,781.456H874.755V603.894h177.562V781.456z M1158.855,497.357v177.562h-88.781v-88.781
						h-88.781v-88.781H1158.855L1158.855,497.357z"/>
					<path fill="#523494" d="M1053.043,781.948H875.481V604.386h177.562V781.948z M1159.58,497.848V675.41h-88.781v-88.781h-88.781
						v-88.781H1159.58L1159.58,497.848z"/>
					<path fill="#523494" d="M1053.768,782.439H876.206V604.877h177.562V782.439z M1160.305,498.34v177.562h-88.781v-88.781h-88.781
						V498.34H1160.305L1160.305,498.34z"/>
					<path fill="#523494" d="M1054.493,782.93H876.931V605.368h177.562V782.93z M1161.031,676.393h-88.781v-88.781h-88.781v-88.781
						h177.562V676.393z"/>
					<path fill="#523494" d="M1055.219,783.422H877.657V605.86h177.562V783.422z M1161.756,499.322v177.562h-88.781v-88.781h-88.781
						v-88.781H1161.756L1161.756,499.322z"/>
					<path fill="#523494" d="M1055.944,783.913H878.382V606.351h177.562V783.913z M1162.482,677.376h-88.781v-88.781H984.92v-88.781
						h177.562V677.376z"/>
					<path fill="#523494" d="M1056.67,784.404H879.108V606.842h177.562V784.404z M1163.207,500.305v177.562h-88.781v-88.781h-88.781
						v-88.781H1163.207L1163.207,500.305z"/>
					<path fill="#523494" d="M1057.395,784.896H879.833V607.334h177.562V784.896z M1163.932,678.359h-88.781v-88.781H986.37v-88.781
						h177.562V678.359z"/>
					<path fill="#523494" d="M1058.12,785.387H880.558V607.825h177.562V785.387z M1164.658,501.288V678.85h-88.781v-88.781h-88.781
						v-88.781H1164.658L1164.658,501.288z"/>
					<path fill="#523494" d="M1058.846,785.879H881.284V608.317h177.562V785.879z M1165.383,679.341h-88.781V590.56h-88.781v-88.781
						h177.562V679.341z"/>
					<path fill="#523494" d="M1059.571,786.37H882.009V608.808h177.562V786.37z M1166.109,679.833h-88.781v-88.781h-88.781v-88.781
						h177.562V679.833z"/>
					<path fill="#523494" d="M1060.297,786.861H882.735V609.299h177.562V786.861z M1166.834,680.324h-88.781v-88.781h-88.781
						v-88.781h177.562V680.324z"/>
					<path fill="#523494" d="M1061.022,787.353H883.46V609.791h177.562V787.353z M1167.559,503.253v177.562h-88.781v-88.781h-88.781
						v-88.781H1167.559L1167.559,503.253z"/>
					<path fill="#523494" d="M1061.747,787.844H884.185V610.282h177.562V787.844z M1168.285,681.307h-88.781v-88.781h-88.781
						v-88.781h177.562V681.307z"/>
					<path fill="#523494" d="M1062.473,788.335H884.911V610.773h177.562V788.335z M1169.01,681.798h-88.781v-88.781h-88.781v-88.781
						h177.562V681.798z"/>
					<path fill="#523494" d="M1063.198,788.827H885.636V611.265h177.562V788.827z M1169.735,504.727v177.562h-88.781v-88.781
						h-88.781v-88.781H1169.735L1169.735,504.727z"/>
					<path fill="#523494" d="M1063.924,789.318H886.362V611.756h177.562V789.318z M1170.461,682.781h-88.781V594h-88.781v-88.781
						h177.562V682.781z"/>
					<path fill="#523494" d="M1064.649,789.809H887.087V612.247h177.562V789.809z M1171.186,505.71v177.562h-88.781v-88.781h-88.781
						V505.71H1171.186L1171.186,505.71z"/>
					<path fill="#523494" d="M1065.374,790.301H887.812V612.739h177.562V790.301z M1171.912,683.764h-88.781v-88.781H994.35v-88.781
						h177.562V683.764z"/>
					<path fill="#523494" d="M1066.1,790.792H888.538V613.23H1066.1V790.792z M1172.637,506.693v177.562h-88.781v-88.781h-88.781
						v-88.781H1172.637L1172.637,506.693z"/>
					<path fill="#523494" d="M1066.825,791.283H889.263V613.721h177.562V791.283z M1173.362,684.746h-88.781v-88.781H995.8v-88.781
						h177.562V684.746z"/>
					<path fill="#523494" d="M1067.551,791.775H889.989V614.213h177.562V791.775z M1174.088,685.238h-88.781v-88.781h-88.781
						v-88.781h177.562V685.238z"/>
					<path fill="#523494" d="M1068.276,792.266H890.714V614.704h177.562V792.266z M1174.813,685.729h-88.781v-88.781h-88.781
						v-88.781h177.562V685.729z"/>
					<path fill="#523494" d="M1069.001,792.758H891.439V615.196h177.562V792.758z M1175.539,686.22h-88.781v-88.781h-88.781v-88.781
						h177.562V686.22z"/>
					<path fill="#523494" d="M1069.727,793.249H892.165V615.687h177.562V793.249z M1176.264,686.712h-88.781v-88.781h-88.781V509.15
						h177.562V686.712z"/>
					<path fill="#523494" d="M1070.452,793.74H892.89V616.178h177.562V793.74z M1176.989,687.203h-88.781v-88.781h-88.781v-88.781
						h177.562V687.203z"/>
					<path fill="#523494" d="M1071.178,794.232H893.616V616.67h177.562V794.232z M1177.715,510.132v177.562h-88.781v-88.781h-88.781
						v-88.781H1177.715L1177.715,510.132z"/>
					<path fill="#523494" d="M1071.903,794.723H894.341V617.161h177.562V794.723z M1178.44,688.186h-88.781v-88.781h-88.781v-88.781
						h177.562V688.186z"/>
					<path fill="#523494" d="M1072.628,795.214H895.066V617.652h177.562V795.214z M1179.166,688.677h-88.781v-88.781h-88.781
						v-88.781h177.562V688.677z"/>
					<path fill="#523494" d="M1073.354,795.706H895.792V618.144h177.562V795.706z M1179.891,689.168h-88.781v-88.781h-88.781
						v-88.781h177.562V689.168z"/>
					<path fill="#523494" d="M1074.079,796.197H896.517V618.635h177.562V796.197z M1180.616,512.098V689.66h-88.781v-88.781h-88.781
						v-88.781H1180.616L1180.616,512.098z"/>
					<path fill="#523494" d="M1074.805,796.688H897.243V619.126h177.562V796.688z M1181.342,512.589v177.562h-88.781V601.37h-88.781
						v-88.781H1181.342L1181.342,512.589z"/>
					<path fill="#523494" d="M1075.53,797.18H897.968V619.618h177.562V797.18z M1182.067,513.081v177.562h-88.781v-88.781h-88.781
						v-88.781H1182.067L1182.067,513.081z"/>
					<path fill="#523494" d="M1076.255,797.671H898.693V620.109h177.562V797.671z M1182.793,691.134h-88.781v-88.781h-88.781
						v-88.781h177.562V691.134z"/>
					<path fill="#523494" d="M1076.981,798.163H899.419V620.601h177.562V798.163z M1183.518,691.625h-88.781v-88.781h-88.781
						v-88.781h177.562V691.625z"/>
					<path fill="#523494" d="M1077.706,798.654H900.144V621.092h177.562V798.654z M1184.243,692.117h-88.781v-88.781h-88.781
						v-88.781h177.562V692.117z"/>
					<path fill="#523494" d="M1078.432,799.145H900.87V621.583h177.562V799.145z M1184.969,692.608h-88.781v-88.781h-88.781v-88.781
						h177.562V692.608z"/>
					<path fill="#523494" d="M1079.157,799.637H901.595V622.075h177.562V799.637z M1185.694,693.099h-88.781v-88.781h-88.781
						v-88.781h177.562V693.099z"/>
					<path fill="#523494" d="M1079.882,800.128H902.32V622.566h177.562V800.128z M1186.42,516.029v177.562h-88.781V604.81h-88.781
						v-88.781H1186.42L1186.42,516.029z"/>
					<path fill="#523494" d="M1080.608,800.619H903.046V623.057h177.562V800.619z M1187.145,516.52v177.562h-88.781v-88.781h-88.781
						V516.52H1187.145L1187.145,516.52z"/>
					<path fill="#523494" d="M1081.333,801.111H903.771V623.549h177.562V801.111z M1187.87,694.573h-88.781v-88.781h-88.781v-88.781
						h177.562V694.573z"/>
					<path fill="#523494" d="M1082.059,801.602H904.497V624.04h177.562V801.602z M1188.596,695.065h-88.781v-88.781h-88.781v-88.781
						h177.562V695.065z"/>
					<path fill="#523494" d="M1082.784,802.093H905.222V624.531h177.562V802.093z M1189.321,517.994v177.562h-88.781v-88.781
						h-88.781v-88.781H1189.321L1189.321,517.994z"/>
					<path fill="#523494" d="M1083.509,802.585H905.947V625.023h177.562V802.585z M1190.047,696.048h-88.781v-88.781h-88.781
						v-88.781h177.562V696.048z"/>
					<path fill="#523494" d="M1084.235,803.076H906.673V625.514h177.562V803.076z M1190.772,518.977v177.562h-88.781v-88.781
						h-88.781v-88.781H1190.772L1190.772,518.977z"/>
					<path fill="#523494" d="M1084.96,803.567H907.398V626.005h177.562V803.567z M1191.497,697.03h-88.781v-88.781h-88.781v-88.781
						h177.562V697.03z"/>
					<path fill="#523494" d="M1085.686,804.059H908.124V626.497h177.562V804.059z M1192.223,697.522h-88.781v-88.781h-88.781V519.96
						h177.562V697.522z"/>
					<path fill="#523494" d="M1086.411,804.55H908.849V626.988h177.562V804.55z M1192.948,698.013h-88.781v-88.781h-88.781v-88.781
						h177.562V698.013z"/>
					<path fill="#523494" d="M1087.136,805.042H909.574V627.48h177.562V805.042z M1193.674,698.504h-88.781v-88.781h-88.781v-88.781
						h177.562V698.504z"/>
					<path fill="#523494" d="M1087.862,805.533H910.3V627.971h177.562V805.533z M1194.399,698.996h-88.781v-88.781h-88.781v-88.781
						h177.562V698.996z"/>
					<path fill="#523494" d="M1088.587,806.024H911.025V628.462h177.562V806.024z M1195.124,699.487h-88.781v-88.781h-88.781
						v-88.781h177.562V699.487z"/>
					<path fill="#523494" d="M1089.313,806.516H911.751V628.954h177.562V806.516z M1195.85,522.416v177.562h-88.781v-88.781h-88.781
						v-88.781H1195.85L1195.85,522.416z"/>
					<path fill="#523494" d="M1090.038,807.007H912.476V629.445h177.562V807.007z M1196.575,700.47h-88.781v-88.781h-88.781v-88.781
						h177.562V700.47z"/>
					<path fill="#523494" d="M1090.763,807.498H913.201V629.936h177.562V807.498z M1197.301,523.399v177.562h-88.781V612.18h-88.781
						v-88.781H1197.301L1197.301,523.399z"/>
					<path fill="#523494" d="M1091.489,807.99H913.927V630.428h177.562V807.99z M1198.026,701.453h-88.781v-88.781h-88.781v-88.781
						h177.562V701.453z"/>
					<path fill="#523494" d="M1092.214,808.481H914.652V630.919h177.562V808.481z M1198.751,524.382v177.562h-88.781v-88.781
						h-88.781v-88.781H1198.751L1198.751,524.382z"/>
					<path fill="#523494" d="M1092.94,808.972H915.378V631.41h177.562V808.972z M1199.477,702.435h-88.781v-88.781h-88.781v-88.781
						h177.562V702.435z"/>
					<path fill="#523494" d="M1093.665,809.464H916.103V631.902h177.562V809.464z M1200.202,525.365v177.562h-88.781v-88.781
						h-88.781v-88.781H1200.202L1200.202,525.365z"/>
					<path fill="#523494" d="M1094.39,809.955H916.828V632.393h177.562V809.955z M1200.928,525.856v177.562h-88.781v-88.781h-88.781
						v-88.781H1200.928L1200.928,525.856z"/>
					<path fill="#523494" d="M1095.116,810.447H917.554V632.885h177.562V810.447z M1201.653,703.909h-88.781v-88.781h-88.781
						v-88.781h177.562V703.909z"/>
					<path fill="#523494" d="M1095.841,810.938H918.279V633.376h177.562V810.938z M1202.378,704.401h-88.781V615.62h-88.781v-88.781
						h177.562V704.401z"/>
					<path fill="#523494" d="M1096.567,811.429H919.005V633.867h177.562V811.429z M1203.104,704.892h-88.781v-88.781h-88.781V527.33
						h177.562V704.892z"/>
					<path fill="#523494" d="M1097.292,811.921H919.73V634.359h177.562V811.921z M1203.829,527.821v177.562h-88.781v-88.781h-88.781
						v-88.781H1203.829L1203.829,527.821z"/>
					<path fill="#523494" d="M1098.017,812.412H920.455V634.85h177.562V812.412z M1204.555,528.313v177.562h-88.781v-88.781h-88.781
						v-88.781H1204.555L1204.555,528.313z"/>
					<path fill="#523494" d="M1098.743,812.903H921.181V635.341h177.562V812.903z M1205.28,528.804v177.562h-88.781v-88.781h-88.781
						v-88.781H1205.28L1205.28,528.804z"/>
					<path fill="#523494" d="M1099.468,813.395H921.906V635.833h177.562V813.395z M1206.005,706.857h-88.781v-88.781h-88.781
						v-88.781h177.562V706.857z"/>
					<path fill="#523494" d="M1100.194,813.886H922.632V636.324h177.562V813.886z M1206.731,529.787v177.562h-88.781v-88.781
						h-88.781v-88.781H1206.731L1206.731,529.787z"/>
					<path fill="#523494" d="M1100.919,814.377H923.357V636.815h177.562V814.377z M1207.456,707.84h-88.781v-88.781h-88.781v-88.781
						h177.562V707.84z"/>
					<path fill="#523494" d="M1101.644,814.869H924.082V637.307h177.562V814.869z M1208.182,708.332h-88.781v-88.781h-88.781V530.77
						h177.562V708.332z"/>
					<path fill="#523494" d="M1102.37,815.36H924.808V637.798h177.562V815.36z M1208.907,531.261v177.562h-88.781v-88.781h-88.781
						v-88.781H1208.907L1208.907,531.261z"/>
					<path fill="#523494" d="M1103.095,815.851H925.533V638.289h177.562V815.851z M1209.632,531.752v177.562h-88.781v-88.781
						h-88.781v-88.781H1209.632L1209.632,531.752z"/>
					<path fill="#523494" d="M1103.821,816.343H926.259V638.781h177.562V816.343z M1210.358,532.244v177.562h-88.781v-88.781
						h-88.781v-88.781H1210.358L1210.358,532.244z"/>
					<path fill="#523494" d="M1104.546,816.834H926.984V639.272h177.562V816.834z M1211.083,710.297h-88.781v-88.781h-88.781
						v-88.781h177.562V710.297z"/>
					<path fill="#523494" d="M1105.271,817.326H927.709V639.764h177.562V817.326z M1211.809,533.226v177.562h-88.781v-88.781
						h-88.781v-88.781H1211.809L1211.809,533.226z"/>
					<path fill="#523494" d="M1105.997,817.817H928.435V640.255h177.562V817.817z M1212.534,711.28h-88.781v-88.781h-88.781v-88.781
						h177.562V711.28z"/>
					<path fill="#523494" d="M1106.722,818.308H929.16V640.746h177.562V818.308z M1213.259,534.209v177.562h-88.781V622.99h-88.781
						v-88.781H1213.259L1213.259,534.209z"/>
					<path fill="#523494" d="M1107.448,818.8H929.886V641.238h177.562V818.8z M1213.985,534.7v177.562h-88.781v-88.781h-88.781
						V534.7H1213.985L1213.985,534.7z"/>
					<path fill="#523494" d="M1108.173,819.291H930.611V641.729h177.562V819.291z M1214.71,535.192v177.562h-88.781v-88.781h-88.781
						v-88.781H1214.71L1214.71,535.192z"/>
					<path fill="#523494" d="M1108.898,819.782H931.336V642.22h177.562V819.782z M1215.436,535.683v177.562h-88.781v-88.781h-88.781
						v-88.781H1215.436L1215.436,535.683z"/>
					<path fill="#523494" d="M1109.624,820.274H932.062V642.712h177.562V820.274z M1216.161,713.736h-88.781v-88.781h-88.781
						v-88.781h177.562V713.736z"/>
					<path fill="#523494" d="M1110.349,820.765H932.787V643.203h177.562V820.765z M1216.886,714.228h-88.781v-88.781h-88.781
						v-88.781h177.562V714.228z"/>
					<path fill="#523494" d="M1111.075,821.256H933.513V643.694h177.562V821.256z M1217.612,714.719h-88.781v-88.781h-88.781
						v-88.781h177.562V714.719z"/>
					<path fill="#523494" d="M1111.8,821.748H934.238V644.186H1111.8V821.748z M1218.337,537.649v177.562h-88.781V626.43h-88.781
						v-88.781H1218.337L1218.337,537.649z"/>
					<path fill="#523494" d="M1112.525,822.239H934.963V644.677h177.562V822.239z M1219.063,715.702h-88.781v-88.781h-88.781V538.14
						h177.562V715.702z"/>
					<path fill="#523494" d="M1113.251,822.731H935.689V645.169h177.562V822.731z M1219.788,538.631v177.562h-88.781v-88.781
						h-88.781v-88.781H1219.788L1219.788,538.631z"/>
					<path fill="#523494" d="M1113.976,823.222H936.414V645.66h177.562V823.222z M1220.513,716.685h-88.781v-88.781h-88.781v-88.781
						h177.562V716.685z"/>
					<path fill="#523494" d="M1114.702,823.713H937.14V646.151h177.562V823.713z M1221.239,717.176h-88.781v-88.781h-88.781v-88.781
						h177.562V717.176z"/>
					<path fill="#523494" d="M1115.427,824.205H937.865V646.643h177.562V824.205z M1221.964,540.105v177.562h-88.781v-88.781
						h-88.781v-88.781H1221.964L1221.964,540.105z"/>
					<path fill="#523494" d="M1116.152,824.696H938.59V647.134h177.562V824.696z M1222.69,718.159h-88.781v-88.781h-88.781v-88.781
						h177.562V718.159z"/>
					<path fill="#523494" d="M1116.878,825.187H939.316V647.625h177.562V825.187z M1223.415,718.65h-88.781v-88.781h-88.781v-88.781
						h177.562V718.65z"/>
					<path fill="#523494" d="M1117.603,825.679H940.041V648.117h177.562V825.679z M1224.14,719.141h-88.781V630.36h-88.781v-88.781
						h177.562V719.141z"/>
					<path fill="#523494" d="M1118.328,826.17H940.766V648.608h177.562V826.17z M1224.866,542.071v177.562h-88.781v-88.781h-88.781
						v-88.781H1224.866L1224.866,542.071z"/>
					<path fill="#523494" d="M1119.054,826.661H941.492V649.099h177.562V826.661z M1225.591,720.124h-88.781v-88.781h-88.781
						v-88.781h177.562V720.124z"/>
					<path fill="#523494" d="M1119.779,827.153H942.217V649.591h177.562V827.153z M1226.317,543.054v177.562h-88.781v-88.781
						h-88.781v-88.781H1226.317L1226.317,543.054z"/>
					<path fill="#523494" d="M1120.505,827.644H942.943V650.082h177.562V827.644z M1227.042,543.545v177.562h-88.781v-88.781
						h-88.781v-88.781H1227.042L1227.042,543.545z"/>
					<path fill="#523494" d="M1121.23,828.136H943.668V650.574h177.562V828.136z M1227.767,544.036v177.562h-88.781v-88.781h-88.781
						v-88.781H1227.767L1227.767,544.036z"/>
					<path fill="#523494" d="M1121.955,828.627H944.393V651.065h177.562V828.627z M1228.493,722.09h-88.781v-88.781h-88.781v-88.781
						h177.562V722.09z"/>
					<path fill="#523494" d="M1122.681,829.118H945.119V651.556h177.562V829.118z M1229.218,545.019v177.562h-88.781V633.8h-88.781
						v-88.781H1229.218L1229.218,545.019z"/>
					<path fill="#523494" d="M1123.406,829.61H945.844V652.048h177.562V829.61z M1229.944,545.51v177.562h-88.781v-88.781h-88.781
						V545.51H1229.944L1229.944,545.51z"/>
					<path fill="#523494" d="M1124.132,830.101H946.57V652.539h177.562V830.101z M1230.669,723.564h-88.781v-88.781h-88.781v-88.781
						h177.562V723.564z"/>
					<path fill="#523494" d="M1124.857,830.592H947.295V653.03h177.562V830.592z M1231.394,546.493v177.562h-88.781v-88.781h-88.781
						v-88.781H1231.394L1231.394,546.493z"/>
					<path fill="#523494" d="M1125.582,831.084H948.02V653.522h177.562V831.084z M1232.12,724.546h-88.781v-88.781h-88.781v-88.781
						h177.562V724.546z"/>
					<path fill="#523494" d="M1126.308,831.575H948.746V654.013h177.562V831.575z M1232.845,725.038h-88.781v-88.781h-88.781
						v-88.781h177.562V725.038z"/>
					<path fill="#523494" d="M1127.033,832.066H949.471V654.504h177.562V832.066z M1233.571,547.967v177.562h-88.781v-88.781
						h-88.781v-88.781H1233.571L1233.571,547.967z"/>
					<path fill="#523494" d="M1127.759,832.558H950.197V654.996h177.562V832.558z M1234.296,548.459v177.562h-88.781V637.24h-88.781
						v-88.781H1234.296L1234.296,548.459z"/>
					<path fill="#523494" d="M1128.484,833.049H950.922V655.487h177.562V833.049z M1235.021,726.512h-88.781v-88.781h-88.781V548.95
						h177.562V726.512z"/>
					<path fill="#523494" d="M1129.209,833.541H951.647V655.979h177.562V833.541z M1235.747,549.441v177.562h-88.781v-88.781
						h-88.781v-88.781H1235.747L1235.747,549.441z"/>
					<path fill="#523494" d="M1129.935,834.032H952.373V656.47h177.562V834.032z M1236.472,549.933v177.562h-88.781v-88.781h-88.781
						v-88.781H1236.472L1236.472,549.933z"/>
					<path fill="#523494" d="M1130.66,834.523H953.098V656.961h177.562V834.523z M1237.197,550.424v177.562h-88.781v-88.781h-88.781
						v-88.781H1237.197L1237.197,550.424z"/>
					<path fill="#523494" d="M1131.386,835.015H953.824V657.453h177.562V835.015z M1237.923,728.477h-88.781v-88.781h-88.781
						v-88.781h177.562V728.477z"/>
					<path fill="#523494" d="M1132.111,835.506H954.549V657.944h177.562V835.506z M1238.648,551.407v177.562h-88.781v-88.781
						h-88.781v-88.781H1238.648L1238.648,551.407z"/>
					<path fill="#523494" d="M1132.836,835.997H955.274V658.435h177.562V835.997z M1239.374,729.46h-88.781v-88.781h-88.781v-88.781
						h177.562V729.46z"/>
					<path fill="#523494" d="M1133.562,836.489H956V658.927h177.562V836.489z M1240.099,729.951h-88.781V641.17h-88.781v-88.781
						h177.562V729.951z"/>
					<path fill="#523494" d="M1134.287,836.98H956.725V659.418h177.562V836.98z M1240.824,730.443h-88.781v-88.781h-88.781v-88.781
						h177.562V730.443z"/>
					<path fill="#523494" d="M1135.013,837.471H957.451V659.909h177.562V837.471z M1241.55,553.372v177.562h-88.781v-88.781h-88.781
						v-88.781H1241.55L1241.55,553.372z"/>
					<path fill="#523494" d="M1135.738,837.963H958.176V660.401h177.562V837.963z M1242.275,553.864v177.562h-88.781v-88.781
						h-88.781v-88.781H1242.275L1242.275,553.864z"/>
					<path fill="#523494" d="M1136.463,838.454H958.901V660.892h177.562V838.454z M1243.001,554.355v177.562h-88.781v-88.781
						h-88.781v-88.781H1243.001L1243.001,554.355z"/>
					<path fill="#523494" d="M1137.189,838.945H959.627V661.383h177.562V838.945z M1243.726,554.846v177.562h-88.781v-88.781
						h-88.781v-88.781H1243.726L1243.726,554.846z"/>
					<path fill="#523494" d="M1137.914,839.437H960.352V661.875h177.562V839.437z M1244.451,555.338V732.9h-88.781v-88.781h-88.781
						v-88.781H1244.451L1244.451,555.338z"/>
					<path fill="#523494" d="M1138.64,839.928H961.078V662.366h177.562V839.928z M1245.177,733.391h-88.781V644.61h-88.781v-88.781
						h177.562V733.391z"/>
					<path fill="#523494" d="M1139.365,840.42H961.803V662.858h177.562V840.42z M1245.902,556.32v177.562h-88.781v-88.781h-88.781
						V556.32H1245.902L1245.902,556.32z"/>
					<path fill="#523494" d="M1140.09,840.911H962.528V663.349h177.562V840.911z M1246.628,556.812v177.562h-88.781v-88.781h-88.781
						v-88.781H1246.628L1246.628,556.812z"/>
					<path id="Rectangle_168_copy_3_" fill="#523494" d="M1140.816,841.402H963.254V663.84h177.562V841.402z M1247.353,734.865
						h-88.781v-88.781h-88.781v-88.781h177.562V734.865z"/>
				</g>
			</g>
		</g>
	</g>
	<g>
		<defs>
			<path id="SVGID_5_" d="M0,12C0,5.373,5.373,0,12,0l402.263,0c6.627,0,12,5.373,12,12v402.263c0,6.627-5.373,12-12,12H12
				c-6.627,0-12-5.373-12-12L0,12z"/>
		</defs>
		<clipPath id="SVGID_6_">
			<use xlink:href="#SVGID_5_"  overflow="visible"/>
		</clipPath>
		<g id="Icons_with_numbers_1_" clip-path="url(#SVGID_6_)">
			<g id="Group_1_" transform="translate(-528.000000, -240.000000)">
				<path id="Rectangle_168_copy_1_" fill="#FFFFFF" d="M883.181,488.644H794.4v-88.781h-88.781v-88.781h177.562V488.644z
					 M776.644,595.181H599.082V417.619h177.562V595.181z"/>
			</g>
		</g>
	</g>
</g>
</svg>
