<?xml version="1.0" encoding="utf-8"?>
<!-- Generator: Adobe Illustrator 17.0.0, SVG Export Plug-In . SVG Version: 6.00 Build 0)  -->
<!DOCTYPE svg PUBLIC "-//W3C//DTD SVG 1.1//EN" "http://www.w3.org/Graphics/SVG/1.1/DTD/svg11.dtd">
<svg version="1.1" id="Livello_1" xmlns="http://www.w3.org/2000/svg" xmlns:xlink="http://www.w3.org/1999/xlink" x="0px" y="0px"
	 width="47.04px" height="47.04px" viewBox="0 0 47.04 47.04" enable-background="new 0 0 47.04 47.04" xml:space="preserve">
<g>
	<path fill="#FAB136" d="M0.24,25.92c0-1.44,0-2.88,0-4.32c0.588-0.696,0.345-1.574,0.52-2.36
		C2.192,12.838,5.509,7.684,11.045,4.089c2.85-1.851,5.9-3.269,9.402-3.392c0.401-0.014,0.84-0.127,1.153-0.457
		c1.52,0,3.04,0,4.56,0c0.866,0.628,1.918,0.296,2.852,0.552c3.512,0.965,6.797,2.398,9.623,4.751
		c3.818,3.179,6.396,7.139,7.792,11.932c0.376,1.291,0.115,2.696,0.853,3.884c0,1.6,0,3.2,0,4.8
		c-0.41,0.144-0.484,0.461-0.482,0.854c0.017,3.087-1.175,5.811-2.713,8.372c-4.249,7.078-10.479,11.027-18.765,11.628
		c-0.292,0.021-0.659-0.127-0.841,0.267c-0.56,0-1.12,0-1.68,0c-0.352-0.543-1.005-0.116-1.424-0.44
		c0.281-0.331,0.54-0.684,0.845-0.99c2.691-2.703,5.393-5.396,8.086-8.097c0.332-0.333,0.741-0.615,0.859-1.116
		c1.354-1.197,2.795-2.302,3.922-3.739c1.203-1.535,1.206-1.533-0.322-2.633c0.501-0.342,0.914-0.773,1.271-1.261
		c1.82-1.825,3.639-3.65,5.685-5.701c-1.01,0-1.65-0.065-2.273,0.015c-0.976,0.126-1.275-0.336-1.272-1.209
		c0.003-1.177-0.394-2.272-0.756-3.369c-2.072-6.288-9.342-11.242-16.669-9.423c-3.871,0.961-6.759,3.135-9.051,6.272
		c-0.521,0.078-0.799,0.497-1.131,0.828c-2.955,2.947-5.901,5.902-8.857,8.847c-0.332,0.33-0.598,0.756-1.102,0.875
		C0.487,26.066,0.363,25.993,0.24,25.92z"/>
	<path fill="#DA862B" d="M21.376,46.84c-5.01-0.222-9.241-2.332-12.967-5.519c-4.035-3.451-6.452-7.901-7.609-13.05
		c-0.155-0.69-0.13-1.42-0.189-2.132c0.503-0.12,0.77-0.545,1.102-0.875c2.957-2.945,5.902-5.9,8.857-8.847
		c0.332-0.331,0.61-0.749,1.131-0.827c-0.233,0.447-0.081,0.712,0.348,0.959c0.789,0.456,1.582,0.925,2.296,1.487
		c0.592,0.466,0.847,0.349,1.268-0.236c1.855-2.581,4.311-4.146,7.568-4.345c5.215-0.319,9.963,3.584,10.651,8.774
		c0.107,0.811-0.074,1.189-0.971,1.095c-0.654-0.068-1.32-0.013-2.206-0.013c1.772,2.155,3.824,3.696,5.384,5.694
		c-0.357,0.487-0.77,0.919-1.271,1.261c-0.374-0.226-0.772-0.421-1.116-0.685c-0.747-0.574-1.197-0.625-1.845,0.312
		c-1.424,2.061-3.466,3.435-5.934,3.914c-5.865,1.139-11.234-2.873-12.086-8.883c-0.096-0.676,0.091-0.829,0.711-0.861
		c0.801-0.041,1.62,0.196,2.638-0.116c-1.782-1.732-3.424-3.346-5.095-4.929c-0.187-0.177-0.353-0.711-0.834-0.228
		c-1.715,1.721-3.463,3.409-5.384,5.29c1.15,0,1.945,0.011,2.739-0.004c0.509-0.01,0.801,0.096,0.816,0.72
		c0.035,1.491,0.457,2.914,0.99,4.292c2.817,7.291,11.341,11.586,18.911,8.235c0.605-0.268,1.174-0.697,1.888-0.685
		c-0.118,0.501-0.527,0.783-0.859,1.116c-2.693,2.701-5.394,5.394-8.086,8.097C21.915,46.156,21.656,46.509,21.376,46.84z"/>
	<path fill="#FDFCF8" d="M36.037,29.004c-1.56-1.998-3.612-3.539-5.384-5.694c0.886,0,1.553-0.055,2.206,0.013
		c0.897,0.094,1.078-0.284,0.971-1.095c-0.688-5.19-5.436-9.093-10.651-8.774c-3.257,0.199-5.713,1.765-7.568,4.345
		c-0.421,0.586-0.676,0.703-1.268,0.236c-0.714-0.562-1.507-1.031-2.296-1.487c-0.429-0.248-0.581-0.512-0.348-0.959
		c2.292-3.137,5.18-5.311,9.051-6.272c7.327-1.819,14.598,3.134,16.669,9.423c0.362,1.097,0.759,2.192,0.756,3.369
		c-0.003,0.873,0.296,1.335,1.272,1.209c0.622-0.08,1.263-0.015,2.273-0.015C39.676,25.355,37.857,27.179,36.037,29.004z"/>
	<path fill="#FDFBF8" d="M31.166,36.637c-0.714-0.011-1.283,0.418-1.888,0.685c-7.569,3.35-16.094-0.945-18.911-8.235
		c-0.532-1.378-0.955-2.802-0.99-4.292c-0.015-0.624-0.307-0.73-0.816-0.72c-0.795,0.015-1.59,0.004-2.739,0.004
		c1.92-1.881,3.669-3.569,5.384-5.29c0.482-0.483,0.647,0.051,0.834,0.228c1.671,1.583,3.313,3.197,5.095,4.929
		c-1.018,0.312-1.838,0.075-2.638,0.116c-0.62,0.032-0.807,0.185-0.711,0.861c0.852,6.009,6.221,10.021,12.086,8.883
		c2.468-0.479,4.509-1.853,5.934-3.914c0.648-0.938,1.098-0.886,1.845-0.312c0.344,0.264,0.742,0.459,1.116,0.685
		c1.527,1.1,1.525,1.098,0.322,2.633C33.961,34.334,32.52,35.44,31.166,36.637z"/>
</g>
</svg>
