<?xml version="1.0" encoding="utf-8"?>
<!-- Generator: Adobe Illustrator 17.0.0, SVG Export Plug-In . SVG Version: 6.00 Build 0)  -->
<!DOCTYPE svg PUBLIC "-//W3C//DTD SVG 1.1//EN" "http://www.w3.org/Graphics/SVG/1.1/DTD/svg11.dtd">
<svg version="1.1" id="Livello_1" xmlns="http://www.w3.org/2000/svg" xmlns:xlink="http://www.w3.org/1999/xlink" x="0px" y="0px"
	 width="245.76px" height="245.76px" viewBox="0 0 245.76 245.76" enable-background="new 0 0 245.76 245.76" xml:space="preserve">
<g opacity="0.5">
	<g>
		<defs>
			<path id="SVGID_1_" d="M245.76,233.76c0,6.627-5.373,12-12,12H12c-6.627,0-12-5.373-12-12V12C0,5.373,5.373,0,12,0h221.76
				c6.627,0,12,5.373,12,12V233.76z"/>
		</defs>
		<clipPath id="SVGID_2_">
			<use xlink:href="#SVGID_1_"  overflow="visible"/>
		</clipPath>
		<g clip-path="url(#SVGID_2_)">
			<g>
				<path fill="#70CEF2" d="M0.24,109.68c0-36.114,0.003-72.228-0.02-108.342C0.219,0.473,0.36,0.215,1.301,0.215
					C82.488,0.242,163.674,0.242,244.86,0.213c0.973,0,1.166,0.194,1.166,1.167c-0.029,81.146-0.029,162.293,0.004,243.439
					c0,1.066-0.284,1.205-1.249,1.204C208.708,245.996,172.634,246,136.56,246c-0.528-0.684-0.004-1.126,0.403-1.536
					c3.012-3.028,6.022-6.056,9.062-9.056c4.8-4.738,9.51-9.564,14.31-14.301c4.971-4.905,9.87-9.881,14.807-14.82
					c3.046-3.047,6.18-6.011,9.115-9.168c0.923-0.993,2.072-1.755,2.861-2.88c0.306-0.728,0.274-1.494,0.266-2.252
					c-0.061-6.118-0.006-12.236-0.066-18.355c-0.065-6.626,0.273-13.263,0.019-19.882c-0.318-8.318-0.148-16.632-0.171-24.946
					c-0.044-15.908-0.072-31.816-0.004-47.724c0.038-8.948-0.087-17.896-0.016-26.844c0.004-0.48,0-0.96-0.022-1.44
					c-0.034-0.725-0.406-1.091-1.13-1.123c-0.56-0.025-1.12-0.022-1.68-0.022c-19.64-0.001-39.28-0.001-58.92,0.001
					c-0.84,0-1.68-0.005-2.518-0.066c-0.838,0.063-1.677,0.067-2.517,0.067c-19.792-0.001-39.583-0.004-59.375,0.008
					c-0.778,0-1.617-0.199-2.283,0.429c-1.323,1.54-2.687,3.038-4.167,4.443c-5.07,4.812-9.838,9.929-14.835,14.816
					c-0.941,0.92-1.896,1.829-2.892,2.684c-3.767,3.233-6.814,7.163-10.369,10.607c-5.045,4.889-9.984,9.89-14.931,14.88
					c-3.12,3.147-6.284,6.252-9.392,9.412C1.64,109.418,1.196,110.272,0.24,109.68z"/>
				<path fill="#58B6E2" d="M0.24,109.68c0.405,0.032,0.643-0.216,0.907-0.481c3.198-3.224,6.399-6.446,9.616-9.652
					c3.751-3.738,7.553-7.424,11.269-11.197c4.19-4.254,8.502-8.39,12.425-12.906c0.999-1.15,2.256-2.079,3.397-3.097
					c3.242-2.893,6.154-6.109,9.257-9.136c2.683-2.617,5.202-5.4,8.031-7.873c1.044-0.912,1.933-2,2.893-3.008
					c0.575,0.293,0.546,0.843,0.548,1.356c0.02,6.437,0.125,12.876-0.052,19.309c-0.065,2.355,0.075,4.692,0.073,7.038
					c-0.012,12.834-0.006,25.667-0.005,38.501c0,1.755-0.057,3.506-0.201,5.256c-0.092,1.118,0.218,2.215,0.214,3.34
					c-0.026,7.716,0.142,15.437-0.068,23.147c-0.144,5.274-0.19,10.544-0.169,15.815c0.035,8.665-0.079,17.33-0.005,25.995
					c0.006,0.646-0.278,1.46,0.434,1.876c0.755,0.44,1.367-0.184,1.959-0.55c6.356-3.923,12.706-7.855,19.065-11.772
					c7.991-4.923,15.969-9.868,23.956-14.798c5.812-3.587,11.628-7.167,17.43-10.77c0.514-0.319,1.023-0.623,1.627-0.725
					c0.655-0.173,1.152,0.187,1.663,0.499c10.853,6.611,21.722,13.197,32.55,19.849c9.228,5.669,18.502,11.263,27.714,16.957
					c0.478,0.295,1,0.506,1.464,0.818c0.492,0.331,1.055,0.629,0.988,1.37c-2.235,2.263-4.463,4.534-6.707,6.788
					c-6.064,6.089-12.122,12.186-18.209,18.253c-5.749,5.729-11.582,11.375-17.277,17.156c-2.654,2.694-5.37,5.325-8.012,8.03
					c-0.26,0.267-0.482,0.533-0.453,0.931c-45.06,0-90.12-0.004-135.181,0.027c-0.973,0.001-1.167-0.193-1.166-1.166
					C0.244,199.8,0.24,154.74,0.24,109.68z"/>
				<path fill="#F1F1F1" d="M123.151,155.545c-20.854,12.873-41.707,25.746-62.561,38.619c-0.204,0.126-0.403,0.261-0.614,0.375
					c-1.227,0.664-2.092,0.168-2.078-1.23c0.067-6.555-0.016-13.111,0.079-19.667c0.099-6.854-0.196-13.715-0.031-20.566
					c0.212-8.837,0.087-17.671,0.111-26.506c0.043-15.973,0.018-31.947,0.013-47.92c-0.003-8.773-0.023-17.547-0.036-26.32
					c-0.021-0.748,0.072-1.236,1.088-1.234c21.135,0.033,42.27,0.028,63.404,0.032c0.119,0,0.239,0.02,0.358,0.03
					c0.643,0.495,0.513,1.215,0.515,1.875c0.019,5.498,0.008,10.996,0.009,16.494c0,0.797-0.005,1.593,0.168,2.377
					c0.012,0.301-0.123,0.546-0.303,0.77c-0.721,1.464-1.447,2.927-2.194,4.38c-2.741,5.331-5.5,10.653-8.245,15.982
					c-0.657,1.275-1.574,1.847-2.978,2.043c-7.232,1.013-14.463,2.034-21.688,3.096c-0.156,0.023-0.319,0.033-0.467,0.257
					c0.475,0.846,1.233,1.506,1.982,2.113c1.681,1.362,3.178,2.922,4.742,4.4c3.164,2.991,6.397,5.908,9.533,8.929
					c1.067,1.028,1.378,2.083,1.112,3.535c-1.277,6.988-2.486,13.989-3.712,20.987c-0.021,0.119-0.019,0.237,0.139,0.428
					c1.28-0.541,2.557-1.178,3.793-1.875c2.406-1.356,4.892-2.547,7.367-3.762c2.871-1.409,5.633-3.028,8.528-4.386
					c0.665-0.312,1.381-0.788,2.034,0.063c0.29,0.798,0.45,1.594,0.253,2.454c-0.132,0.58-0.063,1.191-0.063,1.789
					c-0.002,6.815,0,13.629-0.003,20.444C123.408,154.225,123.46,154.909,123.151,155.545z"/>
				<path fill="#FEFEFE" d="M123.336,72.28c-0.426-0.434-0.464-0.969-0.463-1.544c0.012-6.526,0.01-13.051,0.011-19.577
					c0.439-0.013,0.878-0.037,1.317-0.038c20.628-0.002,41.257-0.002,61.885-0.001c1.599,0,1.598,0.001,1.598,1.622
					c0,6.475,0.001,12.951,0.001,19.426c0.001,15.927,0.001,31.855,0.001,47.782c0,10.288-0.138,20.579,0.049,30.863
					c0.115,6.306,0.07,12.61,0.124,18.914c0.067,7.815,0.005,15.631,0.025,23.447c0.002,0.683-0.138,1.233-0.667,1.666
					c-2.445-1.827-5.146-3.249-7.736-4.845c-7.161-4.415-14.377-8.741-21.559-13.121c-11.133-6.789-22.257-13.593-33.383-20.395
					c-0.476-0.291-0.927-0.622-1.39-0.935c-0.373-0.4-0.267-0.899-0.268-1.368c-0.005-7.338-0.019-14.676,0.012-22.014
					c0.005-1.185,0.088-2.37-0.028-3.554c-0.011-0.229,0.131-0.334,0.321-0.401c0.733-0.111,1.312,0.295,1.904,0.606
					c6.117,3.216,12.341,6.223,18.452,9.451c0.383,0.202,0.749,0.465,1.289,0.521c0.056-1.008-0.218-1.964-0.389-2.913
					c-1.083-6.007-2.058-12.034-3.221-18.025c-0.329-1.697-0.069-2.961,1.252-4.168c3.447-3.151,6.859-6.343,10.243-9.56
					c1.959-1.862,4.083-3.564,5.947-5.705c-1.224-0.506-2.424-0.518-3.575-0.678c-6.36-0.885-12.709-1.852-19.074-2.704
					c-1.165-0.156-1.956-0.736-2.502-1.794c-2.672-5.183-5.413-10.331-8.002-15.557c-0.725-1.463-1.719-2.793-2.169-4.394
					C123.247,72.943,123.043,72.619,123.336,72.28z"/>
				<path fill="#E6A03F" d="M123.117,128.389c-0.083,0.074-0.166,0.147-0.25,0.221c-3.566,1.793-7.136,3.577-10.696,5.381
					c-3.491,1.77-6.971,3.562-10.458,5.34c-0.315,0.161-0.643,0.297-1.127,0.518c0.584-3.36,1.139-6.572,1.702-9.782
					c0.793-4.522,1.56-9.049,2.42-13.558c0.162-0.851-0.081-1.315-0.654-1.849c-5.586-5.203-11.153-10.427-16.718-15.654
					c-0.309-0.29-0.717-0.511-0.897-1.109c2.195-0.316,4.35-0.632,6.505-0.936c5.851-0.827,11.702-1.662,17.557-2.461
					c0.846-0.115,1.293-0.516,1.678-1.266c3.552-6.93,7.147-13.839,10.729-20.754c0.339-0.011,0.355,0.276,0.42,0.487
					c0.248,0.808,0.326,1.638,0.326,2.484c-0.005,16.903,0.002,33.806-0.018,50.71C123.638,126.923,123.895,127.79,123.117,128.389z
					"/>
				<path fill="#FDC154" d="M123.117,128.389c0.001-18.172,0.003-36.343-0.002-54.515c0-0.47,0.108-0.965-0.204-1.393
					c0.059-0.243,0.243-0.221,0.425-0.201c2.472,4.834,4.941,9.669,7.417,14.501c1.111,2.168,2.276,4.31,3.331,6.505
					c0.379,0.788,0.895,1.108,1.714,1.221c6.447,0.887,12.89,1.798,19.333,2.707c1.536,0.217,3.069,0.453,4.616,0.682
					c-0.076,0.592-0.515,0.795-0.819,1.081c-5.561,5.228-11.125,10.454-16.715,15.651c-0.621,0.577-0.829,1.084-0.669,1.959
					c1.374,7.54,2.684,15.091,4.011,22.639c0.026,0.149,0.029,0.302,0.062,0.663C138.022,136.007,130.57,132.198,123.117,128.389z"
					/>
			</g>
		</g>
	</g>
</g>
</svg>
