<?xml version="1.0" encoding="utf-8"?>
<!-- Generator: Adobe Illustrator 17.0.0, SVG Export Plug-In . SVG Version: 6.00 Build 0)  -->
<!DOCTYPE svg PUBLIC "-//W3C//DTD SVG 1.1//EN" "http://www.w3.org/Graphics/SVG/1.1/DTD/svg11.dtd">
<svg version="1.1" id="Livello_1" xmlns="http://www.w3.org/2000/svg" xmlns:xlink="http://www.w3.org/1999/xlink" x="0px" y="0px"
	 width="334.228px" height="334.228px" viewBox="0 0 334.228 334.228" enable-background="new 0 0 334.228 334.228"
	 xml:space="preserve">
<circle fill="#8C6EB0" cx="166.965" cy="166.965" r="166.965"/>
<g>
	<path fill="#FFFFFF" d="M275.465,167.114l-217-0.149 M167.039,58.465l-0.149,217"/>
	<g>
		<path fill="#FFFFFF" d="M275.465,154.614c-48.27-0.033-96.539-0.066-144.809-0.1c-24.064-0.017-48.128-0.033-72.191-0.05
			c-16.122-0.011-16.121,24.989,0,25c48.27,0.033,96.539,0.066,144.809,0.1c24.064,0.017,48.128,0.033,72.191,0.05
			C291.587,179.625,291.586,154.625,275.465,154.614L275.465,154.614z"/>
		<path fill="#FFFFFF" d="M154.539,58.465c-0.033,48.27-0.066,96.539-0.1,144.809c-0.017,24.064-0.033,48.128-0.05,72.191
			c-0.011,16.122,24.989,16.121,25,0c0.033-48.27,0.066-96.539,0.1-144.809c0.017-24.064,0.033-48.128,0.05-72.191
			C179.551,42.343,154.551,42.344,154.539,58.465L154.539,58.465z"/>
	</g>
</g>
<path opacity="0.3" fill="#262262" d="M308.538,255.421c48.755-78.025,25.185-180.74-52.596-229.737L78.571,308.601
	C156.758,357.38,259.695,333.587,308.538,255.421z"/>
</svg>
