<?xml version="1.0" encoding="utf-8"?>
<!-- Generator: Adobe Illustrator 17.0.0, SVG Export Plug-In . SVG Version: 6.00 Build 0)  -->
<!DOCTYPE svg PUBLIC "-//W3C//DTD SVG 1.1//EN" "http://www.w3.org/Graphics/SVG/1.1/DTD/svg11.dtd">
<svg version="1.1" id="Livello_1" xmlns="http://www.w3.org/2000/svg" xmlns:xlink="http://www.w3.org/1999/xlink" x="0px" y="0px"
	 width="286.853px" height="286.622px" viewBox="0 0 286.853 286.622" enable-background="new 0 0 286.853 286.622"
	 xml:space="preserve">
<g>
	<path fill="#4384F4" d="M130.951,285.952c-9.572-0.136-18.812-2.157-27.963-4.799c-17.013-4.914-32.626-12.801-46.569-23.532
		c-20.367-15.674-35.715-35.417-45.559-59.35c-4.215-10.247-7.479-20.775-9.073-31.654c-2.007-13.691-2.526-27.468-0.505-41.337
		c1.809-12.415,4.615-24.442,9.431-36.041c8.591-20.688,21.123-38.624,37.948-53.324C67.134,19.775,88.435,8.716,112.479,3.49
		c13.229-2.875,26.753-4.219,40.271-3.093c26.881,2.24,51.632,10.558,73.777,26.437c19.515,13.993,34.508,31.714,45.295,52.996
		c5.916,11.671,10.215,24.035,12.54,36.949c2.077,11.535,3.01,23.233,2.199,34.933c-0.582,8.391-1.693,16.774-3.581,25.008
		c-0.179,0.78-0.723,1.476-1.098,2.21c-1.485-0.083-2.273-1.235-3.192-2.14c-9.376-9.23-18.554-18.657-27.81-28.006
		c-1.344-1.357-2.393-2.986-3.491-4.561c-8.737-5.962-18.096-10.873-27.23-16.148c-39.374-22.738-78.817-45.354-118.114-68.224
		c-5.184-3.017-10.469-5.857-15.628-8.921c-2.685-1.595-3.118-1.268-3.23,1.998c-0.025,0.719-0.006,1.44-0.006,2.16
		c0,59.034-0.005,118.067,0.019,177.101c0.001,1.991-0.512,4.122,1.023,5.859c13.323,14.256,27.526,27.644,41.192,41.562
		C127.378,281.607,129.749,283.28,130.951,285.952z"/>
	<path fill="#2F5DAA" d="M248.447,144.173c7.772,9.517,16.881,17.755,25.401,26.556c2.662,2.75,5.354,5.471,8.034,8.203
		c-6.399,25.466-18.995,47.475-37.573,65.928c-22.64,22.487-49.932,35.878-81.535,40.43c-0.469,0.067-0.955,0.012-1.433,0.014
		c-0.928-0.2-1.876-0.666-2.729,0.195c-9.195,1.549-18.421,1.293-27.658,0.455c-1.934-0.635-2.832-2.436-4.146-3.745
		c-13.37-13.318-26.703-26.675-40.034-40.032c-1.002-1.004-2.241-1.846-2.584-3.364c0.413-1.633,1.945-2.041,3.138-2.744
		c19.305-11.373,38.782-22.45,58.18-33.663c32.364-18.709,64.767-37.349,97.132-56.056
		C244.387,145.336,245.978,143.441,248.447,144.173z"/>
	<path fill="#2355A9" d="M158.612,285.498c0.412-1.007,1.041-1.052,2.728-0.195C160.431,285.368,159.521,285.433,158.612,285.498z"
		/>
	<path fill="#FAFCFE" d="M248.447,144.173c-19.776,11.141-39.414,22.518-58.965,34.052c-14.084,8.308-28.41,16.205-42.585,24.361
		c-20.921,12.039-41.804,24.145-62.706,36.223c-0.823,0.221-1.905,1.176-1.998-0.684c-0.036-0.718-0.016-1.439-0.016-2.159
		c-0.001-61.544,0-123.089,0-184.633c0-1.064,0-2.127,0-3.405c2.847,0.373,4.725,2.159,6.817,3.363
		c31.931,18.375,63.813,36.837,95.721,55.252c20.341,11.74,40.713,23.425,61.042,35.185
		C246.776,142.317,248.475,142.357,248.447,144.173z"/>
	<path fill="#F2F3F4" d="M107.9,140.043c0,2.121,0,4.242,0,6.363c-0.109,0.002-0.218,0.003-0.327,0.005c0-2.121,0-4.242,0-6.363
		C107.682,140.046,107.791,140.045,107.9,140.043z"/>
	<path fill="#F2F3F4" d="M178.083,156.353c0-1.824,0-3.649,0-5.473c0.12-0.001,0.24-0.002,0.361-0.003c0,1.858,0,3.716,0,5.574
		C178.324,156.418,178.203,156.385,178.083,156.353z"/>
	<path fill="#F2F3F4" d="M178.028,144.322c-0.026-2.129-0.382-3.278,0.32-4.496C178.779,141.194,178.862,142.405,178.028,144.322z"
		/>
	<path fill="#F1F2F4" d="M165.676,158.837c-0.06,0.64-0.052,1.816-0.19,1.833c-0.889,0.112-0.395-0.673-0.474-1.074
		c-0.056-0.284,0.123-0.615,0.197-0.924C165.365,158.727,165.521,158.782,165.676,158.837z"/>
</g>
</svg>
